SplineFontDB: 3.0
FontName: Devama
FullName: Devama
FamilyName: Devama
Weight: Book
Copyright: (c)  Released under Open Font License Ver 1.1 by K P Rao, Devanagari, Full font. Contains font + Unicode set requirements. Kannada glyphs are used for Devanagari encoding
Version: 0.99
ItalicAngle: 0
UnderlinePosition: -143
UnderlineWidth: 20
Ascent: 1638
Descent: 410
InvalidEm: 0
sfntRevision: 0x0001199a
LayerCount: 2
Layer: 0 0 "Back" 1
Layer: 1 0 "Fore" 0
XUID: [1021 342 207971629 10960]
StyleMap: 0x0000
FSType: 0
OS2Version: 3
OS2_WeightWidthSlopeOnly: 0
OS2_UseTypoMetrics: 0
CreationTime: 884707328
ModificationTime: 1438081054
PfmFamily: 81
TTFWeight: 400
TTFWidth: 5
LineGap: 0
VLineGap: 0
Panose: 0 0 4 0 0 0 0 0 0 0
OS2TypoAscent: 2542
OS2TypoAOffset: 0
OS2TypoDescent: -898
OS2TypoDOffset: 0
OS2TypoLinegap: 0
OS2WinAscent: 2542
OS2WinAOffset: 0
OS2WinDescent: 898
OS2WinDOffset: 0
HheadAscent: 2542
HheadAOffset: 0
HheadDescent: -898
HheadDOffset: 0
OS2SubXSize: 1434
OS2SubYSize: 1331
OS2SubXOff: 0
OS2SubYOff: 293
OS2SupXSize: 1434
OS2SupYSize: 1331
OS2SupXOff: 0
OS2SupYOff: 928
OS2StrikeYSize: 102
OS2StrikeYPos: 530
OS2Vendor: 'MS  '
OS2CodePages: 00000000.00000000
OS2UnicodeRanges: 00008000.00000000.00000000.00000000
Lookup: 4 0 0 "'abvs' Above Base Substitutions in Devanagari lookup 0" { "'abvs' Above Base Substitutions in Devanagari lookup 0 subtable"  } ['abvs' ('deva' <'dflt' > ) ]
Lookup: 4 0 0 "'abvs' Above Base Substitutions in Devanagari lookup 1" { "'abvs' Above Base Substitutions in Devanagari lookup 1 subtable"  } ['abvs' ('deva' <'dflt' > ) ]
Lookup: 4 0 0 "'abvs' Above Base Substitutions in Devanagari lookup 2" { "'abvs' Above Base Substitutions in Devanagari lookup 2 subtable"  } ['abvs' ('deva' <'dflt' > ) ]
Lookup: 4 0 0 "'abvs' Above Base Substitutions in Devanagari lookup 3" { "'abvs' Above Base Substitutions in Devanagari lookup 3 subtable"  } ['abvs' ('deva' <'dflt' > ) ]

StartChar: .notdef
Encoding: 65536 -1 0
Width: 1024
GlyphClass: 2
Flags: W
LayerCount: 2
Fore
SplineSet
128 0 m 1
 128 1320 l 1
 896 1320 l 1
 896 0 l 1
 128 0 l 1
256 128 m 1
 768 128 l 1
 768 1192 l 1
 256 1192 l 1
 256 128 l 1
EndSplineSet
EndChar

StartChar: exclam
Encoding: 33 33 3
Width: 640
GlyphClass: 2
Flags: W
LayerCount: 2
Fore
SplineSet
408 343 m 1
 229 343 l 1
 229 1304 l 1
 408 1304 l 1
 408 343 l 1
425 0 m 1
 216 0 l 1
 216 199 l 1
 425 199 l 1
 425 0 l 1
EndSplineSet
EndChar

StartChar: quotedbl
Encoding: 34 34 4
Width: 1014
GlyphClass: 2
Flags: W
LayerCount: 2
Fore
SplineSet
801 1495 m 1
 751 1068 l 1
 636 1068 l 1
 585 1495 l 1
 801 1495 l 1
427 1495 m 1
 377 1068 l 1
 262 1068 l 1
 211 1495 l 1
 427 1495 l 1
EndSplineSet
EndChar

StartChar: numbersign
Encoding: 35 35 5
Width: 1602
GlyphClass: 2
Flags: W
LayerCount: 2
Fore
SplineSet
1381 975 m 1
 1350 821 l 1
 1105 821 l 1
 1024 518 l 1
 1272 518 l 1
 1240 364 l 1
 985 364 l 1
 899 0 l 1
 739 0 l 1
 826 364 l 1
 619 364 l 1
 532 0 l 1
 372 0 l 1
 459 364 l 1
 222 364 l 1
 253 518 l 1
 497 518 l 1
 579 821 l 1
 329 821 l 1
 360 975 l 1
 618 975 l 1
 704 1340 l 1
 864 1340 l 1
 777 975 l 1
 984 975 l 1
 1071 1340 l 1
 1230 1340 l 1
 1144 975 l 1
 1381 975 l 1
948 823 m 1
 738 823 l 1
 654 517 l 1
 864 517 l 1
 948 823 l 1
EndSplineSet
EndChar

StartChar: percent
Encoding: 37 37 6
Width: 1602
GlyphClass: 2
Flags: W
LayerCount: 2
Fore
SplineSet
784 988 m 0
 784 916 760.333007812 854.166992188 713 802.5 c 0
 665.666992188 750.833007812 608.666992188 725 542 725 c 0
 475.333007812 725 418.333007812 750.833007812 371 802.5 c 0
 323.666992188 854.166992188 300 916 300 988 c 0
 300 1059.33300781 323.666992188 1120.66601562 371 1171.99902344 c 0
 418.333007812 1223.33203125 475.333007812 1248.99902344 542 1248.99902344 c 0
 608.666992188 1248.99902344 665.666992188 1223.33203125 713 1171.99902344 c 0
 760.333007812 1120.66601562 784 1059.33300781 784 988 c 0
1370 1230 m 1
 371 -111 l 1
 235 -25 l 1
 1235 1318 l 1
 1370 1230 l 1
1303 212 m 0
 1303 140.666992188 1279.33300781 79.3330078125 1232 28 c 0
 1184.66699219 -23.3330078125 1127.66699219 -49 1061 -49 c 0
 994.333007812 -49 937.5 -23.5 890.5 27.5 c 0
 843.5 78.5 820 140 820 212 c 0
 820 284 843.5 345.833007812 890.5 397.5 c 0
 937.5 449.166992188 994.333007812 475 1061 475 c 0
 1127.66699219 475 1184.66699219 449.166992188 1232 397.5 c 0
 1279.33300781 345.833007812 1303 284 1303 212 c 0
653 987.999023438 m 0
 653 1022.66601562 642.333007812 1052.99902344 621 1078.99902344 c 0
 599.666992188 1104.99902344 573.333984375 1117.99902344 542.000976562 1117.99902344 c 0
 510.66796875 1117.99902344 484.500976562 1104.99902344 463.500976562 1078.99902344 c 0
 442.500976562 1052.99902344 432.000976562 1022.66601562 432.000976562 987.999023438 c 0
 432.000976562 953.33203125 442.500976562 922.83203125 463.500976562 896.499023438 c 0
 484.500976562 870.166015625 510.66796875 856.999023438 542.000976562 856.999023438 c 0
 573.333984375 856.999023438 599.666992188 870.166015625 621 896.499023438 c 0
 642.333007812 922.83203125 653 953.33203125 653 987.999023438 c 0
1172 211.999023438 m 0
 1172 246.666015625 1161.33300781 277.166015625 1140 303.499023438 c 0
 1118.66699219 329.83203125 1092.33398438 342.999023438 1061.00097656 342.999023438 c 0
 1029.66796875 342.999023438 1003.50097656 329.83203125 982.500976562 303.499023438 c 0
 961.500976562 277.166015625 951.000976562 246.666015625 951.000976562 211.999023438 c 0
 951.000976562 177.33203125 961.500976562 146.999023438 982.500976562 120.999023438 c 0
 1003.50097656 94.9990234375 1029.66796875 81.9990234375 1061.00097656 81.9990234375 c 0
 1092.33398438 81.9990234375 1118.66699219 94.9990234375 1140 120.999023438 c 0
 1161.33300781 146.999023438 1172 177.33203125 1172 211.999023438 c 0
EndSplineSet
EndChar

StartChar: ampersand
Encoding: 38 38 7
Width: 1496
GlyphClass: 2
Flags: W
LayerCount: 2
Fore
SplineSet
1405 119 m 1
 1286.00195312 0 l 1
 1079.00195312 206 l 1
 956.334960938 48 806.334960938 -31 629.001953125 -31 c 0
 499.668945312 -31 390.668945312 9.6669921875 302.001953125 91 c 0
 210.001953125 175 164.001953125 281 164.001953125 409 c 0
 164.001953125 587.666992188 254.668945312 731.666992188 436.001953125 841 c 1
 318.001953125 965.666992188 259.001953125 1070 259.001953125 1154 c 0
 259.001953125 1250.66699219 292.668945312 1329.66699219 360.001953125 1391 c 0
 425.334960938 1450.33300781 506.66796875 1480 604.000976562 1480 c 0
 702.000976562 1480 784.333984375 1450.33300781 851.000976562 1391 c 0
 920.333984375 1329.66699219 955.000976562 1250.66699219 955.000976562 1154 c 0
 955.000976562 1084 928.000976562 1016.66699219 874.000976562 952 c 0
 828.000976562 896.666992188 769.66796875 851 699.000976562 815 c 1
 1056.00097656 459 l 1
 1097.33398438 539 1117.66699219 656.666992188 1117 812 c 1
 1274 812 l 1
 1274 626.666992188 1240.33300781 473 1173 351 c 1
 1405 119 l 1
778.001953125 1154 m 0
 778.001953125 1206 761.500976562 1246.66699219 728.500976562 1276 c 0
 695.500976562 1305.33300781 652.66796875 1320 600.000976562 1320 c 0
 490.000976562 1320 435.000976562 1264.66699219 435.000976562 1154 c 0
 435.000976562 1111.33300781 453.66796875 1067 491.000976562 1021 c 0
 507.66796875 999.666992188 542.334960938 964 595.001953125 914 c 1
 717.001953125 967.333007812 778.001953125 1047.33300781 778.001953125 1154 c 0
959.000976562 322 m 1
 545.000976562 735 l 1
 488.333984375 698.333007812 441.000976562 652.666015625 403.000976562 597.999023438 c 0
 361.000976562 536.666015625 340.000976562 475.333007812 340.000976562 414 c 0
 340.000976562 328 370.66796875 258.666992188 432.000976562 206 c 0
 489.333984375 156.666992188 562.000976562 132 650.000976562 132 c 0
 769.333984375 132 872.333984375 195.333007812 959.000976562 322 c 1
EndSplineSet
EndChar

StartChar: quotesingle
Encoding: 39 39 8
Width: 436
GlyphClass: 2
Flags: W
LayerCount: 2
Fore
SplineSet
326 1495 m 1
 276 1068 l 1
 161 1068 l 1
 110 1495 l 1
 326 1495 l 1
EndSplineSet
EndChar

StartChar: parenleft
Encoding: 40 40 9
Width: 854
GlyphClass: 2
Flags: W
LayerCount: 2
Fore
SplineSet
753 -150 m 1
 633 -279.999023438 l 1
 507 -161.999023438 408.333007812 -21.9990234375 337 140.000976562 c 0
 265.666992188 302.000976562 230 469.000976562 230 641.000976562 c 0
 230 811.66796875 265.666992188 978.000976562 337 1140.00097656 c 0
 408.333007812 1302.00097656 507 1441.66796875 633 1559.00097656 c 1
 745 1439.00097656 l 1
 644.333007812 1333.00097656 566.5 1210.16796875 511.5 1070.50097656 c 0
 456.5 930.833984375 429 787.666992188 429 641 c 0
 429 491 456 348 510 212 c 0
 566.666992188 70.6669921875 647.666992188 -50 753 -150 c 1
EndSplineSet
EndChar

StartChar: parenright
Encoding: 41 41 10
Width: 854
GlyphClass: 2
Flags: W
LayerCount: 2
Fore
SplineSet
729 656 m 0
 729 501.333007812 696.66796875 339 632.000976562 169 c 0
 571.333984375 9.6669921875 490.666992188 -135.666015625 390 -266.999023438 c 1
 248 -162.999023438 l 1
 436 102.333984375 530 375.666992188 530 657 c 0
 530 928.333007812 444 1190 272 1442 c 1
 419 1546 l 1
 625.666992188 1252.66699219 729 956 729 656 c 0
EndSplineSet
EndChar

StartChar: asterisk
Encoding: 42 42 11
Width: 1076
GlyphClass: 2
Flags: W
LayerCount: 2
Fore
SplineSet
889 510 m 1
 613 510 l 1
 819 304 l 1
 770 255 l 1
 564 461 l 1
 564 187 l 1
 463 187 l 1
 463 461 l 1
 257 255 l 1
 208 304 l 1
 414 510 l 1
 140 510 l 1
 140 611 l 1
 414 611 l 1
 208 817 l 1
 257 866 l 1
 463 660 l 1
 463 936 l 1
 564 936 l 1
 564 660 l 1
 770 866 l 1
 819 817 l 1
 613 611 l 1
 889 611 l 1
 889 510 l 1
EndSplineSet
EndChar

StartChar: plus
Encoding: 43 43 12
Width: 1282
GlyphClass: 2
Flags: W
LayerCount: 2
Fore
SplineSet
1039 490 m 1
 695 490 l 1
 695 137 l 1
 558 137 l 1
 558 490 l 1
 243 490 l 1
 243 631 l 1
 558 631 l 1
 558 982 l 1
 695 982 l 1
 695 631 l 1
 1039 631 l 1
 1039 490 l 1
EndSplineSet
EndChar

StartChar: comma
Encoding: 44 44 13
Width: 560
GlyphClass: 2
Flags: W
LayerCount: 2
Fore
SplineSet
396 32 m 2
 396 18.6669921875 393.333007812 8 388 0 c 2
 209 -267 l 1
 137 -216 l 1
 279 0 l 1
 164 0 l 1
 164 222 l 1
 396 222 l 1
 396 32 l 2
EndSplineSet
EndChar

StartChar: hyphen
Encoding: 45 45 14
Width: 840
GlyphClass: 2
Flags: W
LayerCount: 2
Fore
SplineSet
702 561 m 1
 138 561 l 1
 138 721 l 1
 702 721 l 1
 702 561 l 1
EndSplineSet
EndChar

StartChar: period
Encoding: 46 46 15
Width: 640
GlyphClass: 2
Flags: W
LayerCount: 2
Fore
SplineSet
409 0 m 1
 176 0 l 1
 176 222 l 1
 409 222 l 1
 409 0 l 1
EndSplineSet
EndChar

StartChar: slash
Encoding: 47 47 16
Width: 1282
GlyphClass: 2
Flags: W
LayerCount: 2
Fore
SplineSet
1131 1230 m 1
 292 -111 l 1
 156 -25 l 1
 996 1318 l 1
 1131 1230 l 1
EndSplineSet
EndChar

StartChar: zero
Encoding: 48 48 17
Width: 1220
GlyphClass: 2
Flags: W
LayerCount: 2
Fore
SplineSet
1151 660 m 0
 1151 464 1109.33300781 303.333007812 1026 178 c 0
 930 32.6669921875 791 -40 609 -40 c 0
 427 -40 287.666992188 32.6669921875 191 178 c 0
 107 303.333007812 65 464 65 660 c 0
 65 856 107 1016.66699219 191 1142 c 0
 287.666992188 1287.33300781 427 1360 609 1360 c 0
 791 1360 930 1287.33300781 1026 1142 c 0
 1109.33300781 1016.66699219 1151 856 1151 660 c 0
975 660 m 0
 975 801.333007812 944.666992188 922.333007812 884 1023 c 0
 815.333007812 1136.33300781 723.666015625 1193 608.999023438 1193 c 0
 493.666015625 1193 401.666015625 1136.33300781 332.999023438 1023 c 0
 271.666015625 922.333007812 240.999023438 801.333007812 240.999023438 660 c 0
 240.999023438 518.666992188 271.666015625 397.666992188 332.999023438 297 c 0
 401.666015625 183.666992188 493.666015625 127 608.999023438 127 c 0
 723.666015625 127 815.333007812 183.666992188 884 297 c 0
 944.666992188 397.666992188 975 518.666992188 975 660 c 0
EndSplineSet
EndChar

StartChar: one
Encoding: 49 49 18
Width: 854
GlyphClass: 2
Flags: W
LayerCount: 2
Fore
SplineSet
569 0 m 1
 390 0 l 1
 390 1077 l 1
 275 963 l 1
 170 1077 l 1
 413 1320 l 1
 569 1320 l 1
 569 0 l 1
EndSplineSet
EndChar

StartChar: two
Encoding: 50 50 19
Width: 1174
GlyphClass: 2
Flags: W
LayerCount: 2
Fore
SplineSet
972 994 m 0
 972 880.666992188 921 781 819 695 c 1
 533 485 l 1
 431 395.666992188 380 289.666992188 380 167 c 1
 961 167 l 1
 961 0 l 1
 202 0 l 1
 199.333007812 34 198 63.6669921875 198 89 c 0
 198 273 249.333007812 425 352 545 c 0
 390 589 485.333007812 665.666992188 638 775 c 0
 740.666992188 848.333007812 792 921.333007812 792 994 c 0
 792 1125.33300781 723 1191 585 1191 c 0
 459 1191 361.333007812 1137 292 1029 c 1
 180 1141 l 1
 229.333007812 1222.33300781 299 1282 389 1320 c 0
 453.666992188 1346.66699219 519 1360 585 1360 c 0
 695.666992188 1360 787 1328 859 1264 c 0
 934.333007812 1196.66699219 972 1106.66699219 972 994 c 0
EndSplineSet
EndChar

StartChar: three
Encoding: 51 51 20
Width: 1174
GlyphClass: 2
Flags: W
LayerCount: 2
Fore
SplineSet
975 352 m 0
 975 260 937.333007812 174.666015625 862 95.9990234375 c 0
 774.666992188 5.33203125 663.666992188 -40.0009765625 529 -40.0009765625 c 0
 399.666992188 -40.0009765625 282.666992188 -4.0009765625 178 67.9990234375 c 1
 178 241.999023438 l 1
 298 165.999023438 415 127.999023438 529 127.999023438 c 0
 606.333007812 127.999023438 672 154.666015625 726 207.999023438 c 0
 774.666992188 255.999023438 799 306.33203125 799 358.999023438 c 0
 799 438.999023438 774.5 501.666015625 725.5 546.999023438 c 0
 676.5 592.33203125 608.333007812 614.999023438 521 614.999023438 c 2
 417 614.999023438 l 1
 417 783.999023438 l 1
 516 783.999023438 l 2
 576 783.999023438 626 803.499023438 666 842.499023438 c 0
 706 881.499023438 726 930.666015625 726 989.999023438 c 0
 726 1051.33203125 707.666992188 1100.83203125 671 1138.49902344 c 0
 634.333007812 1176.16601562 587.333007812 1194.99902344 530 1194.99902344 c 0
 494 1194.99902344 450.333007812 1186.99902344 399 1170.99902344 c 0
 351.666992188 1156.33203125 315 1140.99902344 289 1124.99902344 c 1
 289 1291.99902344 l 1
 370.333007812 1337.33203125 452 1359.99902344 534 1359.99902344 c 0
 634 1359.99902344 719 1325.99902344 789 1257.99902344 c 0
 861.666992188 1187.99902344 898 1101.33203125 898 997.999023438 c 0
 898 876.666015625 852.333007812 780.333007812 761 709 c 1
 903.666992188 641.666992188 975 522.666992188 975 352 c 0
EndSplineSet
EndChar

StartChar: four
Encoding: 52 52 21
Width: 1174
GlyphClass: 2
Flags: W
LayerCount: 2
Fore
SplineSet
1068 390 m 1
 833 390 l 1
 833 0 l 1
 657 0 l 1
 657 390 l 1
 114 390 l 1
 114 558 l 1
 657 1320 l 1
 833 1320 l 1
 833 558 l 1
 1068 558 l 1
 1068 390 l 1
657 558 m 1
 657 1041 l 1
 316 558 l 1
 657 558 l 1
EndSplineSet
EndChar

StartChar: five
Encoding: 53 53 22
Width: 1174
GlyphClass: 2
Flags: W
LayerCount: 2
Fore
SplineSet
974 403 m 0
 974 268.333007812 925.333007812 159 828 75 c 0
 738.666992188 -1.6669921875 631.333984375 -40 506.000976562 -40 c 0
 390.66796875 -40 286.000976562 -20.6669921875 192.000976562 18 c 1
 192.000976562 199 l 1
 286.000976562 155.666992188 383.333984375 134 484.000976562 134 c 0
 563.333984375 134 633.333984375 156.333007812 694.000976562 201 c 0
 763.333984375 251.666992188 798.000976562 319.333984375 798.000976562 404.000976562 c 0
 798.000976562 473.333984375 772.000976562 531.666992188 720.000976562 579 c 0
 663.333984375 630.333007812 587.666992188 656 493 656 c 2
 227 656 l 1
 227 1320 l 1
 906 1320 l 1
 906 1160 l 1
 404 1160 l 1
 404 824 l 1
 500 824 l 2
 642 824 757.333007812 782.333007812 846 699 c 0
 931.333007812 619.666992188 974 521 974 403 c 0
EndSplineSet
EndChar

StartChar: six
Encoding: 54 54 23
Width: 1174
GlyphClass: 2
Flags: W
LayerCount: 2
Fore
SplineSet
1051 373 m 0
 1051 259 1011.66601562 161.666992188 932.999023438 81 c 0
 854.33203125 0.3330078125 762.665039062 -40 657.998046875 -40 c 0
 495.331054688 -40 373.998046875 39.6669921875 293.998046875 199 c 0
 232.665039062 320.333007812 201.998046875 468.333007812 201.998046875 643 c 0
 201.998046875 836.333007812 247.331054688 999.333007812 337.998046875 1132 c 0
 442.665039062 1284 588.33203125 1360 774.999023438 1360 c 0
 824.33203125 1360 881.999023438 1347.66699219 947.999023438 1323 c 1
 947.999023438 1155 l 1
 886.666015625 1179.66699219 828.333007812 1192 773 1192 c 0
 647 1192 547.333007812 1130.33300781 474 1007 c 0
 412.666992188 903.666992188 382 785.666992188 382 653 c 1
 465.333007812 741.666992188 562 786 672 786 c 0
 778 786 867.333007812 747.666992188 940 671 c 0
 1014 592.333007812 1051 493 1051 373 c 0
880.999023438 375 m 0
 880.999023438 449.666992188 861.999023438 509 823.999023438 553 c 0
 785.999023438 597 734.33203125 619 668.999023438 619 c 0
 611.666015625 619 556.999023438 602 504.999023438 568 c 0
 457.666015625 538 421.666015625 501 396.999023438 457 c 1
 400.33203125 373.666992188 422.999023438 300.666992188 464.999023438 238 c 0
 514.999023438 164.666992188 580.33203125 128 660.999023438 128 c 0
 719.666015625 128 770.999023438 151.666992188 814.999023438 199 c 0
 858.999023438 246.333007812 880.999023438 305 880.999023438 375 c 0
EndSplineSet
EndChar

StartChar: seven
Encoding: 55 55 24
Width: 1174
GlyphClass: 2
Flags: W
LayerCount: 2
Fore
SplineSet
1028 1160 m 1
 940 1057.33300781 852.333984375 954.666992188 765.000976562 852 c 0
 652.333984375 718.666992188 568.666992188 600.333984375 514 497.000976562 c 0
 440 356.333984375 403 218.000976562 403 82.0009765625 c 0
 403 50.66796875 405 23.3349609375 409 0.001953125 c 1
 230 0.001953125 l 1
 226 30.6689453125 224 58.001953125 224 82.001953125 c 0
 224 223.334960938 258 364.66796875 326 506.000976562 c 0
 377.333007812 611.333984375 455 728.666992188 559 858 c 2
 809 1160 l 1
 214 1160 l 1
 214 1320 l 1
 1028 1320 l 1
 1028 1160 l 1
EndSplineSet
EndChar

StartChar: eight
Encoding: 56 56 25
Width: 1174
GlyphClass: 2
Flags: W
LayerCount: 2
Fore
SplineSet
1006 334 m 0
 1006 238 972 154.66796875 904 84.0009765625 c 0
 825.333007812 1.333984375 719 -39.9990234375 585 -39.9990234375 c 0
 450.333007812 -39.9990234375 344 0.333984375 266 81.0009765625 c 0
 198.666992188 151.000976562 165 235.333984375 165 334.000976562 c 0
 165 425.333984375 192.333007812 504.333984375 247 571.000976562 c 0
 281 611.66796875 341 661.000976562 427 719.000976562 c 1
 283.666992188 811.66796875 212 915.66796875 212 1031.00097656 c 0
 212 1141.00097656 248.333007812 1224.66796875 321 1282.00097656 c 0
 387 1334.00097656 475 1360.00097656 585 1360.00097656 c 0
 695 1360.00097656 783 1334.00097656 849 1282.00097656 c 0
 921.666992188 1224.66796875 958 1141.00097656 958 1031.00097656 c 0
 958 915.66796875 886.333007812 811.66796875 743 719.000976562 c 1
 829 661.000976562 889 611.333984375 923 570.000976562 c 0
 978.333007812 503.333984375 1006 424.666992188 1006 334 c 0
789 1031.00097656 m 0
 789 1087.66796875 767.998046875 1131.66796875 725.998046875 1163.00097656 c 0
 688.665039062 1190.33398438 641.665039062 1204.00097656 584.998046875 1204.00097656 c 0
 528.331054688 1204.00097656 481.331054688 1190.33398438 443.998046875 1163.00097656 c 0
 401.998046875 1131.66796875 380.998046875 1087.66796875 380.998046875 1031.00097656 c 0
 380.998046875 990.333984375 406.331054688 946.000976562 456.998046875 898.000976562 c 0
 495.665039062 860.66796875 538.33203125 830.000976562 584.999023438 806.000976562 c 1
 631.666015625 830.000976562 674.333007812 860.66796875 713 898.000976562 c 0
 763.666992188 946.000976562 789 990.333984375 789 1031.00097656 c 0
834.998046875 334.000976562 m 0
 834.998046875 439.333984375 751.6640625 538.000976562 584.997070312 630.000976562 c 1
 418.330078125 538.000976562 334.997070312 439.333984375 334.997070312 334.000976562 c 0
 334.997070312 284.000976562 354.6640625 237.000976562 393.997070312 193.000976562 c 0
 441.330078125 139.66796875 504.997070312 113.000976562 584.997070312 113.000976562 c 0
 665.6640625 113.000976562 729.331054688 138.66796875 775.998046875 190.000976562 c 0
 815.331054688 232.66796875 834.998046875 280.66796875 834.998046875 334.000976562 c 0
EndSplineSet
EndChar

StartChar: nine
Encoding: 57 57 26
Width: 1174
GlyphClass: 2
Flags: W
LayerCount: 2
Fore
SplineSet
1010 672 m 0
 1010 452.666992188 967.666015625 282.666015625 882.999023438 161.999023438 c 0
 788.999023438 28.666015625 646.666015625 -38.0009765625 455.999023438 -38.0009765625 c 0
 372.666015625 -38.0009765625 295.666015625 -20.333984375 224.999023438 14.9990234375 c 1
 224.999023438 185.999023438 l 1
 304.33203125 148.666015625 381.999023438 129.999023438 457.999023438 129.999023438 c 0
 707.33203125 129.999023438 831.999023438 307.33203125 831.999023438 661.999023438 c 1
 748.666015625 573.33203125 652.333007812 528.999023438 543 528.999023438 c 0
 437.666992188 528.999023438 349 568.83203125 277 648.499023438 c 0
 205 728.166015625 169 828.333007812 169 949 c 0
 169 1063.66699219 207.333007812 1161 284 1241 c 0
 360.666992188 1321 451.666992188 1361 557 1361 c 0
 722.333007812 1361 844 1280.33300781 922 1119 c 0
 980.666992188 998.333007812 1010 849.333007812 1010 672 c 0
815.999023438 857.999023438 m 1
 812.666015625 941.999023438 790.333007812 1016.33203125 749 1080.99902344 c 0
 699.666992188 1156.99902344 634.666992188 1194.99902344 554 1194.99902344 c 0
 493.333007812 1194.99902344 442 1172.33203125 400 1126.99902344 c 0
 356 1079.66601562 334 1019.66601562 334 946.999023438 c 0
 334 872.999023438 353.833007812 812.166015625 393.5 764.499023438 c 0
 433.166992188 716.83203125 483.666992188 692.999023438 545 692.999023438 c 0
 603.666992188 692.999023438 658.666992188 709.666015625 710 742.999023438 c 0
 759.333007812 773.666015625 794.666015625 811.999023438 815.999023438 857.999023438 c 1
EndSplineSet
EndChar

StartChar: colon
Encoding: 58 58 27
Width: 748
GlyphClass: 2
Flags: W
LayerCount: 2
Fore
SplineSet
490 588 m 1
 258 588 l 1
 258 810 l 1
 490 810 l 1
 490 588 l 1
490 0 m 1
 258 0 l 1
 258 222 l 1
 490 222 l 1
 490 0 l 1
EndSplineSet
EndChar

StartChar: semicolon
Encoding: 59 59 28
Width: 748
GlyphClass: 2
Flags: W
LayerCount: 2
Fore
SplineSet
490 588 m 1
 258 588 l 1
 258 810 l 1
 490 810 l 1
 490 588 l 1
490 27 m 2
 490 17 487.333007812 8 482 0 c 2
 303 -267 l 1
 231 -216 l 1
 372 0 l 1
 258 0 l 1
 258 222 l 1
 490 222 l 1
 490 27 l 2
EndSplineSet
EndChar

StartChar: less
Encoding: 60 60 29
Width: 1496
GlyphClass: 2
Flags: W
LayerCount: 2
Fore
SplineSet
1275 257 m 1
 1237 96 l 1
 201 592 l 1
 201 712 l 1
 1237 1205 l 1
 1275 1047 l 1
 442 652 l 1
 1275 257 l 1
EndSplineSet
EndChar

StartChar: equal
Encoding: 61 61 30
Width: 1282
GlyphClass: 2
Flags: W
LayerCount: 2
Fore
SplineSet
961 764 m 1
 320 764 l 1
 320 943 l 1
 961 943 l 1
 961 764 l 1
961 336 m 1
 320 336 l 1
 320 515 l 1
 961 515 l 1
 961 336 l 1
EndSplineSet
EndChar

StartChar: greater
Encoding: 62 62 31
Width: 1496
GlyphClass: 2
Flags: W
LayerCount: 2
Fore
SplineSet
1295 592 m 1
 259 96 l 1
 221 257 l 1
 1054 652 l 1
 221 1047 l 1
 259 1205 l 1
 1295 712 l 1
 1295 592 l 1
EndSplineSet
EndChar

StartChar: question
Encoding: 63 63 32
Width: 1174
GlyphClass: 2
Flags: W
LayerCount: 2
Fore
SplineSet
1002 1026 m 0
 1002 924 967.666992188 838.666992188 899 770 c 1
 707 620 l 1
 638.333007812 560 604 488.666992188 604 406 c 2
 604 277 l 1
 434 277 l 1
 434 406 l 2
 434 530 467.333007812 626.333007812 534 695 c 1
 595.333007812 739.666992188 657 784.666992188 719 830 c 0
 785.666992188 880.666992188 819 946.333984375 819 1027.00097656 c 0
 819 1080.33398438 796 1124.66699219 750 1160 c 0
 707.333007812 1192 658.666015625 1208 603.999023438 1208 c 0
 523.999023438 1208 460.166015625 1185.16699219 412.499023438 1139.5 c 0
 364.83203125 1093.83300781 340.999023438 1031.33300781 340.999023438 952 c 1
 172.999023438 952 l 1
 172.999023438 1076.66699219 213.666015625 1178.5 294.999023438 1257.5 c 0
 376.33203125 1336.5 479.33203125 1376 603.999023438 1376 c 0
 706.666015625 1376 797.333007812 1343.66699219 876 1279 c 0
 960 1210.33300781 1002 1126 1002 1026 c 0
624 0 m 1
 415 0 l 1
 415 199 l 1
 624 199 l 1
 624 0 l 1
EndSplineSet
EndChar

StartChar: at
Encoding: 64 64 33
Width: 2028
GlyphClass: 2
Flags: W
LayerCount: 2
Fore
SplineSet
1818 663 m 0
 1818 531 1796.00097656 410.666015625 1752.00097656 301.999023438 c 0
 1693.33398438 157.999023438 1607.66699219 85.9990234375 1495 85.9990234375 c 0
 1433.66699219 85.9990234375 1380.33398438 104.33203125 1335.00097656 140.999023438 c 0
 1301.66796875 166.999023438 1265.00097656 210.999023438 1225.00097656 272.999023438 c 1
 1151.66796875 204.999023438 1059.33496094 170.999023438 948.001953125 170.999023438 c 0
 826.668945312 170.999023438 734.001953125 219.33203125 670.001953125 315.999023438 c 0
 615.334960938 397.999023438 588.001953125 502.999023438 588.001953125 630.999023438 c 0
 588.001953125 755.666015625 625.334960938 860.333007812 700.001953125 945 c 0
 778.001953125 1033.66699219 878.334960938 1078 1001.00195312 1078 c 0
 1076.33496094 1078 1150.33496094 1056 1223.00195312 1012 c 1
 1223.00195312 1092 l 1
 1382.00195312 1092 l 1
 1382.00195312 372 l 2
 1382.00195312 330.666992188 1391.00195312 296 1409.00195312 268 c 0
 1430.33496094 235.333007812 1460.66796875 219 1500.00097656 219 c 0
 1565.33398438 219 1614.33398438 279 1647.00097656 399 c 0
 1669.00097656 481 1680.00097656 567 1680.00097656 657 c 0
 1680.00097656 872.333007812 1627.33398438 1044.33300781 1522.00097656 1173 c 0
 1408.00097656 1313 1245.66796875 1383 1035.00097656 1383 c 0
 841.66796875 1383 679.000976562 1309.33300781 547.000976562 1162 c 0
 418.333984375 1018 354.000976562 845.666992188 354.000976562 645 c 0
 354.000976562 432.333007812 412.66796875 258 530.000976562 122 c 0
 654.000976562 -22 820.66796875 -94 1030.00097656 -94 c 0
 1153.33398438 -94 1266.66699219 -78.6669921875 1370 -48 c 1
 1370 -190 l 1
 1267.33300781 -214 1153.66601562 -226 1028.99902344 -226 c 0
 782.999023438 -226 583.666015625 -141 430.999023438 29 c 0
 284.33203125 192.333007812 210.999023438 398.333007812 210.999023438 647 c 0
 210.999023438 886.333007812 287.666015625 1090 440.999023438 1258 c 0
 599.666015625 1431.33300781 797.333007812 1518 1034 1518 c 0
 1282 1518 1476.66699219 1436.33300781 1618 1273 c 0
 1751.33300781 1118.33300781 1818 915 1818 663 c 0
1221.00097656 407.999023438 m 1
 1221.00097656 875.999023438 l 1
 1152.33398438 911.999023438 1085.33398438 929.999023438 1020.00097656 929.999023438 c 0
 846.000976562 929.999023438 759.000976562 831.33203125 759.000976562 633.999023438 c 0
 759.000976562 428.666015625 835.000976562 325.999023438 987.000976562 325.999023438 c 0
 1079.00097656 325.999023438 1157.00097656 353.33203125 1221.00097656 407.999023438 c 1
EndSplineSet
EndChar

StartChar: bracketleft
Encoding: 91 91 34
Width: 960
GlyphClass: 2
Flags: W
LayerCount: 2
Fore
SplineSet
748 -304 m 1
 176 -304 l 1
 176 1583 l 1
 748 1583 l 1
 748 1415 l 1
 375 1415 l 1
 375 -135 l 1
 748 -135 l 1
 748 -304 l 1
EndSplineSet
EndChar

StartChar: backslash
Encoding: 92 92 35
Width: 1282
GlyphClass: 2
Flags: W
LayerCount: 2
Fore
SplineSet
1131 -25 m 1
 995 -111 l 1
 156 1230 l 1
 291 1318 l 1
 1131 -25 l 1
EndSplineSet
EndChar

StartChar: bracketright
Encoding: 93 93 36
Width: 960
GlyphClass: 2
Flags: W
LayerCount: 2
Fore
SplineSet
782 -304 m 1
 214 -304 l 1
 214 -135 l 1
 583 -135 l 1
 583 1415 l 1
 214 1415 l 1
 214 1583 l 1
 782 1583 l 1
 782 -304 l 1
EndSplineSet
EndChar

StartChar: asciicircum
Encoding: 94 94 37
Width: 1176
GlyphClass: 2
Flags: W
LayerCount: 2
Fore
SplineSet
946 1281 m 1
 861 1179 l 1
 588 1406 l 1
 315 1179 l 1
 230 1281 l 1
 588 1572 l 1
 946 1281 l 1
EndSplineSet
EndChar

StartChar: underscore
Encoding: 95 95 38
Width: 1112
GlyphClass: 2
Flags: W
LayerCount: 2
Fore
SplineSet
1116 -320 m 1
 -4 -320 l 1
 -4 -160 l 1
 1116 -160 l 1
 1116 -320 l 1
EndSplineSet
EndChar

StartChar: braceleft
Encoding: 123 123 39
Width: 1176
GlyphClass: 2
Flags: W
LayerCount: 2
Fore
SplineSet
975 -304 m 1
 846.999023438 -304 l 2
 668.999023438 -304 553.666015625 -266.333007812 500.999023438 -191 c 0
 459.666015625 -133 438.999023438 -11 438.999023438 175 c 0
 438.999023438 308.333007812 409.999023438 405 351.999023438 465 c 0
 293.999023438 525 198.666015625 554.666992188 65.9990234375 554 c 1
 65.9990234375 726 l 1
 198.666015625 725.333007812 293.999023438 755 351.999023438 815 c 0
 409.999023438 875 438.999023438 971.666992188 438.999023438 1105 c 0
 438.999023438 1290.33300781 459.666015625 1412.33300781 500.999023438 1471 c 0
 553.666015625 1545.66699219 668.999023438 1583 846.999023438 1583 c 2
 974.999023438 1583 l 1
 974.999023438 1431 l 1
 886.999023438 1431 l 2
 773.666015625 1431 699.666015625 1415.33300781 664.999023438 1384 c 0
 627.666015625 1350.66699219 608.999023438 1278.66699219 608.999023438 1168 c 0
 608.999023438 1010.66699219 596.666015625 903 571.999023438 845 c 0
 535.33203125 759 453.33203125 690.666992188 325.999023438 640 c 1
 461.999023438 586 546.999023438 508.666992188 580.999023438 408 c 0
 598.999023438 354.666992188 607.999023438 236.666992188 607.999023438 54 c 0
 607.999023438 -36 626.999023438 -94.6669921875 664.999023438 -122 c 0
 693.666015625 -142 753.333007812 -152 844 -152 c 2
 975 -152 l 1
 975 -304 l 1
EndSplineSet
EndChar

StartChar: bar
Encoding: 124 124 40
Width: 783
GlyphClass: 2
Flags: W
LayerCount: 2
Fore
SplineSet
471 -376 m 1
 311 -376 l 1
 311 1564 l 1
 471 1564 l 1
 471 -376 l 1
EndSplineSet
EndChar

StartChar: braceright
Encoding: 125 125 41
Width: 1176
GlyphClass: 2
Flags: W
LayerCount: 2
Fore
SplineSet
1110 554 m 1
 977.333007812 554.666992188 881.999023438 525 823.999023438 465 c 0
 765.999023438 405 736.999023438 308.333007812 736.999023438 175 c 0
 736.999023438 -11 716.33203125 -133 674.999023438 -191 c 0
 622.33203125 -266.333007812 506.999023438 -304 328.999023438 -304 c 2
 200.999023438 -304 l 1
 200.999023438 -152 l 1
 331.999023438 -152 l 2
 422.666015625 -152 482.333007812 -142 511 -122 c 0
 549 -94.6669921875 568 -36 568 54 c 0
 568 236.666992188 577 354.666992188 595 408 c 0
 629 508.666992188 714 586 850 640 c 1
 722.666992188 690.666992188 640.666992188 758.666992188 604 844 c 0
 579.333007812 902.666992188 567 1010.33398438 567 1167.00097656 c 0
 567 1278.33398438 548.333007812 1350.66699219 511 1384 c 0
 476.333007812 1415.33300781 402.333007812 1431 289 1431 c 2
 201 1431 l 1
 201 1583 l 1
 329 1583 l 2
 507 1583 622.333007812 1545.66699219 675 1471 c 0
 716.333007812 1412.33300781 737 1290.33300781 737 1105 c 0
 737 971.666992188 766 875 824 815 c 0
 882 755 977.333007812 725.333007812 1110 726 c 1
 1110 554 l 1
EndSplineSet
EndChar

StartChar: asciitilde
Encoding: 126 126 42
Width: 1496
GlyphClass: 2
Flags: W
LayerCount: 2
Fore
SplineSet
1354 870 m 2
 1354 718 1336.66601562 608 1301.99902344 540 c 0
 1251.99902344 441.333007812 1158.33203125 392 1020.99902344 392 c 0
 922.33203125 392 840.33203125 424.666992188 774.999023438 490 c 0
 770.999023438 494 726.33203125 554.666992188 640.999023438 672 c 0
 593.666015625 737.333007812 542.333007812 770 487 770 c 0
 404.333007812 770 351 724 327 632 c 0
 317.666992188 598 311.333984375 519 308.000976562 395 c 1
 149.000976562 395 l 1
 149.000976562 452 l 2
 149.000976562 604 166.333984375 714 201.000976562 782 c 0
 251.000976562 880.666992188 344.66796875 930 482.000976562 930 c 0
 576.66796875 930 657.334960938 897.333007812 724.001953125 832 c 0
 729.334960938 826.666992188 775.66796875 766 863.000976562 650 c 0
 912.333984375 584.666992188 963.333984375 552 1016.00097656 552 c 0
 1098.66796875 552 1152.00097656 598 1176.00097656 690 c 0
 1185.33398438 724 1191.66699219 803 1195 927 c 1
 1354 927 l 1
 1354 870 l 2
EndSplineSet
EndChar

StartChar: Oslash
Encoding: 215 215 43
Width: 1282
GlyphClass: 2
Flags: W
LayerCount: 2
Fore
SplineSet
988 311 m 1
 891 214 l 1
 643 462 l 1
 395 214 l 1
 298 311 l 1
 546 559 l 1
 295 810 l 1
 392 907 l 1
 640 659 l 1
 888 907 l 1
 985 810 l 1
 737 562 l 1
 988 311 l 1
EndSplineSet
EndChar

StartChar: Odieresis
Encoding: 247 247 44
Width: 1282
GlyphClass: 2
Flags: W
LayerCount: 2
Fore
SplineSet
746 791 m 1
 537 791 l 1
 537 991 l 1
 746 991 l 1
 746 791 l 1
1039 490 m 1
 243 490 l 1
 243 631 l 1
 1039 631 l 1
 1039 490 l 1
746 130 m 1
 537 130 l 1
 537 330 l 1
 746 330 l 1
 746 130 l 1
EndSplineSet
EndChar

StartChar: uni0902
Encoding: 2306 2306 45
Width: 1084
GlyphClass: 2
Flags: W
LayerCount: 2
Fore
SplineSet
200 598 m 1
 200 748.666992188 245.666992188 877.333984375 337 984.000976562 c 0
 428.333007812 1090.66796875 538.666015625 1144.00097656 667.999023438 1144.00097656 c 0
 797.33203125 1144.00097656 907.665039062 1090.66796875 998.998046875 984.000976562 c 0
 1090.33105469 877.333984375 1135.99804688 748.666992188 1135.99804688 598 c 0
 1135.99804688 447.333007812 1090.33105469 318.666015625 998.998046875 211.999023438 c 0
 907.665039062 105.33203125 797.33203125 51.9990234375 667.999023438 51.9990234375 c 0
 538.666015625 51.9990234375 428.333007812 105.33203125 337 211.999023438 c 0
 245.666992188 318.666015625 200 447.333007812 200 598 c 1
 200 598 l 1
382 598 m 1
 382 490 410 398 466 322 c 0
 522 246 589.333007812 208 668 208 c 0
 746.666992188 208 814 246 870 322 c 0
 926 398 954 490 954 598 c 0
 954 706 926 798 870 874 c 0
 814 950 746.666992188 988 668 988 c 0
 589.333007812 988 522 950 466 874 c 0
 410 798 382 706 382 598 c 1
 382 598 l 1
EndSplineSet
EndChar

StartChar: uni0903
Encoding: 2307 2307 46
Width: 674
GlyphClass: 2
Flags: W
LayerCount: 2
Fore
SplineSet
206 910 m 1
 206 982 231.333007812 1043.33300781 282 1094 c 0
 332.666992188 1144.66699219 394 1170 466 1170 c 0
 538 1170 599.333007812 1144.66699219 650 1094 c 0
 700.666992188 1043.33300781 726 982 726 910 c 0
 726 838 700.666992188 776.666992188 650 726 c 0
 599.333007812 675.333007812 538 650 466 650 c 0
 394 650 332.666992188 675.333007812 282 726 c 0
 231.333007812 776.666992188 206 838 206 910 c 1
 206 910 l 1
336 910 m 1
 336 874 348.666992188 843.333007812 374 818 c 0
 399.333007812 792.666992188 430 780 466 780 c 0
 502 780 532.666992188 792.666992188 558 818 c 0
 583.333007812 843.333007812 596 874 596 910 c 0
 596 946 583.333007812 976.666992188 558 1002 c 0
 532.666992188 1027.33300781 502 1040 466 1040 c 0
 430 1040 399.333007812 1027.33300781 374 1002 c 0
 348.666992188 976.666992188 336 946 336 910 c 1
 336 910 l 1
206 260 m 1
 206 332 231.333007812 393.333007812 282 444 c 0
 332.666992188 494.666992188 394 520 466 520 c 0
 538 520 599.333007812 494.666992188 650 444 c 0
 700.666992188 393.333007812 726 332 726 260 c 0
 726 188 700.666992188 126.666992188 650 76 c 0
 599.333007812 25.3330078125 538 0 466 0 c 0
 394 -0 332.666992188 25.3330078125 282 76 c 0
 231.333007812 126.666992188 206 188 206 260 c 1
 206 260 l 1
336 260 m 1
 336 224 348.666992188 193.333007812 374 168 c 0
 399.333007812 142.666992188 430 130 466 130 c 0
 502 130 532.666992188 142.666992188 558 168 c 0
 583.333007812 193.333007812 596 224 596 260 c 0
 596 296 583.333007812 326.666992188 558 352 c 0
 532.666992188 377.333007812 502 390 466 390 c 0
 430 390 399.333007812 377.333007812 374 352 c 0
 348.666992188 326.666992188 336 296 336 260 c 1
 336 260 l 1
EndSplineSet
EndChar

StartChar: uni0905
Encoding: 2309 2309 47
Width: 1492
GlyphClass: 2
Flags: W
LayerCount: 2
Fore
SplineSet
414 910 m 1
 414 878 422.666992188 850.666992188 440 828 c 0
 457.333007812 805.333007812 478.666015625 794 503.999023438 794 c 0
 525.33203125 794 543.665039062 805.333007812 558.998046875 828 c 0
 574.331054688 850.666992188 581.998046875 878 581.998046875 910 c 0
 581.998046875 942 574.331054688 969.666992188 558.998046875 993 c 0
 543.665039062 1016.33300781 525.33203125 1028 503.999023438 1028 c 0
 478.666015625 1028 457.333007812 1016.33300781 440 993 c 0
 422.666992188 969.666992188 414 942 414 910 c 1
 414 910 l 1
1154 910 m 1
 1154 878 1161.66699219 850.66796875 1177 828.000976562 c 0
 1192.33300781 805.333984375 1210.66601562 794.000976562 1231.99902344 794.000976562 c 0
 1253.33203125 794.000976562 1271.66503906 802.66796875 1286.99804688 820.000976562 c 0
 1302.33105469 837.333984375 1309.99804688 858.666992188 1309.99804688 884 c 0
 1309.99804688 920 1302.33105469 950.666992188 1286.99804688 976 c 0
 1271.66503906 1001.33300781 1253.33203125 1014 1231.99902344 1014 c 0
 1210.66601562 1014 1192.33300781 1004 1177 984 c 0
 1161.66699219 964 1154 939.333007812 1154 910 c 1
 1154 910 l 1
206 690.000976562 m 1
 206 843.333984375 234.33203125 966.001953125 290.999023438 1058.00195312 c 0
 347.666015625 1150.00195312 423.333007812 1196.00195312 518 1196.00195312 c 0
 586 1196.00195312 644 1168.00195312 692 1112.00195312 c 0
 740 1056.00195312 764 988.668945312 764 910.001953125 c 0
 764 831.334960938 738.666992188 764.001953125 688 708.001953125 c 0
 637.333007812 652.001953125 576 624.001953125 504 624.001953125 c 0
 489.333007812 624.001953125 472.333007812 626.334960938 453 631.001953125 c 0
 433.666992188 635.668945312 412 642.001953125 388 650.001953125 c 1
 388 508.668945312 431.666992188 395.3359375 519 310.002929688 c 0
 606.333007812 224.669921875 722.666015625 182.002929688 867.999023438 182.002929688 c 0
 1013.33203125 182.002929688 1129.99902344 224.669921875 1217.99902344 310.002929688 c 0
 1305.99902344 395.3359375 1349.99902344 508.668945312 1349.99902344 650.001953125 c 1
 1335.33203125 642.001953125 1315.66503906 635.668945312 1290.99804688 631.001953125 c 0
 1266.33105469 626.334960938 1237.99804688 624.001953125 1205.99804688 624.001953125 c 1
 1205.99804688 520.001953125 l 1
 751.998046875 520.001953125 l 1
 751.998046875 702.001953125 l 1
 1049.99804688 702.001953125 l 1
 1024.66503906 732.668945312 1005.33203125 765.668945312 991.999023438 801.001953125 c 0
 978.666015625 836.334960938 971.999023438 872.66796875 971.999023438 910.000976562 c 0
 971.999023438 988.66796875 997.33203125 1056.00097656 1047.99902344 1112.00097656 c 0
 1098.66601562 1168.00097656 1159.99902344 1196.00097656 1231.99902344 1196.00097656 c 0
 1326.66601562 1196.00097656 1402.33300781 1150.00097656 1459 1058.00097656 c 0
 1515.66699219 966.000976562 1544 843.333984375 1544 690.000976562 c 0
 1544 480.66796875 1482.33300781 313.334960938 1359 188.001953125 c 0
 1235.66699219 62.6689453125 1072 0.001953125 868 0.001953125 c 0
 668 0.001953125 507.666992188 62.6689453125 387 188.001953125 c 0
 266.333007812 313.334960938 206 480.66796875 206 690.000976562 c 1
 206 690.000976562 l 1
EndSplineSet
EndChar

StartChar: uni0906
Encoding: 2310 2310 48
Width: 1490
GlyphClass: 2
Flags: W
LayerCount: 2
Fore
SplineSet
410 910 m 1
 410 878 417.666992188 850.666992188 433 828 c 0
 448.333007812 805.333007812 466.666015625 794 487.999023438 794 c 0
 509.33203125 794 527.665039062 805.333007812 542.998046875 828 c 0
 558.331054688 850.666992188 565.998046875 878 565.998046875 910 c 0
 565.998046875 942 558.331054688 969.666992188 542.998046875 993 c 0
 527.665039062 1016.33300781 509.33203125 1028 487.999023438 1028 c 0
 466.666015625 1028 448.333007812 1016.33300781 433 993 c 0
 417.666992188 969.666992188 410 942 410 910 c 1
 410 910 l 1
1216 936 m 1
 1216 905.333007812 1224.99804688 874.333007812 1242.99804688 843 c 0
 1260.99804688 811.666992188 1286.66503906 782 1319.99804688 754 c 1
 1337.33105469 774 1350.33105469 798.666992188 1358.99804688 828 c 0
 1367.66503906 857.333007812 1371.99804688 889.333007812 1371.99804688 924 c 0
 1371.99804688 949.333007812 1364.33105469 970.666015625 1348.99804688 987.999023438 c 0
 1333.66503906 1005.33203125 1315.33203125 1013.99902344 1293.99902344 1013.99902344 c 0
 1272.66601562 1013.99902344 1254.33300781 1006.33203125 1239 990.999023438 c 0
 1223.66699219 975.666015625 1216 957.333007812 1216 936 c 1
 1216 936 l 1
201.998046875 702 m 1
 201.998046875 851.333007812 230.329101562 971.001953125 286.99609375 1061.00195312 c 0
 343.663085938 1151.00195312 419.330078125 1196.00195312 513.997070312 1196.00195312 c 0
 577.997070312 1196.00195312 632.997070312 1168.00195312 678.997070312 1112.00195312 c 0
 724.997070312 1056.00195312 747.997070312 988.668945312 747.997070312 910.001953125 c 0
 747.997070312 831.334960938 723.997070312 764.001953125 675.997070312 708.001953125 c 0
 627.997070312 652.001953125 569.997070312 624.001953125 501.997070312 624.001953125 c 0
 485.997070312 624.001953125 468.330078125 626.334960938 448.997070312 631.001953125 c 0
 429.6640625 635.668945312 407.997070312 642.001953125 383.997070312 650.001953125 c 1
 383.997070312 508.668945312 427.997070312 395.3359375 515.997070312 310.002929688 c 0
 603.997070312 224.669921875 720.6640625 182.002929688 865.997070312 182.002929688 c 0
 991.330078125 182.002929688 1098.33007812 203.669921875 1186.99707031 247.002929688 c 0
 1275.6640625 290.3359375 1319.99707031 342.668945312 1319.99707031 404.001953125 c 0
 1319.99707031 433.334960938 1314.33007812 461.66796875 1302.99707031 489.000976562 c 0
 1291.6640625 516.333984375 1275.99707031 540.000976562 1255.99707031 560.000976562 c 1
 1242.6640625 556.000976562 1228.33105469 552.66796875 1212.99804688 550.000976562 c 0
 1197.66503906 547.333984375 1181.33203125 546.000976562 1163.99902344 546.000976562 c 2
 761.999023438 546.000976562 l 1
 761.999023438 702.000976562 l 1
 1163.99902344 702.000976562 l 1
 1127.99902344 727.333984375 1099.66601562 760.666992188 1078.99902344 802 c 0
 1058.33203125 843.333007812 1047.99902344 888 1047.99902344 936 c 0
 1047.99902344 1008 1071.99902344 1069.33300781 1119.99902344 1120 c 0
 1167.99902344 1170.66699219 1225.99902344 1196 1293.99902344 1196 c 0
 1361.99902344 1196 1420.33203125 1169.33300781 1468.99902344 1116 c 0
 1517.66601562 1062.66699219 1541.99902344 998.666992188 1541.99902344 924 c 0
 1541.99902344 874.666992188 1530.66601562 825 1507.99902344 775 c 0
 1485.33203125 725 1453.33203125 679.333007812 1411.99902344 638 c 1
 1441.33203125 603.333007812 1463.66503906 566 1478.99804688 526 c 0
 1494.33105469 486 1501.99804688 445.333007812 1501.99804688 404 c 0
 1501.99804688 281.333007812 1443.99804688 183.333007812 1327.99804688 110 c 0
 1211.99804688 36.6669921875 1057.99804688 0 865.998046875 0 c 0
 664.665039062 0 503.665039062 64 382.998046875 192 c 0
 262.331054688 320 201.998046875 490 201.998046875 702 c 1
 201.998046875 702 l 1
EndSplineSet
EndChar

StartChar: uni0907
Encoding: 2311 2311 49
Width: 1378
GlyphClass: 2
Flags: W
LayerCount: 2
Fore
SplineSet
546 260 m 1
 546 238.666992188 566.333984375 220.333984375 607.000976562 205.000976562 c 0
 647.66796875 189.66796875 696.66796875 182.000976562 754.000976562 182.000976562 c 0
 802.000976562 182.000976562 848.333984375 190.000976562 893.000976562 206.000976562 c 0
 937.66796875 222.000976562 978.000976562 244.66796875 1014.00097656 274.000976562 c 1
 979.333984375 303.333984375 939.666992188 325.666992188 895 341 c 0
 850.333007812 356.333007812 803.333007812 364 754 364 c 0
 696.666992188 364 647.666992188 354 607 334 c 0
 566.333007812 314 546 289.333007812 546 260 c 1
 546 260 l 1
104.000976562 858 m 1
 104.000976562 951.333007812 137 1031.00390625 203 1097.00390625 c 0
 269 1163.00390625 348.666992188 1196.00390625 442 1196.00390625 c 0
 507.333007812 1196.00390625 568.333007812 1177.33691406 625 1140.00390625 c 0
 681.666992188 1102.67089844 724.666992188 1052.00390625 754 988.00390625 c 1
 783.333007812 1052.00390625 826.333007812 1102.67089844 883 1140.00390625 c 0
 939.666992188 1177.33691406 1000.66699219 1196.00390625 1066 1196.00390625 c 0
 1166 1196.00390625 1251.66699219 1150.33691406 1323 1059.00390625 c 0
 1394.33300781 967.670898438 1430 857.337890625 1430 728.004882812 c 0
 1430 637.337890625 1416.66699219 551.670898438 1390 471.00390625 c 0
 1363.33300781 390.336914062 1324.66601562 320.00390625 1273.99902344 260.00390625 c 1
 1315.33203125 209.336914062 1347.33203125 150.669921875 1369.99902344 84.0029296875 c 0
 1392.66601562 17.3359375 1403.99902344 -53.9970703125 1403.99902344 -129.997070312 c 1
 1221.99902344 -129.997070312 l 1
 1221.99902344 -80.6640625 1215.33203125 -31.6640625 1201.99902344 17.0029296875 c 0
 1188.66601562 65.669921875 1169.33300781 112.002929688 1144 156.002929688 c 1
 1084 105.3359375 1020.33300781 66.6689453125 953 40.001953125 c 0
 885.666992188 13.3349609375 819.333984375 0.001953125 754.000976562 0.001953125 c 0
 646.000976562 0.001953125 554.000976562 25.3349609375 478.000976562 76.001953125 c 0
 402.000976562 126.668945312 364.000976562 188.001953125 364.000976562 260.001953125 c 0
 364.000976562 332.001953125 402.000976562 393.334960938 478.000976562 444.001953125 c 0
 554.000976562 494.668945312 646.000976562 520.001953125 754.000976562 520.001953125 c 0
 830.000976562 520.001953125 901.333984375 508.668945312 968.000976562 486.001953125 c 0
 1034.66796875 463.334960938 1093.33496094 431.334960938 1144.00195312 390.001953125 c 1
 1177.33496094 430.001953125 1203.00195312 479.001953125 1221.00195312 537.001953125 c 0
 1239.00195312 595.001953125 1248.00195312 658.668945312 1248.00195312 728.001953125 c 0
 1248.00195312 806.668945312 1230.33496094 874.001953125 1195.00195312 930.001953125 c 0
 1159.66894531 986.001953125 1116.66894531 1014.00195312 1066.00195312 1014.00195312 c 0
 1004.66894531 1014.00195312 952.668945312 988.668945312 910.001953125 938.001953125 c 0
 867.334960938 887.334960938 846.001953125 826.001953125 846.001953125 754.001953125 c 2
 846.001953125 650.001953125 l 1
 664.001953125 650.001953125 l 1
 664.001953125 754.001953125 l 2
 664.001953125 826.001953125 642.334960938 887.334960938 599.001953125 938.001953125 c 0
 555.668945312 988.668945312 503.3359375 1014.00195312 442.002929688 1014.00195312 c 0
 399.3359375 1014.00195312 362.668945312 998.668945312 332.001953125 968.001953125 c 0
 301.334960938 937.334960938 286.001953125 900.66796875 286.001953125 858.000976562 c 0
 286.001953125 838.000976562 292.668945312 814.66796875 306.001953125 788.000976562 c 0
 319.334960938 761.333984375 338.66796875 732.666992188 364.000976562 702 c 1
 234.000976562 598 l 1
 192.66796875 632.666992188 160.66796875 672.666992188 138.000976562 718 c 0
 115.333984375 763.333007812 104.000976562 810 104.000976562 858 c 1
 104.000976562 858 l 1
EndSplineSet
EndChar

StartChar: uni0908
Encoding: 2312 2312 50
Width: 1984
GlyphClass: 2
Flags: W
LayerCount: 2
Fore
SplineSet
424 676 m 1
 1189.99902344 676 l 1
 1172.66601562 773.333007812 1128.66601562 854 1057.99902344 918 c 0
 987.33203125 982 905.999023438 1014 813.999023438 1014 c 0
 717.999023438 1014 633.33203125 982 559.999023438 918 c 0
 486.666015625 854 441.333007812 773.333007812 424 676 c 1
 424 676 l 1
423.999023438 520 m 1
 441.33203125 422.666992188 486.666015625 342 559.999023438 278 c 0
 633.33203125 214 717.999023438 182 813.999023438 182 c 0
 905.999023438 182 987.33203125 214 1057.99902344 278 c 0
 1128.66601562 342 1172.66601562 422.666992188 1189.99902344 520 c 1
 423.999023438 520 l 1
 423.999023438 520 l 1
1776 676 m 1
 1801.33300781 697.333007812 1820.66796875 721.333007812 1834.00097656 748 c 0
 1847.33398438 774.666992188 1854.00097656 802.666992188 1854.00097656 832 c 0
 1854.00097656 861.333007812 1847.66796875 886 1835.00097656 906 c 0
 1822.33398438 926 1806.66699219 936 1788 936 c 0
 1766.66699219 936 1748.33398438 924.666992188 1733.00097656 902 c 0
 1717.66796875 879.333007812 1710.00097656 852 1710.00097656 820 c 0
 1710.00097656 794.666992188 1715.66796875 769.666992188 1727.00097656 745 c 0
 1738.33398438 720.333007812 1754.66699219 697.333007812 1776 676 c 1
 1776 676 l 1
112.001953125 520 m 1
 111.999023438 675.997070312 l 1
 241.999023438 675.997070312 l 1
 253.999023438 746.6640625 275.666015625 810.997070312 306.999023438 868.997070312 c 0
 338.33203125 926.997070312 377.33203125 975.330078125 423.999023438 1013.99707031 c 1
 215.999023438 1013.99707031 l 1
 215.999023438 1169.99707031 l 1
 1203.99902344 1169.99707031 l 2
 1254.66601562 1169.99707031 1297.66601562 1185.33007812 1332.99902344 1215.99707031 c 0
 1368.33203125 1246.6640625 1385.99902344 1283.33105469 1385.99902344 1325.99804688 c 0
 1385.99902344 1361.99804688 1375.66601562 1397.33105469 1354.99902344 1431.99804688 c 0
 1334.33203125 1466.66503906 1305.33203125 1496.66503906 1267.99902344 1521.99804688 c 1
 1385.99902344 1611.99804688 l 1
 1435.33203125 1570.66503906 1473.66503906 1524.99804688 1500.99804688 1474.99804688 c 0
 1528.33105469 1424.99804688 1541.99804688 1375.33105469 1541.99804688 1325.99804688 c 0
 1541.99804688 1239.33105469 1508.99804688 1165.6640625 1442.99804688 1104.99707031 c 0
 1376.99804688 1044.33007812 1297.33105469 1013.99707031 1203.99804688 1013.99707031 c 1
 1250.66503906 975.330078125 1289.66503906 926.997070312 1320.99804688 868.997070312 c 0
 1352.33105469 810.997070312 1373.99804688 746.6640625 1385.99804688 675.997070312 c 1
 1567.99804688 675.997070312 l 1
 1554.66503906 698.6640625 1544.66503906 722.331054688 1537.99804688 746.998046875 c 0
 1531.33105469 771.665039062 1527.99804688 796.665039062 1527.99804688 821.998046875 c 0
 1527.99804688 896.665039062 1553.33105469 960.33203125 1603.99804688 1012.99902344 c 0
 1654.66503906 1065.66601562 1715.99804688 1091.99902344 1787.99804688 1091.99902344 c 0
 1855.99804688 1091.99902344 1914.33105469 1066.66601562 1962.99804688 1015.99902344 c 0
 2011.66503906 965.33203125 2035.99804688 903.999023438 2035.99804688 831.999023438 c 0
 2035.99804688 769.33203125 2018.33105469 710.999023438 1982.99804688 656.999023438 c 0
 1947.66503906 602.999023438 1899.99804688 561.999023438 1839.99804688 533.999023438 c 1
 1869.33105469 497.999023438 1891.99804688 459.999023438 1907.99804688 419.999023438 c 0
 1923.99804688 379.999023438 1931.99804688 339.999023438 1931.99804688 299.999023438 c 0
 1931.99804688 209.33203125 1900.33105469 132.33203125 1836.99804688 68.9990234375 c 0
 1773.66503906 5.666015625 1696.66503906 -26.0009765625 1605.99804688 -26.0009765625 c 1
 1605.99804688 161.999023438 l 1
 1645.99804688 161.999023438 1679.99804688 175.33203125 1707.99804688 201.999023438 c 0
 1735.99804688 228.666015625 1749.99804688 261.333007812 1749.99804688 300 c 0
 1749.99804688 330.666992188 1740.99804688 365 1722.99804688 403 c 0
 1704.99804688 441 1679.33105469 480 1645.99804688 520 c 1
 1385.99804688 520 l 1
 1372.66503906 373.333007812 1311.33203125 250 1201.99902344 150 c 0
 1092.66601562 50 963.333007812 0 814 0 c 0
 664.666992188 0 535.333984375 50 426.000976562 150 c 0
 316.66796875 250 255.334960938 373.333007812 242.001953125 520 c 1
 112.001953125 520 l 1
 112.001953125 520 l 1
EndSplineSet
EndChar

StartChar: uni0909
Encoding: 2313 2313 51
Width: 2276
GlyphClass: 2
Flags: W
LayerCount: 2
Fore
SplineSet
456 910 m 1
 456 880.666992188 466 856 486 836 c 0
 506 816 530.666992188 806 560 806 c 0
 589.333007812 806 614 816 634 836 c 0
 654 856 664 880.666992188 664 910 c 0
 664 939.333007812 654 964 634 984 c 0
 614 1004 589.333007812 1014 560 1014 c 0
 530.666992188 1014 506 1004 486 984 c 0
 466 964 456 939.333007812 456 910 c 1
 456 910 l 1
1860 182 m 1
 1938.66699219 182 2005.99804688 220.00390625 2061.99804688 296.00390625 c 0
 2117.99804688 372.00390625 2145.99804688 464.00390625 2145.99804688 572.00390625 c 0
 2145.99804688 678.670898438 2124.66503906 772.670898438 2081.99804688 854.00390625 c 0
 2039.33105469 935.336914062 1982.6640625 988.669921875 1911.99707031 1014.00292969 c 1
 2015.99707031 1170.00292969 l 1
 2110.6640625 1126.00292969 2186.33105469 1050.00292969 2242.99804688 942.002929688 c 0
 2299.66503906 834.002929688 2327.99804688 710.669921875 2327.99804688 572.002929688 c 0
 2327.99804688 414.669921875 2282.33105469 280.002929688 2190.99804688 168.002929688 c 0
 2099.66503906 56.0029296875 1989.33203125 0.0029296875 1859.99902344 0.0029296875 c 0
 1751.99902344 0.0029296875 1659.99902344 43.0029296875 1583.99902344 129.002929688 c 0
 1507.99902344 215.002929688 1469.99902344 319.3359375 1469.99902344 442.002929688 c 2
 1469.99902344 650.002929688 l 2
 1469.99902344 750.002929688 1452.33203125 835.669921875 1416.99902344 907.002929688 c 0
 1381.66601562 978.3359375 1338.66601562 1014.00292969 1287.99902344 1014.00292969 c 0
 1245.33203125 1014.00292969 1208.66503906 991.002929688 1177.99804688 945.002929688 c 0
 1147.33105469 899.002929688 1131.99804688 844.002929688 1131.99804688 780.002929688 c 0
 1131.99804688 745.3359375 1136.33105469 693.3359375 1144.99804688 624.002929688 c 0
 1153.66503906 554.669921875 1157.99804688 502.669921875 1157.99804688 468.002929688 c 0
 1157.99804688 338.669921875 1119.99804688 228.336914062 1043.99804688 137.00390625 c 0
 967.998046875 45.6708984375 875.998046875 0.00390625 767.998046875 0.00390625 c 0
 613.331054688 0.00390625 481.331054688 62.3369140625 371.998046875 187.00390625 c 0
 262.665039062 311.670898438 207.998046875 462.00390625 207.998046875 638.00390625 c 0
 207.998046875 807.336914062 239.998046875 942.669921875 303.998046875 1044.00292969 c 0
 367.998046875 1145.3359375 453.331054688 1196.00292969 559.998046875 1196.00292969 c 0
 638.665039062 1196.00292969 705.998046875 1168.00292969 761.998046875 1112.00292969 c 0
 817.998046875 1056.00292969 845.998046875 988.669921875 845.998046875 910.002929688 c 0
 845.998046875 831.3359375 817.998046875 764.002929688 761.998046875 708.002929688 c 0
 705.998046875 652.002929688 638.665039062 624.002929688 559.998046875 624.002929688 c 0
 526.665039062 624.002929688 495.33203125 629.669921875 465.999023438 641.002929688 c 0
 436.666015625 652.3359375 411.333007812 668.668945312 390 690.001953125 c 1
 390 682.001953125 389.666992188 674.668945312 389 668.001953125 c 0
 388.333007812 661.334960938 388 654.66796875 388 648.000976562 c 0
 388 518.66796875 425 408.66796875 499 318.000976562 c 0
 573 227.333984375 662.666992188 182.000976562 768 182.000976562 c 0
 825.333007812 182.000976562 874.333007812 210.000976562 915 266.000976562 c 0
 955.666992188 322.000976562 976 389.333984375 976 468.000976562 c 0
 976 502.66796875 971.666992188 554.66796875 963 624.000976562 c 0
 954.333007812 693.333984375 950 745.333984375 950 780.000976562 c 0
 950 894.66796875 983 992.66796875 1049 1074.00097656 c 0
 1115 1155.33398438 1194.66699219 1196.00097656 1288 1196.00097656 c 0
 1388 1196.00097656 1473.66699219 1142.66796875 1545 1036.00097656 c 0
 1616.33300781 929.333984375 1652 800.666992188 1652 650 c 2
 1652 442 l 2
 1652 370 1672.33300781 308.666992188 1713 258 c 0
 1753.66699219 207.333007812 1802.66699219 182 1860 182 c 1
 1860 182 l 1
EndSplineSet
EndChar

StartChar: uni090A
Encoding: 2314 2314 52
Width: 3094
GlyphClass: 2
Flags: W
LayerCount: 2
Fore
SplineSet
430 910 m 1
 430 874 440 843.333007812 460 818 c 0
 480 792.666992188 504.666992188 780 534 780 c 0
 559.333007812 780 580.666015625 792.666992188 597.999023438 818 c 0
 615.33203125 843.333007812 623.999023438 874 623.999023438 910 c 0
 623.999023438 946 615.33203125 976.666992188 597.999023438 1002 c 0
 580.666015625 1027.33300781 559.333007812 1040 534 1040 c 0
 504.666992188 1040 480 1027.33300781 460 1002 c 0
 440 976.666992188 430 946 430 910 c 1
 430 910 l 1
1834 156 m 1
 1884.66699219 156 1927.66699219 186.331054688 1963 246.998046875 c 0
 1998.33300781 307.665039062 2016 381.33203125 2016 467.999023438 c 0
 2016 502.666015625 2011.66699219 554.666015625 2003 623.999023438 c 0
 1994.33300781 693.33203125 1990 745.33203125 1990 779.999023438 c 0
 1990 894.666015625 2040.66699219 992.666015625 2142 1073.99902344 c 0
 2243.33300781 1155.33203125 2366 1195.99902344 2510 1195.99902344 c 0
 2686 1195.99902344 2836 1134.99902344 2960 1012.99902344 c 0
 3084 890.999023438 3146 743.999023438 3146 571.999023438 c 0
 3146 414.666015625 3103 279.999023438 3017 167.999023438 c 0
 2931 55.9990234375 2826.66699219 -0.0009765625 2704 -0.0009765625 c 0
 2596 -0.0009765625 2504 37.9990234375 2428 113.999023438 c 0
 2352 189.999023438 2314 281.999023438 2314 389.999023438 c 0
 2314 476.666015625 2344.33300781 550.333007812 2405 611 c 0
 2465.66699219 671.666992188 2539.33398438 702 2626.00097656 702 c 0
 2690.00097656 702 2745.00097656 684.333007812 2791.00097656 649 c 0
 2837.00097656 613.666992188 2860.00097656 570.666992188 2860.00097656 520 c 0
 2860.00097656 484 2847.33398438 453.333007812 2822.00097656 428 c 0
 2796.66796875 402.666992188 2766.00097656 390 2730.00097656 390 c 0
 2694.00097656 390 2663.33398438 405.333007812 2638.00097656 436 c 0
 2612.66796875 466.666992188 2600.00097656 503.333984375 2600.00097656 546.000976562 c 1
 2569.33398438 534.000976562 2544.33398438 514.000976562 2525.00097656 486.000976562 c 0
 2505.66796875 458.000976562 2496.00097656 426.000976562 2496.00097656 390.000976562 c 0
 2496.00097656 326.000976562 2516.33398438 271.000976562 2557.00097656 225.000976562 c 0
 2597.66796875 179.000976562 2646.66796875 156.000976562 2704.00097656 156.000976562 c 0
 2776.00097656 156.000976562 2837.33398438 196.66796875 2888.00097656 278.000976562 c 0
 2938.66796875 359.333984375 2964.00097656 457.333984375 2964.00097656 572.000976562 c 0
 2964.00097656 701.333984375 2919.66796875 811.666992188 2831.00097656 903 c 0
 2742.33398438 994.333007812 2635.33398438 1040 2510.00097656 1040 c 0
 2416.66796875 1040 2337.00097656 1014.66699219 2271.00097656 964 c 0
 2205.00097656 913.333007812 2172.00097656 852 2172.00097656 780 c 0
 2172.00097656 745.333007812 2176.33398438 693.333007812 2185.00097656 624 c 0
 2193.66796875 554.666992188 2198.00097656 502.666992188 2198.00097656 468 c 0
 2198.00097656 338.666992188 2162.33398438 228.333984375 2091.00097656 137.000976562 c 0
 2019.66796875 45.66796875 1934.00097656 0.0009765625 1834.00097656 0.0009765625 c 0
 1726.00097656 0.0009765625 1634.00097656 43.0009765625 1558.00097656 129.000976562 c 0
 1482.00097656 215.000976562 1444.00097656 319.333984375 1444.00097656 442.000976562 c 0
 1444.00097656 479.333984375 1448.33398438 535.666992188 1457.00097656 611 c 0
 1465.66796875 686.333007812 1470.00097656 742.666015625 1470.00097656 779.999023438 c 0
 1470.00097656 851.999023438 1449.66796875 913.33203125 1409.00097656 963.999023438 c 0
 1368.33398438 1014.66601562 1319.33398438 1039.99902344 1262.00097656 1039.99902344 c 0
 1219.33398438 1039.99902344 1182.66699219 1014.66601562 1152 963.999023438 c 0
 1121.33300781 913.33203125 1106 851.999023438 1106 779.999023438 c 0
 1106 745.33203125 1110.33300781 693.33203125 1119 623.999023438 c 0
 1127.66699219 554.666015625 1132 502.666015625 1132 467.999023438 c 0
 1132 338.666015625 1094 228.333007812 1018 137 c 0
 942 45.6669921875 850 0 742 0 c 0
 594 0 468 66 364 198 c 0
 260 330 208 489.333007812 208 676 c 0
 208 833.333007812 237.666992188 959.333007812 297 1054 c 0
 356.333007812 1148.66699219 435.333007812 1196 534 1196 c 0
 606 1196 667.333007812 1165.66699219 718 1105 c 0
 768.666992188 1044.33300781 794 970.666015625 794 883.999023438 c 0
 794 811.999023438 768.666992188 750.666015625 718 699.999023438 c 0
 667.333007812 649.33203125 606 623.999023438 534 623.999023438 c 0
 508.666992188 623.999023438 482.666992188 630.666015625 456 643.999023438 c 0
 429.333007812 657.33203125 403.333007812 676.665039062 378 701.998046875 c 1
 378 551.331054688 413.666992188 422.6640625 485 315.997070312 c 0
 556.333007812 209.330078125 642 155.997070312 742 155.997070312 c 0
 799.333007812 155.997070312 848.333007812 186.330078125 889 246.997070312 c 0
 929.666992188 307.6640625 950 381.331054688 950 467.998046875 c 0
 950 502.665039062 945.666992188 554.665039062 937 623.998046875 c 0
 928.333007812 693.331054688 924 745.331054688 924 779.998046875 c 0
 924 894.665039062 957 992.665039062 1023 1073.99804688 c 0
 1089 1155.33105469 1168.66699219 1195.99804688 1262 1195.99804688 c 0
 1370 1195.99804688 1462 1155.33105469 1538 1073.99804688 c 0
 1614 992.665039062 1652 894.665039062 1652 779.998046875 c 0
 1652 742.665039062 1647.66699219 686.33203125 1639 610.999023438 c 0
 1630.33300781 535.666015625 1626 479.333007812 1626 442 c 0
 1626 363.333007812 1646.33300781 296 1687 240 c 0
 1727.66699219 184 1776.66699219 156 1834 156 c 1
 1834 156 l 1
EndSplineSet
EndChar

StartChar: uni090B
Encoding: 2315 2315 53
Width: 2718
GlyphClass: 2
Flags: W
LayerCount: 2
Fore
SplineSet
326 936 m 1
 326 906.666992188 333.668945312 882 349.001953125 862 c 0
 364.334960938 842 382.66796875 832 404.000976562 832 c 0
 425.333984375 832 443.666992188 842 459 862 c 0
 474.333007812 882 482 906.666992188 482 936 c 0
 482 954.666992188 479.666992188 973 475 991 c 0
 470.333007812 1009 464 1025.33300781 456 1040 c 1
 420 1040 389.333007812 1030 364 1010 c 0
 338.666992188 990 326 965.333007812 326 936 c 1
 326 936 l 1
326.001953125 260 m 1
 326.001953125 230.666992188 338.666992188 206 364 186 c 0
 389.333007812 166 420 156 456 156 c 1
 464 170.666992188 470.333007812 187 475 205 c 0
 479.666992188 223 482 241.333007812 482 260 c 0
 482 285.333007812 474.333007812 307 459 325 c 0
 443.666992188 343 425.333984375 352 404.000976562 352 c 0
 382.66796875 352 364.334960938 343 349.001953125 325 c 0
 333.668945312 307 326.001953125 285.333007812 326.001953125 260 c 1
 326.001953125 260 l 1
144 260 m 1
 144 332 169.337890625 393.333007812 220.004882812 444 c 0
 270.671875 494.666992188 332.004882812 520 404.004882812 520 c 0
 465.337890625 520 520.670898438 495.333007812 570.00390625 446 c 0
 619.336914062 396.666992188 650.669921875 334.666992188 664.002929688 260 c 1
 689.3359375 281.333007812 708.668945312 321.333007812 722.001953125 380 c 0
 735.334960938 438.666992188 742.001953125 511.333984375 742.001953125 598.000976562 c 0
 742.001953125 676.66796875 735.334960938 743.000976562 722.001953125 797.000976562 c 0
 708.668945312 851.000976562 689.3359375 888.66796875 664.002929688 910.000976562 c 1
 664.002929688 846.000976562 638.669921875 791.000976562 588.002929688 745.000976562 c 0
 537.3359375 699.000976562 476.002929688 676.000976562 404.002929688 676.000976562 c 0
 332.002929688 676.000976562 270.669921875 701.333984375 220.002929688 752.000976562 c 0
 169.3359375 802.66796875 144.002929688 864.000976562 144.002929688 936.000976562 c 0
 144.002929688 1008.00097656 174.3359375 1069.33398438 235.002929688 1120.00097656 c 0
 295.669921875 1170.66796875 369.336914062 1196.00097656 456.00390625 1196.00097656 c 0
 585.336914062 1196.00097656 695.669921875 1137.66796875 787.002929688 1021.00097656 c 0
 878.3359375 904.333984375 924.002929688 763.333984375 924.002929688 598.000976562 c 2
 924.002929688 494.000976562 l 1
 941.3359375 396.66796875 974.668945312 316.000976562 1024.00195312 252.000976562 c 0
 1073.33496094 188.000976562 1126.66796875 156.000976562 1184.00097656 156.000976562 c 0
 1266.66796875 156.000976562 1337.00097656 198.000976562 1395.00097656 282.000976562 c 0
 1453.00097656 366.000976562 1482.00097656 467.333984375 1482.00097656 586.000976562 c 0
 1482.00097656 704.66796875 1453.00097656 805.66796875 1395.00097656 889.000976562 c 0
 1337.00097656 972.333984375 1266.66796875 1014.00097656 1184.00097656 1014.00097656 c 2
 1118.00097656 1014.00097656 l 1
 1118.00097656 1170.00097656 l 1
 1378.00097656 1170.00097656 l 2
 1410.00097656 1170.00097656 1437.66796875 1182.66796875 1461.00097656 1208.00097656 c 0
 1484.33398438 1233.33398438 1496.00097656 1264.00097656 1496.00097656 1300.00097656 c 0
 1496.00097656 1329.33398438 1486.66796875 1358.00097656 1468.00097656 1386.00097656 c 0
 1449.33398438 1414.00097656 1424.00097656 1437.33398438 1392.00097656 1456.00097656 c 1
 1482.00097656 1586.00097656 l 1
 1542.00097656 1558.00097656 1589.66796875 1518.33398438 1625.00097656 1467.00097656 c 0
 1660.33398438 1415.66796875 1678.00097656 1360.00097656 1678.00097656 1300.00097656 c 0
 1678.00097656 1226.66796875 1660.66796875 1163.00097656 1626.00097656 1109.00097656 c 0
 1591.33398438 1055.00097656 1548.00097656 1023.33398438 1496.00097656 1014.00097656 c 1
 1549.33398438 968.66796875 1590.66699219 908.66796875 1620 834.000976562 c 0
 1649.33300781 759.333984375 1664 676.666992188 1664 586 c 0
 1664 564.666992188 1663 544 1661 524 c 0
 1659 504 1656.66699219 484.666992188 1654 466 c 1
 1694 372.666992188 1748 297.666992188 1816 241 c 0
 1884 184.333007812 1954.66699219 156 2028 156 c 0
 2128 156 2213.66699219 198 2285 282 c 0
 2356.33300781 366 2392 467.333007812 2392 586 c 0
 2392 704.666992188 2356.33300781 805.666992188 2285 889 c 0
 2213.66699219 972.333007812 2128 1014 2028 1014 c 1
 2042 1170 l 1
 2188.66699219 1170 2314 1113 2418 999 c 0
 2522 885 2574 747.333007812 2574 586 c 0
 2574 424.666992188 2520.66699219 286.666992188 2414 172 c 0
 2307.33300781 57.3330078125 2178.66601562 0 2027.99902344 0 c 0
 1937.33203125 -0 1853.33203125 26.3330078125 1775.99902344 79 c 0
 1698.66601562 131.666992188 1639.99902344 202.666992188 1599.99902344 292 c 1
 1555.99902344 202.666992188 1496.66601562 131.666992188 1421.99902344 79 c 0
 1347.33203125 26.3330078125 1267.99902344 0 1183.99902344 0 c 0
 1114.66601562 0 1049.33300781 21 988 63 c 0
 926.666992188 105 879.333984375 162 846.000976562 234 c 1
 812.66796875 162 760.66796875 105 690.000976562 63 c 0
 619.333984375 21 541.333984375 0 456.000976562 0 c 0
 369.333984375 -0 295.666992188 25.3330078125 235 76 c 0
 174.333007812 126.666992188 144 188 144 260 c 1
 144 260 l 1
EndSplineSet
EndChar

StartChar: uni090C
Encoding: 2316 2316 54
Width: 1892
GlyphClass: 2
Flags: W
LayerCount: 2
Fore
SplineSet
1424 872 m 1
 1424 816 1400.3359375 738 1353.00292969 638 c 0
 1305.66992188 538 1282.00292969 460 1282.00292969 404 c 0
 1282.00292969 332 1305.00292969 270.666992188 1351.00292969 220 c 0
 1397.00292969 169.333007812 1452.00292969 144 1516.00292969 144 c 0
 1584.00292969 144 1642.00292969 186.333007812 1690.00292969 271 c 0
 1738.00292969 355.666992188 1762.00292969 458 1762.00292969 578 c 0
 1762.00292969 660.666992188 1744.00292969 745 1708.00292969 831 c 0
 1672.00292969 917 1620.66992188 1000 1554.00292969 1080 c 1
 1698.00292969 1184 l 1
 1778.00292969 1089.33300781 1839.00292969 989.333007812 1881.00292969 884 c 0
 1923.00292969 778.666992188 1944.00292969 674.666992188 1944.00292969 572 c 0
 1944.00292969 410.666992188 1902.3359375 272.666992188 1819.00292969 158 c 0
 1735.66992188 43.3330078125 1634.66992188 -14 1516.00292969 -14 c 0
 1401.3359375 -14 1303.3359375 26.6669921875 1222.00292969 108 c 0
 1140.66992188 189.333007812 1100.00292969 288 1100.00292969 404 c 0
 1100.00292969 460 1123.66992188 538 1171.00292969 638 c 0
 1218.3359375 738 1242.00292969 816 1242.00292969 872 c 0
 1242.00292969 914.666992188 1226.66992188 951.333984375 1196.00292969 982.000976562 c 0
 1165.3359375 1012.66796875 1128.66894531 1028.00097656 1086.00195312 1028.00097656 c 0
 1022.00195312 1028.00097656 967.001953125 997.66796875 921.001953125 937.000976562 c 0
 875.001953125 876.333984375 852.001953125 802.666992188 852.001953125 716 c 1
 696.001953125 716 l 1
 696.001953125 802.666992188 673.001953125 876.333984375 627.001953125 937.000976562 c 0
 581.001953125 997.66796875 526.001953125 1028.00097656 462.001953125 1028.00097656 c 0
 411.334960938 1028.00097656 368.334960938 1011.33398438 333.001953125 978.000976562 c 0
 297.668945312 944.66796875 280.001953125 904.66796875 280.001953125 858.000976562 c 0
 280.001953125 823.333984375 290.334960938 788.000976562 311.001953125 752.000976562 c 0
 331.668945312 716.000976562 360.668945312 682.000976562 398.001953125 650.000976562 c 1
 306.001953125 534.000976562 l 1
 246.001953125 568.66796875 198.668945312 615.000976562 164.001953125 673.000976562 c 0
 129.334960938 731.000976562 112.001953125 792.66796875 112.001953125 858.000976562 c 0
 112.001953125 948.66796875 146.334960938 1025.66796875 215.001953125 1089.00097656 c 0
 283.668945312 1152.33398438 366.001953125 1184.00097656 462.001953125 1184.00097656 c 0
 530.001953125 1184.00097656 592.668945312 1162.66796875 650.001953125 1120.00097656 c 0
 707.334960938 1077.33398438 748.66796875 1020.66699219 774.000976562 950 c 1
 799.333984375 1020.66699219 840.666992188 1077.33398438 898 1120.00097656 c 0
 955.333007812 1162.66796875 1018 1184.00097656 1086 1184.00097656 c 0
 1179.33300781 1184.00097656 1259 1153.66796875 1325 1093.00097656 c 0
 1391 1032.33398438 1424 958.666992188 1424 872 c 1
 1424 872 l 1
EndSplineSet
EndChar

StartChar: uni090E
Encoding: 2318 2318 55
Width: 1440
GlyphClass: 2
Flags: W
LayerCount: 2
Fore
SplineSet
1310 468 m 1
 1310 633.333007812 1226.32714844 774.333007812 1058.99414062 891 c 0
 891.661132812 1007.66699219 689.328125 1066 451.995117188 1066 c 1
 451.995117188 1222 l 1
 738.662109375 1222 983.662109375 1148.33300781 1186.99511719 1001 c 0
 1390.328125 853.666992188 1491.99511719 676 1491.99511719 468 c 0
 1491.99511719 338.666992188 1453.99511719 228.333984375 1377.99511719 137.000976562 c 0
 1301.99511719 45.66796875 1209.99511719 0.0009765625 1101.99511719 0.0009765625 c 0
 1033.99511719 0.0009765625 971.328125 21.333984375 913.995117188 64.0009765625 c 0
 856.662109375 106.66796875 815.329101562 163.334960938 789.99609375 234.001953125 c 1
 764.663085938 163.334960938 723.330078125 106.66796875 665.997070312 64.0009765625 c 0
 608.6640625 21.333984375 545.997070312 0.0009765625 477.997070312 0.0009765625 c 0
 384.6640625 0.0009765625 304.997070312 35.66796875 238.997070312 107.000976562 c 0
 172.997070312 178.333984375 139.997070312 264.000976562 139.997070312 364.000976562 c 0
 139.997070312 436.000976562 165.330078125 497.333984375 215.997070312 548.000976562 c 0
 266.6640625 598.66796875 327.997070312 624.000976562 399.997070312 624.000976562 c 0
 453.330078125 624.000976562 499.997070312 601.66796875 539.997070312 557.000976562 c 0
 579.997070312 512.333984375 602.6640625 456.666992188 607.997070312 390 c 1
 477.997070312 390 l 1
 477.997070312 411.333007812 470.330078125 429.666015625 454.997070312 444.999023438 c 0
 439.6640625 460.33203125 421.331054688 467.999023438 399.998046875 467.999023438 c 0
 378.665039062 467.999023438 360.33203125 455.33203125 344.999023438 429.999023438 c 0
 329.666015625 404.666015625 321.999023438 373.999023438 321.999023438 337.999023438 c 0
 321.999023438 287.33203125 337.33203125 244.33203125 367.999023438 208.999023438 c 0
 398.666015625 173.666015625 435.333007812 155.999023438 478 155.999023438 c 0
 542 155.999023438 597 186.33203125 643 246.999023438 c 0
 689 307.666015625 712 381.333007812 712 468 c 1
 868 468 l 1
 868 381.333007812 891 307.666015625 937 246.999023438 c 0
 983 186.33203125 1038 155.999023438 1102 155.999023438 c 0
 1159.33300781 155.999023438 1208.33300781 186.33203125 1249 246.999023438 c 0
 1289.66699219 307.666015625 1310 381.333007812 1310 468 c 1
 1310 468 l 1
EndSplineSet
EndChar

StartChar: uni090F
Encoding: 2319 2319 56
Width: 2456
GlyphClass: 2
Flags: W
LayerCount: 2
Fore
SplineSet
1318 546 m 1
 1318 651.333007812 1282.32617188 749.334960938 1210.99316406 840.001953125 c 0
 1139.66015625 930.668945312 1045.32714844 997.3359375 927.994140625 1040.00292969 c 1
 907.994140625 962.669921875 871.327148438 900.002929688 817.994140625 852.002929688 c 0
 764.661132812 804.002929688 705.994140625 780.002929688 641.994140625 780.002929688 c 0
 541.994140625 780.002929688 456.327148438 820.669921875 384.994140625 902.002929688 c 0
 313.661132812 983.3359375 277.994140625 1081.3359375 277.994140625 1196.00292969 c 1
 433.994140625 1196.00292969 l 1
 433.994140625 1132.00292969 454.327148438 1077.00292969 494.994140625 1031.00292969 c 0
 535.661132812 985.002929688 584.661132812 962.002929688 641.994140625 962.002929688 c 0
 684.661132812 962.002929688 721.328125 990.002929688 751.995117188 1046.00292969 c 0
 782.662109375 1102.00292969 797.995117188 1169.3359375 797.995117188 1248.00292969 c 1
 1000.66210938 1212.00292969 1168.32910156 1127.66992188 1300.99609375 995.002929688 c 0
 1433.66308594 862.3359375 1499.99609375 712.668945312 1499.99609375 546.001953125 c 0
 1499.99609375 380.668945312 1464.32910156 248.3359375 1392.99609375 149.002929688 c 0
 1321.66308594 49.669921875 1227.33007812 0.0029296875 1109.99707031 0.0029296875 c 0
 1039.33007812 0.0029296875 975.330078125 19.0029296875 917.997070312 57.0029296875 c 0
 860.6640625 95.0029296875 820.6640625 145.3359375 797.997070312 208.002929688 c 1
 775.330078125 145.3359375 735.330078125 95.0029296875 677.997070312 57.0029296875 c 0
 620.6640625 19.0029296875 556.6640625 0.0029296875 485.997070312 0.0029296875 c 0
 392.6640625 0.0029296875 312.997070312 33.0029296875 246.997070312 99.0029296875 c 0
 180.997070312 165.002929688 147.997070312 244.669921875 147.997070312 338.002929688 c 0
 147.997070312 416.669921875 173.330078125 484.002929688 223.997070312 540.002929688 c 0
 274.6640625 596.002929688 335.997070312 624.002929688 407.997070312 624.002929688 c 0
 461.330078125 624.002929688 507.997070312 601.669921875 547.997070312 557.002929688 c 0
 587.997070312 512.3359375 610.6640625 456.668945312 615.997070312 390.001953125 c 1
 485.997070312 390.001953125 l 1
 485.997070312 411.334960938 478.330078125 429.66796875 462.997070312 445.000976562 c 0
 447.6640625 460.333984375 429.331054688 468.000976562 407.998046875 468.000976562 c 0
 386.665039062 468.000976562 368.33203125 455.333984375 352.999023438 430.000976562 c 0
 337.666015625 404.66796875 329.999023438 374.000976562 329.999023438 338.000976562 c 0
 329.999023438 287.333984375 345.33203125 244.333984375 375.999023438 209.000976562 c 0
 406.666015625 173.66796875 443.333007812 156.000976562 486 156.000976562 c 0
 550 156.000976562 605 186.333984375 651 247.000976562 c 0
 697 307.66796875 720 381.334960938 720 468.001953125 c 1
 876 468.001953125 l 1
 876 381.334960938 899 307.66796875 945 247.000976562 c 0
 991 186.333984375 1046 156.000976562 1110 156.000976562 c 0
 1172.66699219 156.000976562 1223 191.66796875 1261 263.000976562 c 0
 1299 334.333984375 1318 428.666992188 1318 546 c 1
 1318 546 l 1
EndSplineSet
EndChar

StartChar: uni0910
Encoding: 2320 2320 57
Width: 1510
GlyphClass: 2
Flags: W
LayerCount: 2
Fore
SplineSet
1380 598 m 1
 1380 720.666992188 1359.6640625 825.00390625 1318.99707031 911.00390625 c 0
 1278.33007812 997.00390625 1229.33007812 1040.00390625 1171.99707031 1040.00390625 c 0
 1107.99707031 1040.00390625 1052.99707031 1009.67089844 1006.99707031 949.00390625 c 0
 960.997070312 888.336914062 937.997070312 814.669921875 937.997070312 728.002929688 c 1
 781.997070312 728.002929688 l 1
 781.997070312 814.669921875 761.6640625 888.336914062 720.997070312 949.00390625 c 0
 680.330078125 1009.67089844 631.330078125 1040.00390625 573.997070312 1040.00390625 c 0
 516.6640625 1040.00390625 467.6640625 1009.67089844 426.997070312 949.00390625 c 0
 386.330078125 888.336914062 365.997070312 814.669921875 365.997070312 728.002929688 c 1
 209.997070312 728.002929688 l 1
 209.997070312 857.3359375 245.6640625 967.668945312 316.997070312 1059.00195312 c 0
 388.330078125 1150.33496094 473.997070312 1196.00195312 573.997070312 1196.00195312 c 0
 631.330078125 1196.00195312 685.997070312 1177.33496094 737.997070312 1140.00195312 c 0
 789.997070312 1102.66894531 830.6640625 1052.00195312 859.997070312 988.001953125 c 1
 889.330078125 1052.00195312 932.330078125 1102.66894531 988.997070312 1140.00195312 c 0
 1045.6640625 1177.33496094 1106.6640625 1196.00195312 1171.99707031 1196.00195312 c 0
 1279.99707031 1196.00195312 1371.99707031 1137.66894531 1447.99707031 1021.00195312 c 0
 1523.99707031 904.334960938 1561.99707031 763.334960938 1561.99707031 598.001953125 c 0
 1561.99707031 432.668945312 1523.99707031 291.668945312 1447.99707031 175.001953125 c 0
 1371.99707031 58.3349609375 1279.99707031 0.001953125 1171.99707031 0.001953125 c 0
 1101.33007812 0.001953125 1037.33007812 19.001953125 979.997070312 57.001953125 c 0
 922.6640625 95.001953125 882.6640625 145.334960938 859.997070312 208.001953125 c 1
 837.330078125 145.334960938 797.330078125 95.001953125 739.997070312 57.001953125 c 0
 682.6640625 19.001953125 618.6640625 0.001953125 547.997070312 0.001953125 c 0
 454.6640625 0.001953125 374.997070312 33.001953125 308.997070312 99.001953125 c 0
 242.997070312 165.001953125 209.997070312 244.668945312 209.997070312 338.001953125 c 0
 209.997070312 416.668945312 235.330078125 484.001953125 285.997070312 540.001953125 c 0
 336.6640625 596.001953125 397.997070312 624.001953125 469.997070312 624.001953125 c 0
 523.330078125 624.001953125 569.997070312 601.668945312 609.997070312 557.001953125 c 0
 649.997070312 512.334960938 672.6640625 456.66796875 677.997070312 390.000976562 c 1
 547.997070312 390.000976562 l 1
 547.997070312 411.333984375 540.330078125 429.666992188 524.997070312 445 c 0
 509.6640625 460.333007812 491.331054688 468 469.998046875 468 c 0
 448.665039062 468 430.33203125 455.333007812 414.999023438 430 c 0
 399.666015625 404.666992188 391.999023438 374 391.999023438 338 c 0
 391.999023438 287.333007812 407.33203125 244.333007812 437.999023438 209 c 0
 468.666015625 173.666992188 505.333007812 156 548 156 c 0
 612 156 667 186.333007812 713 247 c 0
 759 307.666992188 782 381.333984375 782 468.000976562 c 1
 938 468.000976562 l 1
 938 381.333984375 961 307.666992188 1007 247 c 0
 1053 186.333007812 1108 156 1172 156 c 0
 1229.33300781 156 1278.33300781 199 1319 285 c 0
 1359.66699219 371 1380 475.333007812 1380 598 c 1
 1380 598 l 1
EndSplineSet
EndChar

StartChar: uni0912
Encoding: 2322 2322 58
Width: 1502
GlyphClass: 2
Flags: W
LayerCount: 2
Fore
SplineSet
722 936 m 1
 722 870.666992188 708.330078125 808.329101562 680.997070312 748.99609375 c 0
 653.6640625 689.663085938 615.331054688 639.330078125 565.998046875 597.997070312 c 0
 520.665039062 560.6640625 485.665039062 521.331054688 460.998046875 479.998046875 c 0
 436.331054688 438.665039062 423.998046875 399.998046875 423.998046875 363.998046875 c 0
 423.998046875 313.331054688 439.331054688 270.331054688 469.998046875 234.998046875 c 0
 500.665039062 199.665039062 537.33203125 181.998046875 579.999023438 181.998046875 c 0
 643.999023438 181.998046875 698.999023438 209.998046875 744.999023438 265.998046875 c 0
 790.999023438 321.998046875 813.999023438 389.331054688 813.999023438 467.998046875 c 1
 969.999023438 467.998046875 l 1
 969.999023438 389.331054688 993.999023438 321.998046875 1041.99902344 265.998046875 c 0
 1089.99902344 209.998046875 1147.99902344 181.998046875 1215.99902344 181.998046875 c 0
 1262.66601562 181.998046875 1302.66601562 200.998046875 1335.99902344 238.998046875 c 0
 1369.33203125 276.998046875 1385.99902344 323.331054688 1385.99902344 377.998046875 c 0
 1385.99902344 420.665039062 1375.33203125 459.33203125 1353.99902344 493.999023438 c 0
 1332.66601562 528.666015625 1303.99902344 554.666015625 1267.99902344 571.999023438 c 1
 1371.99902344 689.999023438 l 1
 1427.99902344 657.999023438 1472.33203125 613.999023438 1504.99902344 557.999023438 c 0
 1537.66601562 501.999023438 1553.99902344 441.999023438 1553.99902344 377.999023438 c 0
 1553.99902344 273.999023438 1519.66601562 184.999023438 1450.99902344 110.999023438 c 0
 1382.33203125 36.9990234375 1299.99902344 -0.0009765625 1203.99902344 -0.0009765625 c 0
 1134.66601562 -0.0009765625 1071.33300781 20.33203125 1014 60.9990234375 c 0
 956.666992188 101.666015625 916 155.333007812 892 222 c 1
 868 155.333007812 827.333007812 101.666015625 770 60.9990234375 c 0
 712.666992188 20.33203125 649.333984375 -0.0009765625 580.000976562 -0.0009765625 c 0
 486.66796875 -0.0009765625 407.000976562 35.666015625 341.000976562 106.999023438 c 0
 275.000976562 178.33203125 242.000976562 263.999023438 242.000976562 363.999023438 c 0
 242.000976562 418.666015625 256.66796875 472.999023438 286.000976562 526.999023438 c 0
 315.333984375 580.999023438 356.666992188 630.666015625 410 675.999023438 c 0
 451.333007812 710.666015625 483.333007812 750.666015625 506 795.999023438 c 0
 528.666992188 841.33203125 540 887.999023438 540 935.999023438 c 0
 540 965.33203125 530.333007812 989.999023438 511 1009.99902344 c 0
 491.666992188 1029.99902344 468.666992188 1039.99902344 442 1039.99902344 c 0
 415.333007812 1039.99902344 392.666015625 1029.99902344 373.999023438 1009.99902344 c 0
 355.33203125 989.999023438 345.999023438 965.33203125 345.999023438 935.999023438 c 0
 345.999023438 917.33203125 349.33203125 898.999023438 355.999023438 880.999023438 c 0
 362.666015625 862.999023438 371.999023438 846.666015625 383.999023438 831.999023438 c 1
 241.999023438 753.999023438 l 1
 216.666015625 784.666015625 197.333007812 815.333007812 184 846 c 0
 170.666992188 876.666992188 164 906.666992188 164 936 c 0
 164 1012 191 1076.66699219 245 1130 c 0
 299 1183.33300781 364.666992188 1210 442 1210 c 0
 519.333007812 1210 585.333007812 1183.33300781 640 1130 c 0
 694.666992188 1076.66699219 722 1012 722 936 c 1
 722 936 l 1
EndSplineSet
EndChar

StartChar: uni0913
Encoding: 2323 2323 59
Width: 1502
GlyphClass: 2
Flags: W
LayerCount: 2
Fore
SplineSet
254 1392 m 1
 254 1438.66699219 270.665039062 1481.99511719 303.998046875 1521.99511719 c 0
 337.331054688 1561.99511719 381.331054688 1591.99511719 435.998046875 1611.99511719 c 1
 527.998046875 1533.99511719 l 1
 481.331054688 1500.66210938 454.6640625 1451.99511719 447.997070312 1387.99511719 c 0
 441.330078125 1323.99511719 457.330078125 1262.66210938 495.997070312 1203.99511719 c 1
 561.330078125 1190.66210938 615.330078125 1158.99511719 657.997070312 1108.99511719 c 0
 700.6640625 1058.99511719 721.997070312 1001.328125 721.997070312 935.995117188 c 0
 721.997070312 870.662109375 708.330078125 808.329101562 680.997070312 748.99609375 c 0
 653.6640625 689.663085938 615.331054688 639.330078125 565.998046875 597.997070312 c 0
 520.665039062 560.6640625 485.665039062 521.331054688 460.998046875 479.998046875 c 0
 436.331054688 438.665039062 423.998046875 399.998046875 423.998046875 363.998046875 c 0
 423.998046875 313.331054688 439.331054688 270.331054688 469.998046875 234.998046875 c 0
 500.665039062 199.665039062 537.33203125 181.998046875 579.999023438 181.998046875 c 0
 643.999023438 181.998046875 698.999023438 209.998046875 744.999023438 265.998046875 c 0
 790.999023438 321.998046875 813.999023438 389.331054688 813.999023438 467.998046875 c 1
 969.999023438 467.998046875 l 1
 969.999023438 389.331054688 993.999023438 321.998046875 1041.99902344 265.998046875 c 0
 1089.99902344 209.998046875 1147.99902344 181.998046875 1215.99902344 181.998046875 c 0
 1262.66601562 181.998046875 1302.66601562 200.998046875 1335.99902344 238.998046875 c 0
 1369.33203125 276.998046875 1385.99902344 323.331054688 1385.99902344 377.998046875 c 0
 1385.99902344 420.665039062 1375.33203125 459.33203125 1353.99902344 493.999023438 c 0
 1332.66601562 528.666015625 1303.99902344 554.666015625 1267.99902344 571.999023438 c 1
 1371.99902344 689.999023438 l 1
 1427.99902344 657.999023438 1472.33203125 613.999023438 1504.99902344 557.999023438 c 0
 1537.66601562 501.999023438 1553.99902344 441.999023438 1553.99902344 377.999023438 c 0
 1553.99902344 273.999023438 1519.66601562 184.999023438 1450.99902344 110.999023438 c 0
 1382.33203125 36.9990234375 1299.99902344 -0.0009765625 1203.99902344 -0.0009765625 c 0
 1134.66601562 -0.0009765625 1071.33300781 20.33203125 1014 60.9990234375 c 0
 956.666992188 101.666015625 916 155.333007812 892 222 c 1
 868 155.333007812 827.333007812 101.666015625 770 60.9990234375 c 0
 712.666992188 20.33203125 649.333984375 -0.0009765625 580.000976562 -0.0009765625 c 0
 486.66796875 -0.0009765625 407.000976562 35.666015625 341.000976562 106.999023438 c 0
 275.000976562 178.33203125 242.000976562 263.999023438 242.000976562 363.999023438 c 0
 242.000976562 418.666015625 256.66796875 472.999023438 286.000976562 526.999023438 c 0
 315.333984375 580.999023438 356.666992188 630.666015625 410 675.999023438 c 0
 451.333007812 710.666015625 483.333007812 750.666015625 506 795.999023438 c 0
 528.666992188 841.33203125 540 887.999023438 540 935.999023438 c 0
 540 965.33203125 530.333007812 989.999023438 511 1009.99902344 c 0
 491.666992188 1029.99902344 468.666992188 1039.99902344 442 1039.99902344 c 0
 415.333007812 1039.99902344 392.666015625 1029.99902344 373.999023438 1009.99902344 c 0
 355.33203125 989.999023438 345.999023438 965.33203125 345.999023438 935.999023438 c 0
 345.999023438 917.33203125 349.33203125 898.999023438 355.999023438 880.999023438 c 0
 362.666015625 862.999023438 371.999023438 846.666015625 383.999023438 831.999023438 c 1
 241.999023438 753.999023438 l 1
 216.666015625 784.666015625 197.333007812 815.333007812 184 846 c 0
 170.666992188 876.666992188 164 906.666992188 164 936 c 0
 164 997.333007812 183 1052.33300781 221 1101 c 0
 259 1149.66699219 308.666992188 1182 370 1198 c 1
 332.666992188 1228.66699219 304 1261 284 1295 c 0
 264 1329 254 1361.33300781 254 1392 c 1
 254 1392 l 1
EndSplineSet
EndChar

StartChar: uni0914
Encoding: 2324 2324 60
Width: 1378
GlyphClass: 2
Flags: W
LayerCount: 2
Fore
SplineSet
190 1196 m 1
 189.999023438 1325.99804688 l 1
 631.999023438 1325.99804688 l 2
 662.666015625 1325.99804688 677.999023438 1343.33105469 677.999023438 1377.99804688 c 0
 677.999023438 1412.66503906 662.666015625 1438.66503906 631.999023438 1455.99804688 c 1
 189.999023438 1455.99804688 l 1
 189.999023438 1611.99804688 l 1
 1099.99902344 1611.99804688 l 2
 1229.33203125 1611.99804688 1339.66503906 1566.33105469 1430.99804688 1474.99804688 c 0
 1522.33105469 1383.66503906 1567.99804688 1273.33203125 1567.99804688 1143.99902344 c 0
 1567.99804688 1014.66601562 1532.33105469 904.333007812 1460.99804688 813 c 0
 1389.66503906 721.666992188 1303.99804688 676 1203.99804688 676 c 0
 1110.66503906 676 1030.99804688 706.333007812 964.998046875 767 c 0
 898.998046875 827.666992188 865.998046875 901.333984375 865.998046875 988.000976562 c 0
 865.998046875 1060.00097656 891.331054688 1121.33398438 941.998046875 1172.00097656 c 0
 992.665039062 1222.66796875 1053.99804688 1248.00097656 1125.99804688 1248.00097656 c 0
 1176.66503906 1248.00097656 1219.66503906 1232.66796875 1254.99804688 1202.00097656 c 0
 1290.33105469 1171.33398438 1307.99804688 1134.66699219 1307.99804688 1092 c 0
 1307.99804688 1062.66699219 1297.99804688 1038 1277.99804688 1018 c 0
 1257.99804688 998 1233.33105469 988 1203.99804688 988 c 0
 1178.66503906 988 1157.99804688 1000 1141.99804688 1024 c 0
 1125.99804688 1048 1120.66503906 1075.33300781 1125.99804688 1106 c 1
 1096.66503906 1106 1071.99804688 1094.33300781 1051.99804688 1071 c 0
 1031.99804688 1047.66699219 1021.99804688 1020 1021.99804688 988 c 0
 1021.99804688 941.333007812 1039.66503906 901.666015625 1074.99804688 868.999023438 c 0
 1110.33105469 836.33203125 1153.33105469 819.999023438 1203.99804688 819.999023438 c 0
 1254.66503906 819.999023438 1297.66503906 848.999023438 1332.99804688 906.999023438 c 0
 1368.33105469 964.999023438 1385.99804688 1035.33203125 1385.99804688 1117.99902344 c 0
 1385.99804688 1211.33203125 1357.99804688 1290.99902344 1301.99804688 1356.99902344 c 0
 1245.99804688 1422.99902344 1178.66503906 1455.99902344 1099.99804688 1455.99902344 c 2
 787.998046875 1455.99902344 l 1
 803.998046875 1442.66601562 816.665039062 1426.66601562 825.998046875 1407.99902344 c 0
 835.331054688 1389.33203125 839.998046875 1370.66503906 839.998046875 1351.99804688 c 0
 839.998046875 1309.33105469 819.665039062 1272.6640625 778.998046875 1241.99707031 c 0
 738.331054688 1211.33007812 689.331054688 1195.99707031 631.998046875 1195.99707031 c 2
 527.998046875 1195.99707031 l 1
 585.331054688 1178.6640625 631.998046875 1145.99707031 667.998046875 1097.99707031 c 0
 703.998046875 1049.99707031 721.998046875 995.997070312 721.998046875 935.997070312 c 0
 721.998046875 870.6640625 708.331054688 808.331054688 680.998046875 748.998046875 c 0
 653.665039062 689.665039062 615.33203125 639.33203125 565.999023438 597.999023438 c 0
 520.666015625 560.666015625 485.666015625 521.333007812 460.999023438 480 c 0
 436.33203125 438.666992188 423.999023438 400 423.999023438 364 c 0
 423.999023438 313.333007812 439.33203125 270.333007812 469.999023438 235 c 0
 500.666015625 199.666992188 537.333007812 182 580 182 c 0
 644 182 699 210 745 266 c 0
 791 322 814 389.333007812 814 468 c 1
 970 468 l 1
 970 389.333007812 994 322 1042 266 c 0
 1090 210 1148 182 1216 182 c 0
 1262.66699219 182 1302.66699219 198.666992188 1336 232 c 0
 1369.33300781 265.333007812 1386 305.333007812 1386 352 c 0
 1386 393.333007812 1376.66699219 430.333007812 1358 463 c 0
 1339.33300781 495.666992188 1314 519.333984375 1282 534.000976562 c 1
 1386 650.000976562 l 1
 1438 619.333984375 1479 577.666992188 1509 525 c 0
 1539 472.333007812 1554 414.666015625 1554 351.999023438 c 0
 1554 254.666015625 1519.66699219 171.666015625 1451 102.999023438 c 0
 1382.33300781 34.33203125 1300 -0.0009765625 1204 -0.0009765625 c 0
 1134.66699219 -0.0009765625 1071.33398438 20.33203125 1014.00097656 60.9990234375 c 0
 956.66796875 101.666015625 916.000976562 155.333007812 892.000976562 222 c 1
 868.000976562 155.333007812 827.333984375 101.666015625 770.000976562 60.9990234375 c 0
 712.66796875 20.33203125 649.334960938 -0.0009765625 580.001953125 -0.0009765625 c 0
 486.668945312 -0.0009765625 407.001953125 35.666015625 341.001953125 106.999023438 c 0
 275.001953125 178.33203125 242.001953125 263.999023438 242.001953125 363.999023438 c 0
 242.001953125 418.666015625 256.668945312 472.999023438 286.001953125 526.999023438 c 0
 315.334960938 580.999023438 356.66796875 630.666015625 410.000976562 675.999023438 c 0
 451.333984375 710.666015625 483.333984375 750.666015625 506.000976562 795.999023438 c 0
 528.66796875 841.33203125 540.000976562 887.999023438 540.000976562 935.999023438 c 0
 540.000976562 965.33203125 530.333984375 989.999023438 511.000976562 1009.99902344 c 0
 491.66796875 1029.99902344 468.66796875 1039.99902344 442.000976562 1039.99902344 c 0
 415.333984375 1039.99902344 392.666992188 1029.99902344 374 1009.99902344 c 0
 355.333007812 989.999023438 346 965.33203125 346 935.999023438 c 0
 346 917.33203125 349.333007812 898.999023438 356 880.999023438 c 0
 362.666992188 862.999023438 372 846.666015625 384 831.999023438 c 1
 242 753.999023438 l 1
 216.666992188 784.666015625 197.333984375 815.333007812 184.000976562 846 c 0
 170.66796875 876.666992188 164.000976562 906.666992188 164.000976562 936 c 0
 164.000976562 996 181.66796875 1050 217.000976562 1098 c 0
 252.333984375 1146 298.666992188 1178.66699219 356 1196 c 1
 190 1196 l 1
 190 1196 l 1
EndSplineSet
EndChar

StartChar: uni0915
Encoding: 2325 2325 61
Width: 1092
GlyphClass: 2
Flags: W
LayerCount: 2
Fore
SplineSet
414 442 m 1
 414 370 437 308.666992188 483 258 c 0
 529 207.333007812 584 182 648 182 c 0
 712 182 767 207.333007812 813 258 c 0
 859 308.666992188 882 370 882 442 c 0
 882 514 859 575.333007812 813 626 c 0
 767 676.666992188 712 702 648 702 c 0
 584 702 529 676.666992188 483 626 c 0
 437 575.333007812 414 514 414 442 c 1
 414 442 l 1
128 846 m 1
 570 846 l 1
 570 1014 l 1
 128 1014 l 1
 128 1170 l 1
 934 1170 l 2
 966 1170 993.333007812 1180 1016 1200 c 0
 1038.66699219 1220 1050 1244.66699219 1050 1274 c 0
 1050 1296.66699219 1039.66699219 1320 1019 1344 c 0
 998.333007812 1368 970 1388 934 1404 c 1
 1038 1534 l 1
 1090 1503.33300781 1131 1465 1161 1419 c 0
 1191 1373 1206 1324.66699219 1206 1274 c 0
 1206 1202 1180.66699219 1140.66699219 1130 1090 c 0
 1079.33300781 1039.33300781 1018 1014 946 1014 c 2
 726 1014 l 1
 726 846 l 1
 1168 846 l 1
 1168 702 l 1
 946 702 l 1
 983.333007812 670 1012.33300781 631.333007812 1033 586 c 0
 1053.66699219 540.666992188 1064 492.666992188 1064 442 c 0
 1064 319.333007812 1023.33300781 215 942 129 c 0
 860.666992188 43 762.666992188 0 648 0 c 0
 533.333007812 0 435.333007812 42 354 126 c 0
 272.666992188 210 232 311.333007812 232 430 c 0
 232 486 242 537.666992188 262 585 c 0
 282 632.333007812 310.666992188 671.333007812 348 702 c 1
 128 702 l 1
 128 846 l 1
 128 846 l 1
EndSplineSet
EndChar

StartChar: uni0916
Encoding: 2326 2326 62
Width: 1700
GlyphClass: 2
Flags: W
LayerCount: 2
Fore
SplineSet
322 260 m 1
 322 238.666992188 337.333007812 220.333984375 368 205.000976562 c 0
 398.666992188 189.66796875 435.333984375 182.000976562 478.000976562 182.000976562 c 0
 523.333984375 182.000976562 566.000976562 188.66796875 606.000976562 202.000976562 c 0
 646.000976562 215.333984375 681.333984375 234.666992188 712.000976562 260 c 1
 672.000976562 293.333007812 632.000976562 319 592.000976562 337 c 0
 552.000976562 355 514.000976562 364 478.000976562 364 c 0
 435.333984375 364 398.666992188 354 368 334 c 0
 337.333007812 314 322 289.333007812 322 260 c 1
 322 260 l 1
1258 182 m 1
 1344.66699219 182 1418.33203125 227.666992188 1478.99902344 319 c 0
 1539.66601562 410.333007812 1569.99902344 520.666015625 1569.99902344 649.999023438 c 0
 1569.99902344 821.999023438 1516.66601562 968.999023438 1409.99902344 1090.99902344 c 0
 1303.33203125 1212.99902344 1174.66503906 1273.99902344 1023.99804688 1273.99902344 c 1
 1023.99804688 1429.99902344 l 1
 1225.33105469 1429.99902344 1396.99804688 1353.99902344 1538.99804688 1201.99902344 c 0
 1680.99804688 1049.99902344 1751.99804688 865.999023438 1751.99804688 649.999023438 c 0
 1751.99804688 469.999023438 1703.66503906 316.666015625 1606.99804688 189.999023438 c 0
 1510.33105469 63.33203125 1393.99804688 -0.0009765625 1257.99804688 -0.0009765625 c 0
 1175.33105469 -0.0009765625 1095.99804688 13.33203125 1019.99804688 39.9990234375 c 0
 943.998046875 66.666015625 875.998046875 105.333007812 815.998046875 156 c 1
 774.665039062 106.666992188 724.33203125 68.333984375 664.999023438 41.0009765625 c 0
 605.666015625 13.66796875 543.333007812 0.0009765625 478 0.0009765625 c 0
 384.666992188 0.0009765625 305 25.333984375 239 76.0009765625 c 0
 173 126.66796875 140 188.000976562 140 260.000976562 c 0
 140 336.000976562 173 400.66796875 239 454.000976562 c 0
 305 507.333984375 384.666992188 534.000976562 478 534.000976562 c 0
 530 534.000976562 581.666992188 524.000976562 633 504.000976562 c 0
 684.333007812 484.000976562 732.666015625 454.66796875 777.999023438 416.000976562 c 1
 789.999023438 450.66796875 799.33203125 487.66796875 805.999023438 527.000976562 c 0
 812.666015625 566.333984375 815.999023438 607.333984375 815.999023438 650.000976562 c 0
 815.999023438 758.000976562 792.999023438 850.000976562 746.999023438 926.000976562 c 0
 700.999023438 1002.00097656 645.999023438 1040.00097656 581.999023438 1040.00097656 c 0
 545.999023438 1040.00097656 515.33203125 1028.66796875 489.999023438 1006.00097656 c 0
 464.666015625 983.333984375 451.999023438 956.000976562 451.999023438 924.000976562 c 1
 462.666015625 936.000976562 474.666015625 945.333984375 487.999023438 952.000976562 c 0
 501.33203125 958.66796875 515.33203125 962.000976562 529.999023438 962.000976562 c 0
 559.33203125 962.000976562 583.999023438 950.66796875 603.999023438 928.000976562 c 0
 623.999023438 905.333984375 633.999023438 878.000976562 633.999023438 846.000976562 c 0
 633.999023438 814.000976562 621.33203125 786.333984375 595.999023438 763.000976562 c 0
 570.666015625 739.66796875 539.999023438 728.000976562 503.999023438 728.000976562 c 0
 446.666015625 728.000976562 397.666015625 751.000976562 356.999023438 797.000976562 c 0
 316.33203125 843.000976562 295.999023438 898.000976562 295.999023438 962.000976562 c 0
 295.999023438 1026.00097656 323.999023438 1081.00097656 379.999023438 1127.00097656 c 0
 435.999023438 1173.00097656 503.33203125 1196.00097656 581.999023438 1196.00097656 c 0
 696.666015625 1196.00097656 794.666015625 1142.66796875 875.999023438 1036.00097656 c 0
 957.33203125 929.333984375 997.999023438 800.666992188 997.999023438 650 c 0
 997.999023438 582 990.33203125 517 974.999023438 455 c 0
 959.666015625 393 937.333007812 336.666992188 908 286 c 1
 948 252.666992188 998 227 1058 209 c 0
 1118 191 1184.66699219 182 1258 182 c 1
 1258 182 l 1
EndSplineSet
EndChar

StartChar: uni0917
Encoding: 2327 2327 63
Width: 1240
GlyphClass: 2
Flags: W
LayerCount: 2
Fore
SplineSet
252 0 m 1
 252 390.001953125 l 2
 252 511.334960938 270 625.66796875 306 733.000976562 c 0
 342 840.333984375 393.333007812 934.000976562 460 1014.00097656 c 1
 252 1014.00097656 l 1
 252 1170.00097656 l 1
 1006 1170.00097656 l 2
 1035.33300781 1170.00097656 1060 1182.66796875 1080 1208.00097656 c 0
 1100 1233.33398438 1110 1264.00097656 1110 1300.00097656 c 0
 1110 1337.33398438 1103.33300781 1371.66699219 1090 1403 c 0
 1076.66699219 1434.33300781 1057.33398438 1460.66601562 1032.00097656 1481.99902344 c 1
 1136.00097656 1585.99902344 l 1
 1185.33398438 1544.66601562 1223.66699219 1498.99902344 1251 1448.99902344 c 0
 1278.33300781 1398.99902344 1292 1349.33203125 1292 1299.99902344 c 0
 1292 1231.99902344 1272.66699219 1171.33203125 1234 1117.99902344 c 0
 1195.33300781 1064.66601562 1145.33300781 1029.99902344 1084 1013.99902344 c 1
 1150.66699219 933.999023438 1202 840.33203125 1238 732.999023438 c 0
 1274 625.666015625 1292 511.333007812 1292 390 c 2
 1292 0 l 1
 1110 0 l 1
 1110 390 l 2
 1110 562 1077 709 1011 831 c 0
 945 953 865.333007812 1014 772 1014 c 0
 678.666992188 1014 599 953 533 831 c 0
 467 709 434 562 434 390 c 2
 434 0 l 1
 252 0 l 1
 252 0 l 1
EndSplineSet
EndChar

StartChar: uni0918
Encoding: 2328 2328 64
Width: 1830
GlyphClass: 2
Flags: W
LayerCount: 2
Fore
SplineSet
686 650 m 1
 686 858 l 1
 894 858 l 1
 894 650 l 1
 686 650 l 1
 686 650 l 1
686 -364 m 1
 686 -286 l 1
 738 52 l 1
 842 52 l 1
 894 -286 l 1
 894 -364 l 1
 686 -364 l 1
 686 -364 l 1
1570 676 m 1
 1606 676 1636.66210938 691.3359375 1661.99511719 722.002929688 c 0
 1687.328125 752.669921875 1699.99511719 789.336914062 1699.99511719 832.00390625 c 0
 1699.99511719 884.00390625 1683.66210938 934.670898438 1650.99511719 984.00390625 c 0
 1618.328125 1033.33691406 1573.99511719 1074.00390625 1517.99511719 1106.00390625 c 1
 1661.99511719 1236.00390625 l 1
 1735.328125 1184.00390625 1792.66113281 1122.33691406 1833.99414062 1051.00390625 c 0
 1875.32714844 979.670898438 1895.99414062 906.670898438 1895.99414062 832.00390625 c 0
 1895.99414062 741.336914062 1864.99414062 663.669921875 1802.99414062 599.002929688 c 0
 1740.99414062 534.3359375 1666.66113281 502.002929688 1579.99414062 502.002929688 c 0
 1554.66113281 502.002929688 1529.328125 505.669921875 1503.99511719 513.002929688 c 0
 1478.66210938 520.3359375 1453.32910156 531.3359375 1427.99609375 546.002929688 c 1
 1431.99609375 523.3359375 1434.99609375 500.002929688 1436.99609375 476.002929688 c 0
 1438.99609375 452.002929688 1439.99609375 428.002929688 1439.99609375 404.002929688 c 0
 1439.99609375 292.002929688 1406.99609375 196.669921875 1340.99609375 118.002929688 c 0
 1274.99609375 39.3359375 1195.32910156 0.0029296875 1101.99609375 0.0029296875 c 0
 1033.99609375 0.0029296875 971.329101562 21.3359375 913.99609375 64.0029296875 c 0
 856.663085938 106.669921875 815.330078125 163.336914062 789.997070312 234.00390625 c 1
 764.6640625 163.336914062 722.331054688 106.669921875 662.998046875 64.0029296875 c 0
 603.665039062 21.3359375 537.998046875 0.0029296875 465.998046875 0.0029296875 c 0
 375.331054688 0.0029296875 298.331054688 33.0029296875 234.998046875 99.0029296875 c 0
 171.665039062 165.002929688 139.998046875 244.669921875 139.998046875 338.002929688 c 0
 139.998046875 416.669921875 165.331054688 484.002929688 215.998046875 540.002929688 c 0
 266.665039062 596.002929688 327.998046875 624.002929688 399.998046875 624.002929688 c 0
 457.331054688 624.002929688 506.331054688 601.002929688 546.998046875 555.002929688 c 0
 587.665039062 509.002929688 607.998046875 454.002929688 607.998046875 390.002929688 c 1
 477.998046875 390.002929688 l 1
 477.998046875 411.3359375 470.331054688 429.668945312 454.998046875 445.001953125 c 0
 439.665039062 460.334960938 421.33203125 468.001953125 399.999023438 468.001953125 c 0
 378.666015625 468.001953125 360.333007812 455.334960938 345 430.001953125 c 0
 329.666992188 404.668945312 322 374.001953125 322 338.001953125 c 0
 322 295.334960938 336 258.66796875 364 228.000976562 c 0
 392 197.333984375 426 182.000976562 466 182.000976562 c 0
 534 182.000976562 592 210.000976562 640 266.000976562 c 0
 688 322.000976562 712 389.333984375 712 468.000976562 c 1
 868 468.000976562 l 1
 868 389.333984375 891 322.000976562 937 266.000976562 c 0
 983 210.000976562 1038 182.000976562 1102 182.000976562 c 0
 1144.66699219 182.000976562 1181.33398438 203.66796875 1212.00097656 247.000976562 c 0
 1242.66796875 290.333984375 1258.00097656 342.666992188 1258.00097656 404 c 0
 1258.00097656 478.666992188 1244.66796875 551.666992188 1218.00097656 623 c 0
 1191.33398438 694.333007812 1152.66699219 760 1102 820 c 1
 1272 910 l 1
 1305.33300781 838 1349 781 1403 739 c 0
 1457 697 1512.66699219 676 1570 676 c 1
 1570 676 l 1
139.995117188 1014.00292969 m 1
 139.995117188 1170.00292969 l 1
 1153.99511719 1170.00292969 l 2
 1189.99511719 1170.00292969 1220.66210938 1182.66992188 1245.99511719 1208.00292969 c 0
 1271.328125 1233.3359375 1283.99511719 1264.00292969 1283.99511719 1300.00292969 c 0
 1283.99511719 1338.66992188 1273.66210938 1374.66992188 1252.99511719 1408.00292969 c 0
 1232.328125 1441.3359375 1203.99511719 1466.00292969 1167.99511719 1482.00292969 c 1
 1257.99511719 1586.00292969 l 1
 1313.99511719 1560.66992188 1358.328125 1522.00292969 1390.99511719 1470.00292969 c 0
 1423.66210938 1418.00292969 1439.99511719 1361.3359375 1439.99511719 1300.00292969 c 0
 1439.99511719 1221.3359375 1411.99511719 1154.00292969 1355.99511719 1098.00292969 c 0
 1299.99511719 1042.00292969 1232.66210938 1014.00292969 1153.99511719 1014.00292969 c 2
 139.995117188 1014.00292969 l 1
 139.995117188 1014.00292969 l 1
EndSplineSet
EndChar

StartChar: uni0919
Encoding: 2329 2329 65
Width: 1534
GlyphClass: 2
Flags: W
LayerCount: 2
Fore
SplineSet
806 546 m 1
 806 728 l 1
 988 728 l 1
 988 546 l 1
 806 546 l 1
 806 546 l 1
170 936 m 1
 170 1008 196.66796875 1069.33691406 250.000976562 1120.00390625 c 0
 303.333984375 1170.67089844 367.333984375 1196.00390625 442.000976562 1196.00390625 c 0
 514.000976562 1196.00390625 575.333984375 1170.67089844 626.000976562 1120.00390625 c 0
 676.66796875 1069.33691406 702.000976562 1008.00390625 702.000976562 936.00390625 c 1
 823.333984375 1020.00390625 930.333984375 1084.33691406 1023.00097656 1129.00390625 c 0
 1115.66796875 1173.67089844 1190.66796875 1196.00390625 1248.00097656 1196.00390625 c 0
 1341.33398438 1196.00390625 1421.00097656 1170.67089844 1487.00097656 1120.00390625 c 0
 1553.00097656 1069.33691406 1586.00097656 1008.00390625 1586.00097656 936.00390625 c 0
 1586.00097656 905.336914062 1581.66796875 876.669921875 1573.00097656 850.002929688 c 0
 1564.33398438 823.3359375 1551.33398438 800.002929688 1534.00097656 780.002929688 c 1
 1378.00097656 858.002929688 l 1
 1386.00097656 872.669921875 1392.33398438 886.669921875 1397.00097656 900.002929688 c 0
 1401.66796875 913.3359375 1404.00097656 925.3359375 1404.00097656 936.002929688 c 0
 1404.00097656 965.3359375 1388.66796875 990.002929688 1358.00097656 1010.00292969 c 0
 1327.33398438 1030.00292969 1290.66699219 1040.00292969 1248 1040.00292969 c 0
 1176 1040.00292969 1081 1006.3359375 963 939.002929688 c 0
 845 871.669921875 710.666992188 775.336914062 560 650.00390625 c 0
 514.666992188 611.336914062 479.333984375 567.00390625 454.000976562 517.00390625 c 0
 428.66796875 467.00390625 416.000976562 416.00390625 416.000976562 364.00390625 c 0
 416.000976562 313.336914062 431.333984375 270.336914062 462.000976562 235.00390625 c 0
 492.66796875 199.670898438 529.334960938 182.00390625 572.001953125 182.00390625 c 0
 636.001953125 182.00390625 691.001953125 208.670898438 737.001953125 262.00390625 c 0
 783.001953125 315.336914062 806.001953125 380.00390625 806.001953125 456.00390625 c 1
 962.001953125 456.00390625 l 1
 962.001953125 380.00390625 985.001953125 315.336914062 1031.00195312 262.00390625 c 0
 1077.00195312 208.670898438 1132.00195312 182.00390625 1196.00195312 182.00390625 c 0
 1246.66894531 182.00390625 1289.66894531 199.670898438 1325.00195312 235.00390625 c 0
 1360.33496094 270.336914062 1378.00195312 313.336914062 1378.00195312 364.00390625 c 0
 1378.00195312 405.336914062 1366.33496094 444.669921875 1343.00195312 482.002929688 c 0
 1319.66894531 519.3359375 1288.00195312 549.3359375 1248.00195312 572.002929688 c 1
 1352.00195312 702.002929688 l 1
 1416.00195312 664.669921875 1466.66894531 616.002929688 1504.00195312 556.002929688 c 0
 1541.33496094 496.002929688 1560.00195312 432.002929688 1560.00195312 364.002929688 c 0
 1560.00195312 264.002929688 1524.33496094 178.3359375 1453.00195312 107.002929688 c 0
 1381.66894531 35.669921875 1296.00195312 0.0029296875 1196.00195312 0.0029296875 c 0
 1134.66894531 0.0029296875 1075.66894531 21.0029296875 1019.00195312 63.0029296875 c 0
 962.334960938 105.002929688 917.334960938 162.002929688 884.001953125 234.002929688 c 1
 850.668945312 162.002929688 805.668945312 105.002929688 749.001953125 63.0029296875 c 0
 692.334960938 21.0029296875 633.334960938 0.0029296875 572.001953125 0.0029296875 c 0
 478.668945312 0.0029296875 399.001953125 35.669921875 333.001953125 107.002929688 c 0
 267.001953125 178.3359375 234.001953125 264.002929688 234.001953125 364.002929688 c 0
 234.001953125 413.3359375 247.668945312 465.3359375 275.001953125 520.002929688 c 0
 302.334960938 574.669921875 340.66796875 626.669921875 390.000976562 676.002929688 c 0
 439.333984375 725.3359375 477.666992188 772.668945312 505 818.001953125 c 0
 532.333007812 863.334960938 546 902.66796875 546 936.000976562 c 0
 546 965.333984375 536 990.000976562 516 1010.00097656 c 0
 496 1030.00097656 471.333007812 1040.00097656 442 1040.00097656 c 0
 412.666992188 1040.00097656 388 1030.00097656 368 1010.00097656 c 0
 348 990.000976562 338 965.333984375 338 936.000976562 c 0
 338 912.000976562 340.333007812 891.333984375 345 874.000976562 c 0
 349.666992188 856.66796875 356 842.66796875 364 832.000976562 c 1
 234 780.000976562 l 1
 214 800.000976562 198.333007812 823.66796875 187 851.000976562 c 0
 175.666992188 878.333984375 170 906.666992188 170 936 c 1
 170 936 l 1
EndSplineSet
EndChar

StartChar: uni091A
Encoding: 2330 2330 66
Width: 1516
GlyphClass: 2
Flags: W
LayerCount: 2
Fore
SplineSet
1022 806 m 1
 1178.00097656 806.001953125 l 1
 1178.00097656 1014.00195312 l 1
 1022.00097656 1014.00195312 l 1
 1022.00097656 1170.00195312 l 1
 1268.00097656 1170.00195312 l 2
 1300.00097656 1170.00195312 1327.66796875 1182.66894531 1351.00097656 1208.00195312 c 0
 1374.33398438 1233.33496094 1386.00097656 1264.00195312 1386.00097656 1300.00195312 c 0
 1386.00097656 1330.66894531 1377.00097656 1361.66894531 1359.00097656 1393.00195312 c 0
 1341.00097656 1424.33496094 1315.33398438 1454.00195312 1282.00097656 1482.00195312 c 1
 1386.00097656 1586.00195312 l 1
 1435.33398438 1551.33496094 1473.66699219 1506.66796875 1501 1452.00097656 c 0
 1528.33300781 1397.33398438 1542 1338.00097656 1542 1274.00097656 c 0
 1542 1210.00097656 1522.33300781 1153.33398438 1483 1104.00097656 c 0
 1443.66699219 1054.66796875 1394 1024.66796875 1334 1014.00097656 c 1
 1334 806.000976562 l 1
 1568 806.000976562 l 1
 1568 650.000976562 l 1
 1464 650.000976562 l 1
 1497.33300781 622.000976562 1523 585.333984375 1541 540.000976562 c 0
 1559 494.66796875 1568 444.66796875 1568 390.000976562 c 0
 1568 282.000976562 1532.33300781 190.000976562 1461 114.000976562 c 0
 1389.66699219 38.0009765625 1304 0.0009765625 1204 0.0009765625 c 0
 1142.66699219 0.0009765625 1083.66699219 21.0009765625 1027 63.0009765625 c 0
 970.333007812 105.000976562 925.333007812 162.000976562 892 234.000976562 c 1
 858.666992188 162.000976562 813.666992188 105.000976562 757 63.0009765625 c 0
 700.333007812 21.0009765625 641.333007812 0.0009765625 580 0.0009765625 c 0
 486.666992188 0.0009765625 407 35.66796875 341 107.000976562 c 0
 275 178.333984375 242 264.000976562 242 364.000976562 c 0
 242 422.66796875 256.666992188 482.66796875 286 544.000976562 c 0
 315.333007812 605.333984375 356.666015625 662.666992188 409.999023438 716 c 0
 451.33203125 757.333007812 483.33203125 797 505.999023438 835 c 0
 528.666015625 873 539.999023438 906.666992188 539.999023438 936 c 0
 539.999023438 965.333007812 529.999023438 990 509.999023438 1010 c 0
 489.999023438 1030 465.33203125 1040 435.999023438 1040 c 0
 410.666015625 1040 389.333007812 1030 372 1010 c 0
 354.666992188 990 346 965.333007812 346 936 c 0
 346 924 349.333007812 909 356 891 c 0
 362.666992188 873 372 853.333007812 384 832 c 1
 228 780 l 1
 206.666992188 804 190.666992188 829.666992188 180 857 c 0
 169.333007812 884.333007812 164 910.666015625 164 935.999023438 c 0
 164 1011.99902344 190.666992188 1076.66601562 244 1129.99902344 c 0
 297.333007812 1183.33203125 361.333007812 1209.99902344 436 1209.99902344 c 0
 514.666992188 1209.99902344 582 1183.33203125 638 1129.99902344 c 0
 694 1076.66601562 722 1011.99902344 722 935.999023438 c 0
 722 899.999023438 708.666992188 856.33203125 682 804.999023438 c 0
 655.333007812 753.666015625 616.666015625 697.999023438 565.999023438 637.999023438 c 0
 520.666015625 583.33203125 485.666015625 532.33203125 460.999023438 484.999023438 c 0
 436.33203125 437.666015625 423.999023438 397.333007812 423.999023438 364 c 0
 423.999023438 313.333007812 439.33203125 270.333007812 469.999023438 235 c 0
 500.666015625 199.666992188 537.333007812 182 580 182 c 0
 644 182 699 210 745 266 c 0
 791 322 814 389.333007812 814 468 c 1
 970 468 l 1
 970 389.333007812 993 322 1039 266 c 0
 1085 210 1140 182 1204 182 c 0
 1254.66699219 182 1297.66699219 205 1333 251 c 0
 1368.33300781 297 1386 352 1386 416 c 0
 1386 480 1367 535 1329 581 c 0
 1291 627 1244.66699219 650 1190 650 c 2
 1022 650 l 1
 1022 806 l 1
 1022 806 l 1
EndSplineSet
EndChar

StartChar: uni091B
Encoding: 2331 2331 67
Width: 1480
GlyphClass: 2
Flags: W
LayerCount: 2
Fore
SplineSet
478 936 m 1
 478 904 487 876.666992188 505 854 c 0
 523 831.333007812 544.666992188 820 570 820 c 0
 595.333007812 820 616.666015625 831.333007812 633.999023438 854 c 0
 651.33203125 876.666992188 659.999023438 904 659.999023438 936 c 0
 659.999023438 968 651.33203125 995.666992188 633.999023438 1019 c 0
 616.666015625 1042.33300781 595.333007812 1054 570 1054 c 0
 544.666992188 1054 523 1042.33300781 505 1019 c 0
 487 995.666992188 478 968 478 936 c 1
 478 936 l 1
778 -364 m 1
 778 -286 l 1
 830 52 l 1
 934 52 l 1
 986 -286 l 1
 986 -364 l 1
 778 -364 l 1
 778 -364 l 1
1168 182 m 1
 1218.66699219 182 1261.66894531 222.666992188 1297.00195312 304 c 0
 1332.33496094 385.333007812 1350.00195312 483.333007812 1350.00195312 598 c 0
 1350.00195312 712.666992188 1320.66894531 810.666992188 1262.00195312 892 c 0
 1203.33496094 973.333007812 1132.66796875 1014 1050.00097656 1014 c 1
 1050.00097656 1170 l 1
 1246.00097656 1170 l 2
 1282.00097656 1170 1312.66796875 1182.66699219 1338.00097656 1208 c 0
 1363.33398438 1233.33300781 1376.00097656 1264 1376.00097656 1300 c 0
 1376.00097656 1330.66699219 1367.00097656 1361.66699219 1349.00097656 1393 c 0
 1331.00097656 1424.33300781 1305.33398438 1454 1272.00097656 1482 c 1
 1376.00097656 1586 l 1
 1424.00097656 1558 1462.00097656 1518.33300781 1490.00097656 1467 c 0
 1518.00097656 1415.66699219 1532.00097656 1360 1532.00097656 1300 c 0
 1532.00097656 1234.66699219 1518.00097656 1176.33398438 1490.00097656 1125.00097656 c 0
 1462.00097656 1073.66796875 1424.00097656 1036.66796875 1376.00097656 1014.00097656 c 1
 1425.33398438 972.66796875 1463.66699219 915.66796875 1491 843.000976562 c 0
 1518.33300781 770.333984375 1532 688.666992188 1532 598 c 0
 1532 432.666992188 1496.33300781 291.666992188 1425 175 c 0
 1353.66699219 58.3330078125 1268 0 1168 0 c 0
 1108 -0 1051.66699219 21.3330078125 999 64 c 0
 946.333007812 106.666992188 907.333007812 163.333984375 882 234.000976562 c 1
 856.666992188 163.333984375 817.666992188 106.666992188 765 64 c 0
 712.333007812 21.3330078125 656 0 596 0 c 0
 496 0 410.333007812 54.6669921875 339 164 c 0
 267.666992188 273.333007812 232 405.333007812 232 560 c 0
 232 752 265 906 331 1022 c 0
 397 1138 485.333007812 1196 596 1196 c 0
 660 1196 715 1170.66699219 761 1120 c 0
 807 1069.33300781 830 1008 830 936 c 0
 830 864 804.666992188 802.666992188 754 752 c 0
 703.333007812 701.333007812 642 676 570 676 c 0
 544.666992188 676 520.666992188 680.666992188 498 690 c 0
 475.333007812 699.333007812 456 712 440 728 c 1
 432 704 425.666992188 678 421 650 c 0
 416.333007812 622 414 592 414 560 c 0
 414 456 431.666992188 367 467 293 c 0
 502.333007812 219 545.333007812 182 596 182 c 0
 653.333007812 182 702.333007812 210 743 266 c 0
 783.666992188 322 804 389.333007812 804 468 c 1
 960 468 l 1
 960 389.333007812 980.333007812 322 1021 266 c 0
 1061.66699219 210 1110.66699219 182 1168 182 c 1
 1168 182 l 1
EndSplineSet
EndChar

StartChar: uni091C
Encoding: 2332 2332 68
Width: 1502
GlyphClass: 2
Flags: W
LayerCount: 2
Fore
SplineSet
710 910 m 1
 710 850 697.328125 792.6640625 671.995117188 737.997070312 c 0
 646.662109375 683.330078125 611.329101562 636.663085938 565.99609375 597.99609375 c 0
 520.663085938 560.663085938 485.663085938 521.330078125 460.99609375 479.997070312 c 0
 436.329101562 438.6640625 423.99609375 399.997070312 423.99609375 363.997070312 c 0
 423.99609375 313.330078125 439.329101562 270.330078125 469.99609375 234.997070312 c 0
 500.663085938 199.6640625 537.330078125 181.997070312 579.997070312 181.997070312 c 0
 643.997070312 181.997070312 698.997070312 209.997070312 744.997070312 265.997070312 c 0
 790.997070312 321.997070312 813.997070312 389.330078125 813.997070312 467.997070312 c 1
 969.997070312 467.997070312 l 1
 969.997070312 389.330078125 993.997070312 321.997070312 1041.99707031 265.997070312 c 0
 1089.99707031 209.997070312 1147.99707031 181.997070312 1215.99707031 181.997070312 c 0
 1262.6640625 181.997070312 1302.6640625 200.997070312 1335.99707031 238.997070312 c 0
 1369.33007812 276.997070312 1385.99707031 323.330078125 1385.99707031 377.997070312 c 0
 1385.99707031 420.6640625 1375.33007812 459.331054688 1353.99707031 493.998046875 c 0
 1332.6640625 528.665039062 1303.99707031 554.665039062 1267.99707031 571.998046875 c 1
 1371.99707031 689.998046875 l 1
 1427.99707031 657.998046875 1472.33007812 613.998046875 1504.99707031 557.998046875 c 0
 1537.6640625 501.998046875 1553.99707031 441.998046875 1553.99707031 377.998046875 c 0
 1553.99707031 273.998046875 1519.6640625 184.998046875 1450.99707031 110.998046875 c 0
 1382.33007812 36.998046875 1299.99707031 -0.001953125 1203.99707031 -0.001953125 c 0
 1134.6640625 -0.001953125 1071.33105469 20.3310546875 1013.99804688 60.998046875 c 0
 956.665039062 101.665039062 915.998046875 155.33203125 891.998046875 221.999023438 c 1
 867.998046875 155.33203125 827.331054688 101.665039062 769.998046875 60.998046875 c 0
 712.665039062 20.3310546875 649.33203125 -0.001953125 579.999023438 -0.001953125 c 0
 486.666015625 -0.001953125 406.999023438 35.6650390625 340.999023438 106.998046875 c 0
 274.999023438 178.331054688 241.999023438 263.998046875 241.999023438 363.998046875 c 0
 241.999023438 418.665039062 256.666015625 472.998046875 285.999023438 526.998046875 c 0
 315.33203125 580.998046875 356.665039062 630.665039062 409.998046875 675.998046875 c 0
 451.331054688 710.665039062 483.331054688 750.665039062 505.998046875 795.998046875 c 0
 528.665039062 841.331054688 539.998046875 887.998046875 539.998046875 935.998046875 c 0
 539.998046875 965.331054688 531.331054688 989.998046875 513.998046875 1009.99804688 c 0
 496.665039062 1029.99804688 475.33203125 1039.99804688 449.999023438 1039.99804688 c 0
 420.666015625 1039.99804688 395.999023438 1029.99804688 375.999023438 1009.99804688 c 0
 355.999023438 989.998046875 345.999023438 965.331054688 345.999023438 935.998046875 c 0
 345.999023438 917.331054688 349.33203125 898.998046875 355.999023438 880.998046875 c 0
 362.666015625 862.998046875 371.999023438 846.665039062 383.999023438 831.998046875 c 1
 241.999023438 753.998046875 l 1
 216.666015625 784.665039062 197.333007812 815.33203125 184 845.999023438 c 0
 170.666992188 876.666015625 164 906.666015625 164 935.999023438 c 0
 164 1011.99902344 192 1076.66601562 248 1129.99902344 c 0
 304 1183.33203125 371.333007812 1209.99902344 450 1209.99902344 c 0
 495.333007812 1209.99902344 536.333007812 1201.99902344 573 1185.99902344 c 0
 609.666992188 1169.99902344 638 1147.33203125 658 1117.99902344 c 1
 738 1051.33203125 816 999.999023438 892 963.999023438 c 0
 968 927.999023438 1037.33300781 909.999023438 1100 909.999023438 c 0
 1165.33300781 909.999023438 1226.66601562 933.666015625 1283.99902344 980.999023438 c 0
 1341.33203125 1028.33203125 1383.99902344 1091.33203125 1411.99902344 1169.99902344 c 1
 1541.99902344 1079.99902344 l 1
 1504.66601562 978.666015625 1445.66601562 896.999023438 1364.99902344 834.999023438 c 0
 1284.33203125 772.999023438 1195.99902344 741.999023438 1099.99902344 741.999023438 c 0
 1038.66601562 741.999023438 974.333007812 756.33203125 907 784.999023438 c 0
 839.666992188 813.666015625 774 855.333007812 710 910 c 1
 710 910 l 1
EndSplineSet
EndChar

StartChar: uni091D
Encoding: 2333 2333 69
Width: 3082
GlyphClass: 2
Flags: W
LayerCount: 2
Fore
SplineSet
380 598 m 1
 380 483.333007812 418 385.333007812 494 304 c 0
 570 222.666992188 662 182 770 182 c 0
 878 182 970 222.666992188 1046 304 c 0
 1122 385.333007812 1160 483.333007812 1160 598 c 0
 1160 712.666992188 1122 810.666992188 1046 892 c 0
 970 973.333007812 878 1014 770 1014 c 0
 662 1014 570 973.333007812 494 892 c 0
 418 810.666992188 380 712.666992188 380 598 c 1
 380 598 l 1
392 1014 m 1
 197.998046875 1014 l 1
 197.998046875 1170 l 1
 1133.99804688 1170 l 2
 1169.99804688 1170 1200.66503906 1182.66699219 1225.99804688 1208 c 0
 1251.33105469 1233.33300781 1263.99804688 1264 1263.99804688 1300 c 0
 1263.99804688 1333.33300781 1255.99804688 1366 1239.99804688 1398 c 0
 1223.99804688 1430 1201.33105469 1458 1171.99804688 1482 c 1
 1263.99804688 1586 l 1
 1311.99804688 1558 1349.99804688 1518.33300781 1377.99804688 1467 c 0
 1405.99804688 1415.66699219 1419.99804688 1360 1419.99804688 1300 c 0
 1419.99804688 1221.33300781 1393.33105469 1154 1339.99804688 1098 c 0
 1286.66503906 1042 1221.99804688 1014 1145.99804688 1014 c 1
 1208.66503906 962 1256.99804688 899.666992188 1290.99804688 827 c 0
 1324.99804688 754.333007812 1341.99804688 678 1341.99804688 598 c 0
 1341.99804688 568.666992188 1339.66503906 538.666992188 1334.99804688 508 c 0
 1330.33105469 477.333007812 1323.33105469 446.666015625 1313.99804688 415.999023438 c 1
 1355.33105469 343.999023438 1406.99804688 286.999023438 1468.99804688 244.999023438 c 0
 1530.99804688 202.999023438 1593.99804688 181.999023438 1657.99804688 181.999023438 c 0
 1757.99804688 181.999023438 1843.66503906 221.33203125 1914.99804688 299.999023438 c 0
 1986.33105469 378.666015625 2021.99804688 473.999023438 2021.99804688 585.999023438 c 0
 2021.99804688 704.666015625 1986.33105469 805.666015625 1914.99804688 888.999023438 c 0
 1843.66503906 972.33203125 1757.99804688 1013.99902344 1657.99804688 1013.99902344 c 1
 1671.99804688 1169.99902344 l 1
 1818.66503906 1169.99902344 1943.99804688 1112.99902344 2047.99804688 998.999023438 c 0
 2151.99804688 884.999023438 2203.99804688 747.33203125 2203.99804688 585.999023438 c 1
 2199.99804688 499.999023438 l 1
 2239.99804688 395.999023438 2295.33105469 312.666015625 2365.99804688 249.999023438 c 0
 2436.66503906 187.33203125 2510.66503906 155.999023438 2587.99804688 155.999023438 c 0
 2687.99804688 155.999023438 2773.66503906 197.999023438 2844.99804688 281.999023438 c 0
 2916.33105469 365.999023438 2951.99804688 467.33203125 2951.99804688 585.999023438 c 0
 2951.99804688 704.666015625 2916.33105469 805.666015625 2844.99804688 888.999023438 c 0
 2773.66503906 972.33203125 2687.99804688 1013.99902344 2587.99804688 1013.99902344 c 1
 2599.99804688 1169.99902344 l 1
 2747.99804688 1169.99902344 2873.99804688 1112.99902344 2977.99804688 998.999023438 c 0
 3081.99804688 884.999023438 3133.99804688 747.33203125 3133.99804688 585.999023438 c 0
 3133.99804688 424.666015625 3080.66503906 286.666015625 2973.99804688 171.999023438 c 0
 2867.33105469 57.33203125 2738.6640625 -0.0009765625 2587.99707031 -0.0009765625 c 0
 2487.99707031 -0.0009765625 2396.33007812 27.33203125 2312.99707031 81.9990234375 c 0
 2229.6640625 136.666015625 2169.99707031 209.333007812 2133.99707031 300 c 1
 2084.6640625 208 2017.33105469 135 1931.99804688 81 c 0
 1846.66503906 27 1755.33203125 0 1657.99902344 0 c 0
 1579.33203125 -0 1502.99902344 23.3330078125 1428.99902344 70 c 0
 1354.99902344 116.666992188 1292.66601562 180.666992188 1241.99902344 262 c 1
 1188.66601562 180.666992188 1120.33300781 116.666992188 1037 70 c 0
 953.666992188 23.3330078125 864.666992188 0 770 0 c 0
 612.666992188 -0 478 58.3330078125 366 175 c 0
 254 291.666992188 198 432.666992188 198 598 c 0
 198 678 215 754.333007812 249 827 c 0
 283 899.666992188 330.666992188 962 392 1014 c 1
 392 1014 l 1
2021.99804688 -364 m 1
 2021.99804688 -286 l 1
 2073.99804688 78 l 1
 2177.99804688 78 l 1
 2229.99804688 -286 l 1
 2229.99804688 -364 l 1
 2021.99804688 -364 l 1
 2021.99804688 -364 l 1
EndSplineSet
EndChar

StartChar: uni091E
Encoding: 2334 2334 70
Width: 2000
GlyphClass: 2
Flags: W
LayerCount: 2
Fore
SplineSet
546 260 m 1
 546 238.666992188 566.334960938 220.333984375 607.001953125 205.000976562 c 0
 647.668945312 189.66796875 696.668945312 182.000976562 754.001953125 182.000976562 c 0
 811.334960938 182.000976562 864.334960938 188.66796875 913.001953125 202.000976562 c 0
 961.668945312 215.333984375 1004.00195312 234.666992188 1040.00195312 260 c 1
 981.334960938 294.666992188 927.66796875 320.666992188 879.000976562 338 c 0
 830.333984375 355.333007812 788.666992188 364 754 364 c 0
 696.666992188 364 647.666992188 354 607 334 c 0
 566.333007812 314 546 289.333007812 546 260 c 1
 546 260 l 1
104.001953125 858 m 1
 104.001953125 951.333007812 139.66796875 1030.99804688 211.000976562 1096.99804688 c 0
 282.333984375 1162.99804688 368.000976562 1195.99804688 468.000976562 1195.99804688 c 0
 533.333984375 1195.99804688 591.666992188 1181.99804688 643 1153.99804688 c 0
 694.333007812 1125.99804688 731.333007812 1087.99804688 754 1039.99804688 c 1
 776.666992188 1087.99804688 812.666992188 1125.99804688 862 1153.99804688 c 0
 911.333007812 1181.99804688 966.666015625 1195.99804688 1027.99902344 1195.99804688 c 0
 1106.66601562 1195.99804688 1176.33300781 1176.66503906 1237 1137.99804688 c 0
 1297.66699219 1099.33105469 1336 1049.33105469 1352 987.998046875 c 1
 1368 1049.33105469 1405 1099.33105469 1463 1137.99804688 c 0
 1521 1176.66503906 1588 1195.99804688 1664 1195.99804688 c 0
 1757.33300781 1195.99804688 1837 1162.99804688 1903 1096.99804688 c 0
 1969 1030.99804688 2002 951.331054688 2002 857.998046875 c 0
 2002 809.998046875 1990.66699219 763.331054688 1968 717.998046875 c 0
 1945.33300781 672.665039062 1913.33300781 632.665039062 1872 597.998046875 c 1
 1742 701.998046875 l 1
 1766 719.331054688 1785 741.6640625 1799 768.997070312 c 0
 1813 796.330078125 1820 825.997070312 1820 857.997070312 c 0
 1820 908.6640625 1804.66699219 951.6640625 1774 986.997070312 c 0
 1743.33300781 1022.33007812 1706.66601562 1039.99707031 1663.99902344 1039.99707031 c 0
 1599.99902344 1039.99707031 1544.99902344 1009.6640625 1498.99902344 948.997070312 c 0
 1452.99902344 888.330078125 1429.99902344 814.663085938 1429.99902344 727.99609375 c 0
 1429.99902344 627.99609375 1416.33203125 537.329101562 1388.99902344 455.99609375 c 0
 1361.66601562 374.663085938 1323.33300781 309.330078125 1274 259.997070312 c 1
 1315.33300781 225.330078125 1347.33300781 173.997070312 1370 105.997070312 c 0
 1392.66699219 37.9970703125 1404 -40.669921875 1404 -130.002929688 c 1
 1222 -130.002929688 l 1
 1222 -67.3359375 1215.33300781 -11.6689453125 1202 36.998046875 c 0
 1188.66699219 85.6650390625 1169.33398438 125.33203125 1144.00097656 155.999023438 c 1
 1094.66796875 106.666015625 1036.00097656 68.3330078125 968.000976562 41 c 0
 900.000976562 13.6669921875 828.66796875 0 754.000976562 0 c 0
 646.000976562 -0 554.000976562 25.3330078125 478.000976562 76 c 0
 402.000976562 126.666992188 364.000976562 188 364.000976562 260 c 0
 364.000976562 332 402.000976562 393.333007812 478.000976562 444 c 0
 554.000976562 494.666992188 646.000976562 520 754.000976562 520 c 0
 830.000976562 520 901.333984375 508.666992188 968.000976562 486 c 0
 1034.66796875 463.333007812 1093.33496094 431.333007812 1144.00195312 390 c 1
 1178.66894531 448.666992188 1204.66894531 506.666992188 1222.00195312 564 c 0
 1239.33496094 621.333007812 1248.00195312 676 1248.00195312 728 c 0
 1248.00195312 814.666992188 1226.66894531 888.333984375 1184.00195312 949.000976562 c 0
 1141.33496094 1009.66796875 1089.33496094 1040.00097656 1028.00195312 1040.00097656 c 0
 973.334960938 1040.00097656 927.001953125 1017.00097656 889.001953125 971.000976562 c 0
 851.001953125 925.000976562 832.001953125 870.000976562 832.001953125 806.000976562 c 2
 832.001953125 702.000976562 l 1
 676.001953125 702.000976562 l 1
 676.001953125 806.000976562 l 2
 676.001953125 870.000976562 655.668945312 925.000976562 615.001953125 971.000976562 c 0
 574.334960938 1017.00097656 525.334960938 1040.00097656 468.001953125 1040.00097656 c 0
 417.334960938 1040.00097656 374.334960938 1022.33398438 339.001953125 987.000976562 c 0
 303.668945312 951.66796875 286.001953125 908.66796875 286.001953125 858.000976562 c 0
 286.001953125 826.000976562 293.001953125 796.333984375 307.001953125 769.000976562 c 0
 321.001953125 741.66796875 340.001953125 719.334960938 364.001953125 702.001953125 c 1
 234.001953125 598.001953125 l 1
 192.668945312 639.334960938 160.668945312 682.66796875 138.001953125 728.000976562 c 0
 115.334960938 773.333984375 104.001953125 816.666992188 104.001953125 858 c 1
 104.001953125 858 l 1
EndSplineSet
EndChar

StartChar: uni091F
Encoding: 2335 2335 71
Width: 1622
GlyphClass: 2
Flags: W
LayerCount: 2
Fore
SplineSet
466 780 m 1
 466 750.666992188 474.666992188 726 492 706 c 0
 509.333007812 686 530.666015625 676 555.999023438 676 c 0
 585.33203125 676 609.999023438 686 629.999023438 706 c 0
 649.999023438 726 659.999023438 750.666992188 659.999023438 780 c 0
 659.999023438 809.333007812 649.999023438 834 629.999023438 854 c 0
 609.999023438 874 585.33203125 884 555.999023438 884 c 0
 530.666015625 884 509.333007812 874 492 854 c 0
 474.666992188 834 466 809.333007812 466 780 c 1
 466 780 l 1
218 494 m 1
 218 615.333007812 236.669921875 720.672851562 274.002929688 810.005859375 c 0
 311.3359375 899.338867188 362.002929688 958.671875 426.002929688 988.004882812 c 1
 390.002929688 1009.33789062 361.669921875 1040.67089844 341.002929688 1082.00390625 c 0
 320.3359375 1123.33691406 310.002929688 1170.00390625 310.002929688 1222.00390625 c 0
 310.002929688 1262.00390625 319.002929688 1303.33691406 337.002929688 1346.00390625 c 0
 355.002929688 1388.67089844 380.669921875 1430.00390625 414.002929688 1470.00390625 c 1
 556.002929688 1378.00390625 l 1
 532.002929688 1360.67089844 513.002929688 1338.33789062 499.002929688 1311.00488281 c 0
 485.002929688 1283.671875 478.002929688 1254.00488281 478.002929688 1222.00488281 c 0
 478.002929688 1180.671875 487.3359375 1143.671875 506.002929688 1111.00488281 c 0
 524.669921875 1078.33789062 550.002929688 1054.67089844 582.002929688 1040.00390625 c 1
 646.002929688 1040.00390625 701.002929688 1014.67089844 747.002929688 964.00390625 c 0
 793.002929688 913.336914062 816.002929688 852.00390625 816.002929688 780.00390625 c 0
 816.002929688 708.00390625 790.669921875 646.670898438 740.002929688 596.00390625 c 0
 689.3359375 545.336914062 628.002929688 520.00390625 556.002929688 520.00390625 c 0
 528.002929688 520.00390625 501.669921875 525.670898438 477.002929688 537.00390625 c 0
 452.3359375 548.336914062 431.3359375 564.669921875 414.002929688 586.002929688 c 1
 400.002929688 494.002929688 l 1
 400.002929688 407.3359375 420.3359375 333.668945312 461.002929688 273.001953125 c 0
 501.669921875 212.334960938 550.669921875 182.001953125 608.002929688 182.001953125 c 0
 672.002929688 182.001953125 727.002929688 210.001953125 773.002929688 266.001953125 c 0
 819.002929688 322.001953125 842.002929688 389.334960938 842.002929688 468.001953125 c 1
 998.002929688 468.001953125 l 1
 998.002929688 389.334960938 1023.3359375 322.001953125 1074.00292969 266.001953125 c 0
 1124.66992188 210.001953125 1186.00292969 182.001953125 1258.00292969 182.001953125 c 0
 1322.00292969 182.001953125 1377.00292969 205.001953125 1423.00292969 251.001953125 c 0
 1469.00292969 297.001953125 1492.00292969 352.001953125 1492.00292969 416.001953125 c 0
 1492.00292969 488.001953125 1470.66992188 549.334960938 1428.00292969 600.001953125 c 0
 1385.3359375 650.668945312 1333.3359375 676.001953125 1272.00292969 676.001953125 c 2
 1180.00292969 676.001953125 l 1
 1180.00292969 832.001953125 l 1
 1284.00292969 832.001953125 l 2
 1341.3359375 832.001953125 1390.3359375 849.668945312 1431.00292969 885.001953125 c 0
 1471.66992188 920.334960938 1492.00292969 963.334960938 1492.00292969 1014.00195312 c 0
 1492.00292969 1047.33496094 1477.66992188 1078.66796875 1449.00292969 1108.00097656 c 0
 1420.3359375 1137.33398438 1382.66894531 1158.00097656 1336.00195312 1170.00097656 c 1
 1388.00195312 1326.00097656 l 1
 1470.66894531 1311.33398438 1539.00195312 1274.66699219 1593.00195312 1216 c 0
 1647.00195312 1157.33300781 1674.00195312 1090 1674.00195312 1014 c 0
 1674.00195312 950 1659.66894531 893 1631.00195312 843 c 0
 1602.33496094 793 1564.66796875 759.333007812 1518.00097656 742 c 1
 1566.00097656 714 1604.00097656 671 1632.00097656 613 c 0
 1660.00097656 555 1674.00097656 489.333007812 1674.00097656 416 c 0
 1674.00097656 301.333007812 1633.33398438 203.333007812 1552.00097656 122 c 0
 1470.66796875 40.6669921875 1372.66796875 0 1258.00097656 0 c 0
 1176.66796875 0 1104.66796875 21.6669921875 1042.00097656 65 c 0
 979.333984375 108.333007812 938.666992188 164.666015625 920 233.999023438 c 1
 901.333007812 164.666015625 863 108.333007812 805 65 c 0
 747 21.6669921875 681.333007812 0 608 0 c 0
 500 -0 408 48.3330078125 332 145 c 0
 256 241.666992188 218 358 218 494 c 1
 218 494 l 1
EndSplineSet
EndChar

StartChar: uni0920
Encoding: 2336 2336 72
Width: 1290
GlyphClass: 2
Flags: W
LayerCount: 2
Fore
SplineSet
380 598 m 1
 380 483.333007812 418 385.333007812 494 304 c 0
 570 222.666992188 662 182 770 182 c 0
 878 182 970 222.666992188 1046 304 c 0
 1122 385.333007812 1160 483.333007812 1160 598 c 0
 1160 712.666992188 1122 810.666992188 1046 892 c 0
 970 973.333007812 878 1014 770 1014 c 0
 662 1014 570 973.333007812 494 892 c 0
 418 810.666992188 380 712.666992188 380 598 c 1
 380 598 l 1
392 1014 m 1
 198 1014 l 1
 198 1170 l 1
 1134 1170 l 2
 1170 1170 1200.66699219 1182.66699219 1226 1208 c 0
 1251.33300781 1233.33300781 1264 1264 1264 1300 c 0
 1264 1333.33300781 1256 1366 1240 1398 c 0
 1224 1430 1201.33300781 1458 1172 1482 c 1
 1264 1586 l 1
 1312 1558 1350 1518.33300781 1378 1467 c 0
 1406 1415.66699219 1420 1360 1420 1300 c 0
 1420 1221.33300781 1393.33300781 1154 1340 1098 c 0
 1286.66699219 1042 1222 1014 1146 1014 c 1
 1208.66699219 962 1257 899.666992188 1291 827 c 0
 1325 754.333007812 1342 678 1342 598 c 0
 1342 432.666992188 1286 291.666992188 1174 175 c 0
 1062 58.3330078125 927.333007812 0 770 0 c 0
 612.666992188 -0 478 58.3330078125 366 175 c 0
 254 291.666992188 198 432.666992188 198 598 c 0
 198 678 215 754.333007812 249 827 c 0
 283 899.666992188 330.666992188 962 392 1014 c 1
 392 1014 l 1
660 468 m 1
 660 676 l 1
 868 676 l 1
 868 468 l 1
 660 468 l 1
 660 468 l 1
EndSplineSet
EndChar

StartChar: uni0921
Encoding: 2337 2337 73
Width: 1482
GlyphClass: 2
Flags: W
LayerCount: 2
Fore
SplineSet
854 676 m 1
 854 654.666992188 864 636.333984375 884 621.000976562 c 0
 904 605.66796875 928.666992188 598.000976562 958 598.000976562 c 0
 978 598.000976562 1001.33300781 604.66796875 1028 618.000976562 c 0
 1054.66699219 631.333984375 1083.33398438 650.666992188 1114.00097656 676 c 1
 1083.33398438 701.333007812 1054.66699219 720.666015625 1028 733.999023438 c 0
 1001.33300781 747.33203125 978 753.999023438 958 753.999023438 c 0
 928.666992188 753.999023438 904 746.33203125 884 730.999023438 c 0
 864 715.666015625 854 697.333007812 854 676 c 1
 854 676 l 1
230 468 m 1
 230 389.333007812 248.999023438 321.998046875 286.999023438 265.998046875 c 0
 324.999023438 209.998046875 371.33203125 181.998046875 425.999023438 181.998046875 c 0
 479.33203125 181.998046875 524.999023438 209.998046875 562.999023438 265.998046875 c 0
 600.999023438 321.998046875 619.999023438 389.331054688 619.999023438 467.998046875 c 1
 775.999023438 467.998046875 l 1
 775.999023438 389.331054688 798.999023438 321.998046875 844.999023438 265.998046875 c 0
 890.999023438 209.998046875 945.999023438 181.998046875 1009.99902344 181.998046875 c 0
 1060.66601562 181.998046875 1103.66601562 202.331054688 1138.99902344 242.998046875 c 0
 1174.33203125 283.665039062 1191.99902344 332.665039062 1191.99902344 389.998046875 c 0
 1191.99902344 427.331054688 1189.66601562 460.331054688 1184.99902344 488.998046875 c 0
 1180.33203125 517.665039062 1173.99902344 541.33203125 1165.99902344 559.999023438 c 1
 1140.66601562 538.666015625 1109.99902344 522.333007812 1073.99902344 511 c 0
 1037.99902344 499.666992188 999.33203125 494 957.999023438 494 c 0
 900.666015625 494 851.666015625 511.666992188 810.999023438 547 c 0
 770.33203125 582.333007812 749.999023438 625.333007812 749.999023438 676 c 0
 749.999023438 726.666992188 770.33203125 769.666992188 810.999023438 805 c 0
 851.666015625 840.333007812 900.666015625 858 957.999023438 858 c 0
 995.33203125 858 1031.66503906 851.333007812 1066.99804688 838 c 0
 1102.33105469 824.666992188 1135.33105469 805.333984375 1165.99804688 780.000976562 c 1
 1165.99804688 844.000976562 1120.33105469 899.000976562 1028.99804688 945.000976562 c 0
 937.665039062 991.000976562 827.33203125 1014.00097656 697.999023438 1014.00097656 c 0
 568.666015625 1014.00097656 458.333007812 960.66796875 367 854.000976562 c 0
 275.666992188 747.333984375 230 618.666992188 230 468 c 1
 230 468 l 1
1165.99902344 1013.99804688 m 1
 1207.33203125 979.331054688 1239.33203125 939.331054688 1261.99902344 893.998046875 c 0
 1284.66601562 848.665039062 1295.99902344 801.998046875 1295.99902344 753.998046875 c 0
 1295.99902344 739.331054688 1293.66601562 725.331054688 1288.99902344 711.998046875 c 0
 1284.33203125 698.665039062 1277.99902344 686.665039062 1269.99902344 675.998046875 c 1
 1303.33203125 635.998046875 1328.99902344 591.331054688 1346.99902344 541.998046875 c 0
 1364.99902344 492.665039062 1373.99902344 441.998046875 1373.99902344 389.998046875 c 0
 1373.99902344 281.998046875 1338.33203125 189.998046875 1266.99902344 113.998046875 c 0
 1195.66601562 37.998046875 1109.99902344 -0.001953125 1009.99902344 -0.001953125 c 0
 948.666015625 -0.001953125 889.666015625 20.998046875 832.999023438 62.998046875 c 0
 776.33203125 104.998046875 731.33203125 161.998046875 697.999023438 233.998046875 c 1
 664.666015625 161.998046875 623.333007812 104.998046875 574 62.998046875 c 0
 524.666992188 20.998046875 475.333984375 -0.001953125 426.000976562 -0.001953125 c 0
 322.000976562 -0.001953125 233.000976562 45.6650390625 159.000976562 136.998046875 c 0
 85.0009765625 228.331054688 48.0009765625 338.6640625 48.0009765625 467.997070312 c 0
 48.0009765625 575.997070312 73.333984375 678.330078125 124.000976562 774.997070312 c 0
 174.66796875 871.6640625 244.66796875 951.331054688 334.000976562 1013.99804688 c 1
 48.0009765625 1013.99804688 l 1
 48.0009765625 1169.99804688 l 1
 1192.00097656 1169.99804688 l 2
 1228.00097656 1169.99804688 1258.66796875 1182.66503906 1284.00097656 1207.99804688 c 0
 1309.33398438 1233.33105469 1322.00097656 1263.99804688 1322.00097656 1299.99804688 c 0
 1322.00097656 1330.66503906 1313.00097656 1361.66503906 1295.00097656 1392.99804688 c 0
 1277.00097656 1424.33105469 1251.33398438 1453.99804688 1218.00097656 1481.99804688 c 1
 1322.00097656 1585.99804688 l 1
 1371.33398438 1544.66503906 1409.66699219 1498.99804688 1437 1448.99804688 c 0
 1464.33300781 1398.99804688 1478 1349.33105469 1478 1299.99804688 c 0
 1478 1221.33105469 1447.66699219 1153.99804688 1387 1097.99804688 c 0
 1326.33300781 1041.99804688 1252.66601562 1013.99804688 1165.99902344 1013.99804688 c 1
 1165.99902344 1013.99804688 l 1
EndSplineSet
EndChar

StartChar: uni0922
Encoding: 2338 2338 74
Width: 1482
GlyphClass: 2
Flags: W
LayerCount: 2
Fore
SplineSet
1014 676 m 1
 1014 654.666992188 1024 636.333984375 1044 621.000976562 c 0
 1064 605.66796875 1088.66699219 598.000976562 1118 598.000976562 c 0
 1138 598.000976562 1161.33300781 604.66796875 1188 618.000976562 c 0
 1214.66699219 631.333984375 1243.33398438 650.666992188 1274.00097656 676 c 1
 1243.33398438 701.333007812 1214.66699219 720.666015625 1188 733.999023438 c 0
 1161.33300781 747.33203125 1138 753.999023438 1118 753.999023438 c 0
 1088.66699219 753.999023438 1064 746.33203125 1044 730.999023438 c 0
 1024 715.666015625 1014 697.333007812 1014 676 c 1
 1014 676 l 1
390 468 m 1
 390 389.333007812 408.999023438 321.998046875 446.999023438 265.998046875 c 0
 484.999023438 209.998046875 531.33203125 181.998046875 585.999023438 181.998046875 c 0
 639.33203125 181.998046875 684.999023438 209.998046875 722.999023438 265.998046875 c 0
 760.999023438 321.998046875 779.999023438 389.331054688 779.999023438 467.998046875 c 1
 935.999023438 467.998046875 l 1
 935.999023438 389.331054688 958.999023438 321.998046875 1004.99902344 265.998046875 c 0
 1050.99902344 209.998046875 1105.99902344 181.998046875 1169.99902344 181.998046875 c 0
 1220.66601562 181.998046875 1263.66601562 202.331054688 1298.99902344 242.998046875 c 0
 1334.33203125 283.665039062 1351.99902344 332.665039062 1351.99902344 389.998046875 c 0
 1351.99902344 427.331054688 1349.66601562 460.331054688 1344.99902344 488.998046875 c 0
 1340.33203125 517.665039062 1333.99902344 541.33203125 1325.99902344 559.999023438 c 1
 1300.66601562 538.666015625 1269.99902344 522.333007812 1233.99902344 511 c 0
 1197.99902344 499.666992188 1159.33203125 494 1117.99902344 494 c 0
 1060.66601562 494 1011.66601562 511.666992188 970.999023438 547 c 0
 930.33203125 582.333007812 909.999023438 625.333007812 909.999023438 676 c 0
 909.999023438 726.666992188 930.33203125 769.666992188 970.999023438 805 c 0
 1011.66601562 840.333007812 1060.66601562 858 1117.99902344 858 c 0
 1155.33203125 858 1191.66503906 851.333007812 1226.99804688 838 c 0
 1262.33105469 824.666992188 1295.33105469 805.333984375 1325.99804688 780.000976562 c 1
 1325.99804688 844.000976562 1280.33105469 899.000976562 1188.99804688 945.000976562 c 0
 1097.66503906 991.000976562 987.33203125 1014.00097656 857.999023438 1014.00097656 c 0
 728.666015625 1014.00097656 618.333007812 960.66796875 527 854.000976562 c 0
 435.666992188 747.333984375 390 618.666992188 390 468 c 1
 390 468 l 1
1325.99902344 1013.99804688 m 1
 1367.33203125 979.331054688 1399.33203125 939.331054688 1421.99902344 893.998046875 c 0
 1444.66601562 848.665039062 1455.99902344 801.998046875 1455.99902344 753.998046875 c 0
 1455.99902344 739.331054688 1453.66601562 725.331054688 1448.99902344 711.998046875 c 0
 1444.33203125 698.665039062 1437.99902344 686.665039062 1429.99902344 675.998046875 c 1
 1463.33203125 635.998046875 1488.99902344 591.331054688 1506.99902344 541.998046875 c 0
 1524.99902344 492.665039062 1533.99902344 441.998046875 1533.99902344 389.998046875 c 0
 1533.99902344 281.998046875 1498.33203125 189.998046875 1426.99902344 113.998046875 c 0
 1355.66601562 37.998046875 1269.99902344 -0.001953125 1169.99902344 -0.001953125 c 0
 1108.66601562 -0.001953125 1049.66601562 20.998046875 992.999023438 62.998046875 c 0
 936.33203125 104.998046875 891.33203125 161.998046875 857.999023438 233.998046875 c 1
 824.666015625 161.998046875 783.333007812 104.998046875 734 62.998046875 c 0
 684.666992188 20.998046875 635.333984375 -0.001953125 586.000976562 -0.001953125 c 0
 482.000976562 -0.001953125 393.000976562 45.6650390625 319.000976562 136.998046875 c 0
 245.000976562 228.331054688 208.000976562 338.6640625 208.000976562 467.997070312 c 0
 208.000976562 575.997070312 233.333984375 678.330078125 284.000976562 774.997070312 c 0
 334.66796875 871.6640625 404.66796875 951.331054688 494.000976562 1013.99804688 c 1
 208.000976562 1013.99804688 l 1
 208.000976562 1169.99804688 l 1
 1352.00097656 1169.99804688 l 2
 1388.00097656 1169.99804688 1418.66796875 1182.66503906 1444.00097656 1207.99804688 c 0
 1469.33398438 1233.33105469 1482.00097656 1263.99804688 1482.00097656 1299.99804688 c 0
 1482.00097656 1330.66503906 1473.00097656 1361.66503906 1455.00097656 1392.99804688 c 0
 1437.00097656 1424.33105469 1411.33398438 1453.99804688 1378.00097656 1481.99804688 c 1
 1482.00097656 1585.99804688 l 1
 1531.33398438 1544.66503906 1569.66699219 1498.99804688 1597 1448.99804688 c 0
 1624.33300781 1398.99804688 1638 1349.33105469 1638 1299.99804688 c 0
 1638 1221.33105469 1607.66699219 1153.99804688 1547 1097.99804688 c 0
 1486.33300781 1041.99804688 1412.66601562 1013.99804688 1325.99902344 1013.99804688 c 1
 1325.99902344 1013.99804688 l 1
755.999023438 -364.001953125 m 1
 755.999023438 -286.001953125 l 1
 807.999023438 51.998046875 l 1
 911.999023438 51.998046875 l 1
 963.999023438 -286.001953125 l 1
 963.999023438 -364.001953125 l 1
 755.999023438 -364.001953125 l 1
 755.999023438 -364.001953125 l 1
EndSplineSet
EndChar

StartChar: uni0923
Encoding: 2339 2339 75
Width: 1612
GlyphClass: 2
Flags: W
LayerCount: 2
Fore
SplineSet
1236 1196 m 1
 1354.66699219 1196 1455.66503906 1137.66601562 1538.99804688 1020.99902344 c 0
 1622.33105469 904.33203125 1663.99804688 763.33203125 1663.99804688 597.999023438 c 0
 1663.99804688 432.666015625 1625.99804688 291.666015625 1549.99804688 174.999023438 c 0
 1473.99804688 58.33203125 1381.99804688 -0.0009765625 1273.99804688 -0.0009765625 c 0
 1195.33105469 -0.0009765625 1127.99804688 30.33203125 1071.99804688 90.9990234375 c 0
 1015.99804688 151.666015625 987.998046875 225.333007812 987.998046875 312 c 0
 987.998046875 390.666992188 1015.99804688 458 1071.99804688 514 c 0
 1127.99804688 570 1195.33105469 598 1273.99804688 598 c 0
 1300.66503906 598 1326.33203125 593.666992188 1350.99902344 585 c 0
 1375.66601562 576.333007812 1397.99902344 563.333007812 1417.99902344 546 c 1
 1351.99902344 416 l 1
 1339.99902344 424 1328.66601562 430.333007812 1317.99902344 435 c 0
 1307.33203125 439.666992188 1297.33203125 442 1287.99902344 442 c 0
 1255.99902344 442 1228.33203125 429.333007812 1204.99902344 404 c 0
 1181.66601562 378.666992188 1169.99902344 348 1169.99902344 312 c 0
 1169.99902344 276 1179.99902344 245.333007812 1199.99902344 220 c 0
 1219.99902344 194.666992188 1244.66601562 182 1273.99902344 182 c 0
 1331.33203125 182 1380.33203125 222.666992188 1420.99902344 304 c 0
 1461.66601562 385.333007812 1481.99902344 483.333007812 1481.99902344 598 c 0
 1481.99902344 720.666992188 1457.99902344 825 1409.99902344 911 c 0
 1361.99902344 997 1303.99902344 1040 1235.99902344 1040 c 0
 1167.99902344 1040 1109.66601562 1002 1060.99902344 926 c 0
 1012.33203125 850 987.999023438 758 987.999023438 650 c 1
 831.999023438 650 l 1
 831.999023438 758 808.999023438 850 762.999023438 926 c 0
 716.999023438 1002 661.999023438 1040 597.999023438 1040 c 0
 547.33203125 1040 504.33203125 1024.66699219 468.999023438 994 c 0
 433.666015625 963.333007812 415.999023438 926.666015625 415.999023438 883.999023438 c 0
 415.999023438 826.666015625 436.33203125 777.666015625 476.999023438 736.999023438 c 0
 517.666015625 696.33203125 566.666015625 675.999023438 623.999023438 675.999023438 c 1
 623.999023438 519.999023438 l 1
 566.666015625 519.999023438 517.666015625 500.999023438 476.999023438 462.999023438 c 0
 436.33203125 424.999023438 415.999023438 379.33203125 415.999023438 325.999023438 c 0
 415.999023438 285.999023438 433.666015625 251.999023438 468.999023438 223.999023438 c 0
 504.33203125 195.999023438 547.33203125 181.999023438 597.999023438 181.999023438 c 0
 627.33203125 181.999023438 655.999023438 191.33203125 683.999023438 209.999023438 c 0
 711.999023438 228.666015625 735.33203125 253.999023438 753.999023438 285.999023438 c 1
 857.999023438 155.999023438 l 1
 829.999023438 107.999023438 792.666015625 69.9990234375 745.999023438 41.9990234375 c 0
 699.33203125 13.9990234375 649.999023438 -0.0009765625 597.999023438 -0.0009765625 c 0
 497.999023438 -0.0009765625 412.33203125 31.666015625 340.999023438 94.9990234375 c 0
 269.666015625 158.33203125 233.999023438 235.33203125 233.999023438 325.999023438 c 0
 233.999023438 388.666015625 249.33203125 445.999023438 279.999023438 497.999023438 c 0
 310.666015625 549.999023438 351.999023438 587.999023438 403.999023438 611.999023438 c 1
 351.999023438 635.999023438 310.666015625 672.666015625 279.999023438 721.999023438 c 0
 249.33203125 771.33203125 233.999023438 825.33203125 233.999023438 883.999023438 c 0
 233.999023438 970.666015625 268.33203125 1044.33300781 336.999023438 1105 c 0
 405.666015625 1165.66699219 488.666015625 1196 585.999023438 1196 c 0
 664.666015625 1196 734.333007812 1176.66699219 795 1138 c 0
 855.666992188 1099.33300781 894 1049.33300781 910 988 c 1
 926 1049.33300781 964.333007812 1099.33300781 1025 1138 c 0
 1085.66699219 1176.66699219 1156 1196 1236 1196 c 1
 1236 1196 l 1
EndSplineSet
EndChar

StartChar: uni0924
Encoding: 2340 2340 76
Width: 1134
GlyphClass: 2
Flags: W
LayerCount: 2
Fore
SplineSet
600 638 m 1
 600 616.666992188 611.666992188 598.333007812 635 583 c 0
 658.333007812 567.666992188 686 560 718 560 c 0
 739.333007812 560 762.333007812 568 787 584 c 0
 811.666992188 600 836 622 860 650 c 1
 838.666992188 671.333007812 815.666992188 687.666015625 791 698.999023438 c 0
 766.333007812 710.33203125 742 715.999023438 718 715.999023438 c 0
 686 715.999023438 658.333007812 708.33203125 635 692.999023438 c 0
 611.666992188 677.666015625 600 659.333007812 600 638 c 1
 600 638 l 1
874 805.999023438 m 1
 874 847.33203125 862.334960938 886.665039062 839.001953125 923.998046875 c 0
 815.668945312 961.331054688 784.001953125 991.331054688 744.001953125 1013.99804688 c 1
 146.001953125 1013.99804688 l 1
 146.001953125 1169.99804688 l 1
 900.001953125 1169.99804688 l 2
 936.001953125 1169.99804688 966.668945312 1185.33105469 992.001953125 1215.99804688 c 0
 1017.33496094 1246.66503906 1030.00195312 1283.33203125 1030.00195312 1325.99902344 c 0
 1030.00195312 1347.33203125 1021.00195312 1371.66503906 1003.00195312 1398.99804688 c 0
 985.001953125 1426.33105469 959.334960938 1453.99804688 926.001953125 1481.99804688 c 1
 1030.00195312 1585.99804688 l 1
 1079.33496094 1544.66503906 1117.66796875 1501.33203125 1145.00097656 1455.99902344 c 0
 1172.33398438 1410.66601562 1186.00097656 1367.33300781 1186.00097656 1326 c 0
 1186.00097656 1239.33300781 1160.66796875 1165.66601562 1110.00097656 1104.99902344 c 0
 1059.33398438 1044.33203125 998.000976562 1013.99902344 926.000976562 1013.99902344 c 1
 954.000976562 989.999023438 976.000976562 952.999023438 992.000976562 902.999023438 c 0
 1008.00097656 852.999023438 1016.00097656 794.666015625 1016.00097656 727.999023438 c 1
 1069.33398438 682.666015625 1111.00097656 632.666015625 1141.00097656 577.999023438 c 0
 1171.00097656 523.33203125 1186.00097656 469.33203125 1186.00097656 415.999023438 c 0
 1186.00097656 301.33203125 1135.33398438 203.33203125 1034.00097656 121.999023438 c 0
 932.66796875 40.666015625 810.000976562 -0.0009765625 666.000976562 -0.0009765625 c 0
 515.333984375 -0.0009765625 386.666992188 40.666015625 280 121.999023438 c 0
 173.333007812 203.33203125 120 301.33203125 120 415.999023438 c 0
 120 445.33203125 123.333007812 473.33203125 130 499.999023438 c 0
 136.666992188 526.666015625 146 550.666015625 158 571.999023438 c 1
 302 519.999023438 l 1
 294 505.33203125 287.666992188 488.999023438 283 470.999023438 c 0
 278.333007812 452.999023438 276 434.666015625 276 415.999023438 c 0
 276 351.999023438 314 296.999023438 390 250.999023438 c 0
 466 204.999023438 558 181.999023438 666 181.999023438 c 0
 759.333007812 181.999023438 839 204.999023438 905 250.999023438 c 0
 971 296.999023438 1004 351.999023438 1004 415.999023438 c 0
 1004 441.33203125 1000.66699219 463.999023438 994 483.999023438 c 0
 987.333007812 503.999023438 977.333007812 520.666015625 964 533.999023438 c 1
 941.333007812 493.999023438 908 462.33203125 864 438.999023438 c 0
 820 415.666015625 771.333007812 403.999023438 718 403.999023438 c 0
 639.333007812 403.999023438 572 426.999023438 516 472.999023438 c 0
 460 518.999023438 432 573.999023438 432 637.999023438 c 0
 432 699.33203125 458.666992188 751.33203125 512 793.999023438 c 0
 565.333007812 836.666015625 629.333007812 857.999023438 704 857.999023438 c 0
 738.666992188 857.999023438 770.666992188 853.666015625 800 844.999023438 c 0
 829.333007812 836.33203125 854 823.33203125 874 805.999023438 c 1
 874 805.999023438 l 1
EndSplineSet
EndChar

StartChar: uni0925
Encoding: 2341 2341 77
Width: 1464
GlyphClass: 2
Flags: W
LayerCount: 2
Fore
SplineSet
398 468 m 1
 398 389.333007812 415.665039062 322 450.998046875 266 c 0
 486.331054688 210 529.331054688 182 579.998046875 182 c 0
 637.331054688 182 686.331054688 210 726.998046875 266 c 0
 767.665039062 322 787.998046875 389.333007812 787.998046875 468 c 1
 943.998046875 468 l 1
 943.998046875 389.333007812 964.331054688 322 1004.99804688 266 c 0
 1045.66503906 210 1094.66503906 182 1151.99804688 182 c 0
 1202.66503906 182 1245.66503906 212.333007812 1280.99804688 273 c 0
 1316.33105469 333.666992188 1333.99804688 407.333984375 1333.99804688 494.000976562 c 0
 1333.99804688 638.000976562 1288.33105469 760.66796875 1196.99804688 862.000976562 c 0
 1105.66503906 963.333984375 995.33203125 1014.00097656 865.999023438 1014.00097656 c 0
 736.666015625 1014.00097656 626.333007812 960.66796875 535 854.000976562 c 0
 443.666992188 747.333984375 398 618.666992188 398 468 c 1
 398 468 l 1
449.998046875 1014 m 1
 215.994140625 1014.00390625 l 1
 215.994140625 1170.00390625 l 1
 1281.99414062 1170.00390625 l 2
 1317.99414062 1170.00390625 1348.66113281 1185.33691406 1373.99414062 1216.00390625 c 0
 1399.32714844 1246.67089844 1411.99414062 1283.33789062 1411.99414062 1326.00488281 c 0
 1411.99414062 1347.33789062 1402.99414062 1371.67089844 1384.99414062 1399.00390625 c 0
 1366.99414062 1426.33691406 1341.32714844 1454.00390625 1307.99414062 1482.00390625 c 1
 1385.99414062 1586.00390625 l 1
 1441.99414062 1554.00390625 1486.32714844 1514.67089844 1518.99414062 1468.00390625 c 0
 1551.66113281 1421.33691406 1567.99414062 1374.00390625 1567.99414062 1326.00390625 c 0
 1567.99414062 1239.33691406 1539.99414062 1165.66992188 1483.99414062 1105.00292969 c 0
 1427.99414062 1044.3359375 1360.66113281 1014.00292969 1281.99414062 1014.00292969 c 1
 1356.66113281 951.3359375 1414.328125 874.668945312 1454.99511719 784.001953125 c 0
 1495.66210938 693.334960938 1515.99511719 596.66796875 1515.99511719 494.000976562 c 0
 1515.99511719 358.000976562 1480.328125 241.66796875 1408.99511719 145.000976562 c 0
 1337.66210938 48.333984375 1251.99511719 0.0009765625 1151.99511719 0.0009765625 c 0
 1086.66210938 0.0009765625 1027.32910156 21.66796875 973.99609375 65.0009765625 c 0
 920.663085938 108.333984375 884.663085938 164.666992188 865.99609375 234 c 1
 847.329101562 164.666992188 811.329101562 108.333984375 757.99609375 65.0009765625 c 0
 704.663085938 21.66796875 645.330078125 0.0009765625 579.997070312 0.0009765625 c 0
 479.997070312 0.0009765625 394.330078125 45.66796875 322.997070312 137.000976562 c 0
 251.6640625 228.333984375 215.997070312 338.666992188 215.997070312 468 c 0
 215.997070312 578.666992188 236.330078125 681.666992188 276.997070312 777 c 0
 317.6640625 872.333007812 375.331054688 951.333007812 449.998046875 1014 c 1
 449.998046875 1014 l 1
755.994140625 598.00390625 m 1
 755.994140625 806.00390625 l 1
 963.994140625 806.00390625 l 1
 963.994140625 598.00390625 l 1
 755.994140625 598.00390625 l 1
 755.994140625 598.00390625 l 1
755.994140625 -363.99609375 m 1
 755.994140625 -285.99609375 l 1
 807.994140625 52.00390625 l 1
 911.994140625 52.00390625 l 1
 963.994140625 -285.99609375 l 1
 963.994140625 -363.99609375 l 1
 755.994140625 -363.99609375 l 1
 755.994140625 -363.99609375 l 1
EndSplineSet
EndChar

StartChar: uni0926
Encoding: 2342 2342 78
Width: 1464
GlyphClass: 2
Flags: W
LayerCount: 2
Fore
SplineSet
232 468 m 1
 232 389.333007812 249.665039062 322 284.998046875 266 c 0
 320.331054688 210 363.331054688 182 413.998046875 182 c 0
 471.331054688 182 520.331054688 210 560.998046875 266 c 0
 601.665039062 322 621.998046875 389.333007812 621.998046875 468 c 1
 777.998046875 468 l 1
 777.998046875 389.333007812 798.331054688 322 838.998046875 266 c 0
 879.665039062 210 928.665039062 182 985.998046875 182 c 0
 1036.66503906 182 1079.66503906 212.333007812 1114.99804688 273 c 0
 1150.33105469 333.666992188 1167.99804688 407.333984375 1167.99804688 494.000976562 c 0
 1167.99804688 638.000976562 1122.33105469 760.66796875 1030.99804688 862.000976562 c 0
 939.665039062 963.333984375 829.33203125 1014.00097656 699.999023438 1014.00097656 c 0
 570.666015625 1014.00097656 460.333007812 960.66796875 369 854.000976562 c 0
 277.666992188 747.333984375 232 618.666992188 232 468 c 1
 232 468 l 1
283.998046875 1014 m 1
 49.994140625 1014.00390625 l 1
 49.994140625 1170.00390625 l 1
 1115.99414062 1170.00390625 l 2
 1151.99414062 1170.00390625 1182.66113281 1185.33691406 1207.99414062 1216.00390625 c 0
 1233.32714844 1246.67089844 1245.99414062 1283.33789062 1245.99414062 1326.00488281 c 0
 1245.99414062 1347.33789062 1236.99414062 1371.67089844 1218.99414062 1399.00390625 c 0
 1200.99414062 1426.33691406 1175.32714844 1454.00390625 1141.99414062 1482.00390625 c 1
 1219.99414062 1586.00390625 l 1
 1275.99414062 1554.00390625 1320.32714844 1514.67089844 1352.99414062 1468.00390625 c 0
 1385.66113281 1421.33691406 1401.99414062 1374.00390625 1401.99414062 1326.00390625 c 0
 1401.99414062 1239.33691406 1373.99414062 1165.66992188 1317.99414062 1105.00292969 c 0
 1261.99414062 1044.3359375 1194.66113281 1014.00292969 1115.99414062 1014.00292969 c 1
 1190.66113281 951.3359375 1248.328125 874.668945312 1288.99511719 784.001953125 c 0
 1329.66210938 693.334960938 1349.99511719 596.66796875 1349.99511719 494.000976562 c 0
 1349.99511719 358.000976562 1314.328125 241.66796875 1242.99511719 145.000976562 c 0
 1171.66210938 48.333984375 1085.99511719 0.0009765625 985.995117188 0.0009765625 c 0
 920.662109375 0.0009765625 861.329101562 21.66796875 807.99609375 65.0009765625 c 0
 754.663085938 108.333984375 718.663085938 164.666992188 699.99609375 234 c 1
 681.329101562 164.666992188 645.329101562 108.333984375 591.99609375 65.0009765625 c 0
 538.663085938 21.66796875 479.330078125 0.0009765625 413.997070312 0.0009765625 c 0
 313.997070312 0.0009765625 228.330078125 45.66796875 156.997070312 137.000976562 c 0
 85.6640625 228.333984375 49.9970703125 338.666992188 49.9970703125 468 c 0
 49.9970703125 578.666992188 70.330078125 681.666992188 110.997070312 777 c 0
 151.6640625 872.333007812 209.331054688 951.333007812 283.998046875 1014 c 1
 283.998046875 1014 l 1
EndSplineSet
EndChar

StartChar: uni0927
Encoding: 2343 2343 79
Width: 1464
GlyphClass: 2
Flags: W
LayerCount: 2
Fore
SplineSet
398 468 m 1
 398 389.333007812 415.665039062 322 450.998046875 266 c 0
 486.331054688 210 529.331054688 182 579.998046875 182 c 0
 637.331054688 182 686.331054688 210 726.998046875 266 c 0
 767.665039062 322 787.998046875 389.333007812 787.998046875 468 c 1
 943.998046875 468 l 1
 943.998046875 389.333007812 964.331054688 322 1004.99804688 266 c 0
 1045.66503906 210 1094.66503906 182 1151.99804688 182 c 0
 1202.66503906 182 1245.66503906 212.333007812 1280.99804688 273 c 0
 1316.33105469 333.666992188 1333.99804688 407.333984375 1333.99804688 494.000976562 c 0
 1333.99804688 638.000976562 1288.33105469 760.66796875 1196.99804688 862.000976562 c 0
 1105.66503906 963.333984375 995.33203125 1014.00097656 865.999023438 1014.00097656 c 0
 736.666015625 1014.00097656 626.333007812 960.66796875 535 854.000976562 c 0
 443.666992188 747.333984375 398 618.666992188 398 468 c 1
 398 468 l 1
449.998046875 1014 m 1
 215.994140625 1014.00390625 l 1
 215.994140625 1170.00390625 l 1
 1281.99414062 1170.00390625 l 2
 1317.99414062 1170.00390625 1348.66113281 1185.33691406 1373.99414062 1216.00390625 c 0
 1399.32714844 1246.67089844 1411.99414062 1283.33789062 1411.99414062 1326.00488281 c 0
 1411.99414062 1347.33789062 1402.99414062 1371.67089844 1384.99414062 1399.00390625 c 0
 1366.99414062 1426.33691406 1341.32714844 1454.00390625 1307.99414062 1482.00390625 c 1
 1385.99414062 1586.00390625 l 1
 1441.99414062 1554.00390625 1486.32714844 1514.67089844 1518.99414062 1468.00390625 c 0
 1551.66113281 1421.33691406 1567.99414062 1374.00390625 1567.99414062 1326.00390625 c 0
 1567.99414062 1239.33691406 1539.99414062 1165.66992188 1483.99414062 1105.00292969 c 0
 1427.99414062 1044.3359375 1360.66113281 1014.00292969 1281.99414062 1014.00292969 c 1
 1356.66113281 951.3359375 1414.328125 874.668945312 1454.99511719 784.001953125 c 0
 1495.66210938 693.334960938 1515.99511719 596.66796875 1515.99511719 494.000976562 c 0
 1515.99511719 358.000976562 1480.328125 241.66796875 1408.99511719 145.000976562 c 0
 1337.66210938 48.333984375 1251.99511719 0.0009765625 1151.99511719 0.0009765625 c 0
 1086.66210938 0.0009765625 1027.32910156 21.66796875 973.99609375 65.0009765625 c 0
 920.663085938 108.333984375 884.663085938 164.666992188 865.99609375 234 c 1
 847.329101562 164.666992188 811.329101562 108.333984375 757.99609375 65.0009765625 c 0
 704.663085938 21.66796875 645.330078125 0.0009765625 579.997070312 0.0009765625 c 0
 479.997070312 0.0009765625 394.330078125 45.66796875 322.997070312 137.000976562 c 0
 251.6640625 228.333984375 215.997070312 338.666992188 215.997070312 468 c 0
 215.997070312 578.666992188 236.330078125 681.666992188 276.997070312 777 c 0
 317.6640625 872.333007812 375.331054688 951.333007812 449.998046875 1014 c 1
 449.998046875 1014 l 1
755.994140625 -363.99609375 m 1
 755.994140625 -285.99609375 l 1
 807.994140625 52.00390625 l 1
 911.994140625 52.00390625 l 1
 963.994140625 -285.99609375 l 1
 963.994140625 -363.99609375 l 1
 755.994140625 -363.99609375 l 1
 755.994140625 -363.99609375 l 1
EndSplineSet
EndChar

StartChar: uni0928
Encoding: 2344 2344 80
Width: 1404
GlyphClass: 2
Flags: W
LayerCount: 2
Fore
SplineSet
1222 520 m 1
 1222 656 1173.66503906 772.333984375 1076.99804688 869.000976562 c 0
 980.331054688 965.66796875 863.998046875 1014.00097656 727.998046875 1014.00097656 c 2
 195.998046875 1014.00097656 l 1
 195.998046875 1170.00097656 l 1
 1079.99804688 1170.00097656 l 2
 1115.99804688 1170.00097656 1146.66503906 1182.66796875 1171.99804688 1208.00097656 c 0
 1197.33105469 1233.33398438 1209.99804688 1264.00097656 1209.99804688 1300.00097656 c 0
 1209.99804688 1330.66796875 1200.99804688 1361.66796875 1182.99804688 1393.00097656 c 0
 1164.99804688 1424.33398438 1139.33105469 1454.00097656 1105.99804688 1482.00097656 c 1
 1209.99804688 1586.00097656 l 1
 1259.33105469 1544.66796875 1297.6640625 1499.00097656 1324.99707031 1449.00097656 c 0
 1352.33007812 1399.00097656 1365.99707031 1349.33398438 1365.99707031 1300.00097656 c 0
 1365.99707031 1221.33398438 1342.99707031 1154.00097656 1296.99707031 1098.00097656 c 0
 1250.99707031 1042.00097656 1195.99707031 1014.00097656 1131.99707031 1014.00097656 c 1
 1215.99707031 966.000976562 1282.33007812 897.66796875 1330.99707031 809.000976562 c 0
 1379.6640625 720.333984375 1403.99707031 624.000976562 1403.99707031 520.000976562 c 0
 1403.99707031 362.66796875 1369.6640625 236.66796875 1300.99707031 142.000976562 c 0
 1232.33007812 47.333984375 1141.33007812 0.0009765625 1027.99707031 0.0009765625 c 0
 953.330078125 0.0009765625 885.330078125 36.66796875 823.997070312 110.000976562 c 0
 762.6640625 183.333984375 721.997070312 276.666992188 701.997070312 390 c 0
 688.6640625 464.666992188 663.6640625 526.666992188 626.997070312 576 c 0
 590.330078125 625.333007812 550.663085938 650 507.99609375 650 c 0
 471.99609375 650 441.329101562 629.666992188 415.99609375 589 c 0
 390.663085938 548.333007812 377.99609375 499.333007812 377.99609375 442 c 0
 377.99609375 340.666992188 396.329101562 248.666992188 432.99609375 166 c 0
 469.663085938 83.3330078125 520.663085938 19.3330078125 585.99609375 -26 c 1
 441.99609375 -130 l 1
 364.663085938 -64.6669921875 304.330078125 18 260.997070312 118 c 0
 217.6640625 218 195.997070312 326 195.997070312 442 c 0
 195.997070312 550 226.330078125 642 286.997070312 718 c 0
 347.6640625 794 421.331054688 832 507.998046875 832 c 0
 594.665039062 832 673.33203125 790.333007812 743.999023438 707 c 0
 814.666015625 623.666992188 861.333007812 518 884 390 c 0
 894.666992188 330 913.666992188 280.333007812 941 241 c 0
 968.333007812 201.666992188 997.333007812 182 1028 182 c 0
 1081.33300781 182 1127 215 1165 281 c 0
 1203 347 1222 426.666992188 1222 520 c 1
 1222 520 l 1
EndSplineSet
EndChar

StartChar: uni092A
Encoding: 2346 2346 81
Width: 1388
GlyphClass: 2
Flags: W
LayerCount: 2
Fore
SplineSet
578 650 m 1
 578 858 l 1
 786 858 l 1
 786 650 l 1
 578 650 l 1
 578 650 l 1
32 326 m 1
 32 408.666992188 57.328125 479 107.995117188 537 c 0
 158.662109375 595 219.995117188 624 291.995117188 624 c 0
 349.328125 624 398.328125 601 438.995117188 555 c 0
 479.662109375 509 499.995117188 454 499.995117188 390 c 1
 369.995117188 390 l 1
 369.995117188 411.333007812 362.328125 429.666015625 346.995117188 444.999023438 c 0
 331.662109375 460.33203125 313.329101562 467.999023438 291.99609375 467.999023438 c 0
 270.663085938 467.999023438 252.330078125 455.33203125 236.997070312 429.999023438 c 0
 221.6640625 404.666015625 213.997070312 373.999023438 213.997070312 337.999023438 c 0
 213.997070312 295.33203125 229.330078125 258.665039062 259.997070312 227.998046875 c 0
 290.6640625 197.331054688 327.331054688 181.998046875 369.998046875 181.998046875 c 0
 433.998046875 181.998046875 488.998046875 209.998046875 534.998046875 265.998046875 c 0
 580.998046875 321.998046875 603.998046875 389.331054688 603.998046875 467.998046875 c 1
 759.998046875 467.998046875 l 1
 759.998046875 389.331054688 782.998046875 321.998046875 828.998046875 265.998046875 c 0
 874.998046875 209.998046875 929.998046875 181.998046875 993.998046875 181.998046875 c 0
 1048.66503906 181.998046875 1092.66503906 207.998046875 1125.99804688 259.998046875 c 0
 1159.33105469 311.998046875 1175.99804688 381.331054688 1175.99804688 467.998046875 c 0
 1175.99804688 526.665039062 1160.33105469 587.33203125 1128.99804688 649.999023438 c 0
 1097.66503906 712.666015625 1052.66503906 773.333007812 993.998046875 832 c 1
 1137.99804688 924 l 1
 1200.66503906 861.333007812 1248.66503906 792 1281.99804688 716 c 0
 1315.33105469 640 1331.99804688 562 1331.99804688 482 c 0
 1331.99804688 336.666992188 1301.33105469 220 1239.99804688 132 c 0
 1178.66503906 44 1096.66503906 0 993.998046875 0 c 0
 924.665039062 -0 861.33203125 20.3330078125 803.999023438 61 c 0
 746.666015625 101.666992188 705.999023438 155.333984375 681.999023438 222.000976562 c 1
 657.999023438 155.333984375 617.33203125 101.666992188 559.999023438 61 c 0
 502.666015625 20.3330078125 439.333007812 0 370 0 c 0
 276.666992188 0 197 31.6669921875 131 95 c 0
 65 158.333007812 32 235.333007812 32 326 c 1
 32 326 l 1
31.9951171875 1170 m 1
 1045.99609375 1170 l 2
 1081.99609375 1170 1112.66308594 1182.66699219 1137.99609375 1208 c 0
 1163.32910156 1233.33300781 1175.99609375 1264 1175.99609375 1300 c 0
 1175.99609375 1330.66699219 1166.99609375 1361.66699219 1148.99609375 1393 c 0
 1130.99609375 1424.33300781 1105.32910156 1454 1071.99609375 1482 c 1
 1175.99609375 1586 l 1
 1225.32910156 1544.66699219 1263.66210938 1499 1290.99511719 1449 c 0
 1318.328125 1399 1331.99511719 1349.33300781 1331.99511719 1300 c 0
 1331.99511719 1221.33300781 1303.99511719 1154 1247.99511719 1098 c 0
 1191.99511719 1042 1124.66210938 1014 1045.99511719 1014 c 2
 31.9951171875 1014 l 1
 31.9951171875 1170 l 1
 31.9951171875 1170 l 1
EndSplineSet
EndChar

StartChar: uni092B
Encoding: 2347 2347 82
Width: 1388
GlyphClass: 2
Flags: W
LayerCount: 2
Fore
SplineSet
686 650 m 1
 686 858 l 1
 894 858 l 1
 894 650 l 1
 686 650 l 1
 686 650 l 1
140 326 m 1
 140 408.666992188 165.328125 479 215.995117188 537 c 0
 266.662109375 595 327.995117188 624 399.995117188 624 c 0
 457.328125 624 506.328125 601 546.995117188 555 c 0
 587.662109375 509 607.995117188 454 607.995117188 390 c 1
 477.995117188 390 l 1
 477.995117188 411.333007812 470.328125 429.666015625 454.995117188 444.999023438 c 0
 439.662109375 460.33203125 421.329101562 467.999023438 399.99609375 467.999023438 c 0
 378.663085938 467.999023438 360.330078125 455.33203125 344.997070312 429.999023438 c 0
 329.6640625 404.666015625 321.997070312 373.999023438 321.997070312 337.999023438 c 0
 321.997070312 295.33203125 337.330078125 258.665039062 367.997070312 227.998046875 c 0
 398.6640625 197.331054688 435.331054688 181.998046875 477.998046875 181.998046875 c 0
 541.998046875 181.998046875 596.998046875 209.998046875 642.998046875 265.998046875 c 0
 688.998046875 321.998046875 711.998046875 389.331054688 711.998046875 467.998046875 c 1
 867.998046875 467.998046875 l 1
 867.998046875 389.331054688 890.998046875 321.998046875 936.998046875 265.998046875 c 0
 982.998046875 209.998046875 1037.99804688 181.998046875 1101.99804688 181.998046875 c 0
 1156.66503906 181.998046875 1200.66503906 207.998046875 1233.99804688 259.998046875 c 0
 1267.33105469 311.998046875 1283.99804688 381.331054688 1283.99804688 467.998046875 c 0
 1283.99804688 526.665039062 1268.33105469 587.33203125 1236.99804688 649.999023438 c 0
 1205.66503906 712.666015625 1160.66503906 773.333007812 1101.99804688 832 c 1
 1245.99804688 924 l 1
 1308.66503906 861.333007812 1356.66503906 792 1389.99804688 716 c 0
 1423.33105469 640 1439.99804688 562 1439.99804688 482 c 0
 1439.99804688 336.666992188 1409.33105469 220 1347.99804688 132 c 0
 1286.66503906 44 1204.66503906 0 1101.99804688 0 c 0
 1032.66503906 -0 969.33203125 20.3330078125 911.999023438 61 c 0
 854.666015625 101.666992188 813.999023438 155.333984375 789.999023438 222.000976562 c 1
 765.999023438 155.333984375 725.33203125 101.666992188 667.999023438 61 c 0
 610.666015625 20.3330078125 547.333007812 0 478 0 c 0
 384.666992188 0 305 31.6669921875 239 95 c 0
 173 158.333007812 140 235.333007812 140 326 c 1
 140 326 l 1
139.995117188 1170 m 1
 1153.99609375 1170 l 2
 1189.99609375 1170 1220.66308594 1182.66699219 1245.99609375 1208 c 0
 1271.32910156 1233.33300781 1283.99609375 1264 1283.99609375 1300 c 0
 1283.99609375 1330.66699219 1274.99609375 1361.66699219 1256.99609375 1393 c 0
 1238.99609375 1424.33300781 1213.32910156 1454 1179.99609375 1482 c 1
 1283.99609375 1586 l 1
 1333.32910156 1544.66699219 1371.66210938 1499 1398.99511719 1449 c 0
 1426.328125 1399 1439.99511719 1349.33300781 1439.99511719 1300 c 0
 1439.99511719 1221.33300781 1411.99511719 1154 1355.99511719 1098 c 0
 1299.99511719 1042 1232.66210938 1014 1153.99511719 1014 c 2
 139.995117188 1014 l 1
 139.995117188 1170 l 1
 139.995117188 1170 l 1
683.99609375 -364 m 1
 683.99609375 -286 l 1
 735.99609375 52 l 1
 839.99609375 52 l 1
 891.99609375 -286 l 1
 891.99609375 -364 l 1
 683.99609375 -364 l 1
 683.99609375 -364 l 1
EndSplineSet
EndChar

StartChar: uni092C
Encoding: 2348 2348 83
Width: 1562
GlyphClass: 2
Flags: W
LayerCount: 2
Fore
SplineSet
1290 586 m 1
 1290 674 1267.33203125 761.004882812 1221.99902344 847.004882812 c 0
 1176.66601562 933.004882812 1112.66601562 1010.671875 1029.99902344 1080.00488281 c 1
 1159.99902344 1196.00488281 l 1
 1258.66601562 1113.33789062 1335.33300781 1018.67089844 1390 912.00390625 c 0
 1444.66699219 805.336914062 1472 696.669921875 1472 586.002929688 c 0
 1472 408.669921875 1434 266.669921875 1358 160.002929688 c 0
 1282 53.3359375 1181.33300781 0.0029296875 1056 0.0029296875 c 0
 981.333007812 0.0029296875 915 20.669921875 857 62.0029296875 c 0
 799 103.3359375 761.333007812 156.668945312 744 222.001953125 c 1
 726.666992188 156.668945312 689 103.3359375 631 62.0029296875 c 0
 573 20.669921875 506.666992188 0.0029296875 432 0.0029296875 c 0
 338.666992188 0.0029296875 259 33.0029296875 193 99.0029296875 c 0
 127 165.002929688 94 244.669921875 94 338.002929688 c 0
 94 399.3359375 107.666992188 458.668945312 135 516.001953125 c 0
 162.333007812 573.334960938 200.666015625 622.66796875 249.999023438 664.000976562 c 0
 299.33203125 705.333984375 337.665039062 749.666992188 364.998046875 797 c 0
 392.331054688 844.333007812 405.998046875 890.666015625 405.998046875 935.999023438 c 0
 405.998046875 965.33203125 395.998046875 989.999023438 375.998046875 1009.99902344 c 0
 355.998046875 1029.99902344 331.331054688 1039.99902344 301.998046875 1039.99902344 c 0
 272.665039062 1039.99902344 247.998046875 1029.99902344 227.998046875 1009.99902344 c 0
 207.998046875 989.999023438 197.998046875 965.33203125 197.998046875 935.999023438 c 0
 197.998046875 917.33203125 200.331054688 898.999023438 204.998046875 880.999023438 c 0
 209.665039062 862.999023438 215.998046875 846.666015625 223.998046875 831.999023438 c 1
 67.998046875 779.999023438 l 1
 50.6650390625 799.999023438 37.6650390625 823.33203125 28.998046875 849.999023438 c 0
 20.3310546875 876.666015625 15.998046875 905.333007812 15.998046875 936 c 0
 15.998046875 1012 43.998046875 1076.66699219 99.998046875 1130 c 0
 155.998046875 1183.33300781 223.331054688 1210 301.998046875 1210 c 0
 380.665039062 1210 447.998046875 1183.33300781 503.998046875 1130 c 0
 559.998046875 1076.66699219 587.998046875 1012 587.998046875 936 c 0
 587.998046875 886.666992188 572.331054688 832.666992188 540.998046875 774 c 0
 509.665039062 715.333007812 464.665039062 656.666015625 405.998046875 597.999023438 c 0
 364.665039062 556.666015625 332.665039062 513.333007812 309.998046875 468 c 0
 287.331054688 422.666992188 275.998046875 379.333984375 275.998046875 338.000976562 c 0
 275.998046875 295.333984375 291.331054688 258.666992188 321.998046875 228 c 0
 352.665039062 197.333007812 389.33203125 182 431.999023438 182 c 0
 495.999023438 182 550.999023438 210 596.999023438 266 c 0
 642.999023438 322 665.999023438 389.333007812 665.999023438 468 c 1
 821.999023438 468 l 1
 821.999023438 389.333007812 844.999023438 322 890.999023438 266 c 0
 936.999023438 210 991.999023438 182 1055.99902344 182 c 0
 1126.66601562 182 1183.33300781 218.666992188 1226 292 c 0
 1268.66699219 365.333007812 1290 463.333007812 1290 586 c 1
 1290 586 l 1
EndSplineSet
EndChar

StartChar: uni092D
Encoding: 2349 2349 84
Width: 1562
GlyphClass: 2
Flags: W
LayerCount: 2
Fore
SplineSet
1432 586 m 1
 1432 704.666992188 1400.33398438 805.669921875 1337.00097656 889.002929688 c 0
 1273.66796875 972.3359375 1197.33496094 1014.00292969 1108.00195312 1014.00292969 c 2
 912.001953125 1014.00292969 l 1
 912.001953125 1170.00292969 l 1
 1328.00195312 1170.00292969 l 2
 1364.00195312 1170.00292969 1394.66894531 1182.66992188 1420.00195312 1208.00292969 c 0
 1445.33496094 1233.3359375 1458.00195312 1264.00292969 1458.00195312 1300.00292969 c 0
 1458.00195312 1330.66992188 1449.00195312 1361.66992188 1431.00195312 1393.00292969 c 0
 1413.00195312 1424.3359375 1387.33496094 1454.00292969 1354.00195312 1482.00292969 c 1
 1458.00195312 1586.00292969 l 1
 1507.33496094 1544.66992188 1545.66796875 1499.00292969 1573.00097656 1449.00292969 c 0
 1600.33398438 1399.00292969 1614.00097656 1349.3359375 1614.00097656 1300.00292969 c 0
 1614.00097656 1228.00292969 1596.33398438 1166.66992188 1561.00097656 1116.00292969 c 0
 1525.66796875 1065.3359375 1482.66796875 1040.00292969 1432.00097656 1040.00292969 c 1
 1489.33398438 1000.00292969 1534.00097656 940.002929688 1566.00097656 860.002929688 c 0
 1598.00097656 780.002929688 1614.00097656 688.669921875 1614.00097656 586.002929688 c 0
 1614.00097656 424.669921875 1573.33398438 286.669921875 1492.00097656 172.002929688 c 0
 1410.66796875 57.3359375 1312.66796875 0.0029296875 1198.00097656 0.0029296875 c 0
 1123.33398438 0.0029296875 1057.00097656 20.669921875 999.000976562 62.0029296875 c 0
 941.000976562 103.3359375 903.333984375 156.668945312 886.000976562 222.001953125 c 1
 868.66796875 156.668945312 831.000976562 103.3359375 773.000976562 62.0029296875 c 0
 715.000976562 20.669921875 648.66796875 0.0029296875 574.000976562 0.0029296875 c 0
 480.66796875 0.0029296875 401.000976562 33.0029296875 335.000976562 99.0029296875 c 0
 269.000976562 165.002929688 236.000976562 244.669921875 236.000976562 338.002929688 c 0
 236.000976562 399.3359375 249.66796875 458.668945312 277.000976562 516.001953125 c 0
 304.333984375 573.334960938 342.666992188 622.66796875 392 664.000976562 c 0
 441.333007812 705.333984375 479.666015625 749.666992188 506.999023438 797 c 0
 534.33203125 844.333007812 547.999023438 890.666015625 547.999023438 935.999023438 c 0
 547.999023438 965.33203125 537.999023438 989.999023438 517.999023438 1009.99902344 c 0
 497.999023438 1029.99902344 473.33203125 1039.99902344 443.999023438 1039.99902344 c 0
 414.666015625 1039.99902344 389.999023438 1029.99902344 369.999023438 1009.99902344 c 0
 349.999023438 989.999023438 339.999023438 965.33203125 339.999023438 935.999023438 c 0
 339.999023438 917.33203125 342.33203125 898.999023438 346.999023438 880.999023438 c 0
 351.666015625 862.999023438 357.999023438 846.666015625 365.999023438 831.999023438 c 1
 209.999023438 779.999023438 l 1
 192.666015625 799.999023438 179.666015625 823.33203125 170.999023438 849.999023438 c 0
 162.33203125 876.666015625 157.999023438 905.333007812 157.999023438 936 c 0
 157.999023438 1012 185.999023438 1076.66699219 241.999023438 1130 c 0
 297.999023438 1183.33300781 365.33203125 1210 443.999023438 1210 c 0
 522.666015625 1210 589.999023438 1183.33300781 645.999023438 1130 c 0
 701.999023438 1076.66699219 729.999023438 1012 729.999023438 936 c 0
 729.999023438 886.666992188 714.33203125 832.666992188 682.999023438 774 c 0
 651.666015625 715.333007812 606.666015625 656.666015625 547.999023438 597.999023438 c 0
 506.666015625 556.666015625 474.666015625 513.333007812 451.999023438 468 c 0
 429.33203125 422.666992188 417.999023438 379.333984375 417.999023438 338.000976562 c 0
 417.999023438 295.333984375 433.33203125 258.666992188 463.999023438 228 c 0
 494.666015625 197.333007812 531.333007812 182 574 182 c 0
 638 182 693 210 739 266 c 0
 785 322 808 389.333007812 808 468 c 1
 964 468 l 1
 964 389.333007812 987 322 1033 266 c 0
 1079 210 1134 182 1198 182 c 0
 1262 182 1317 221.333007812 1363 300 c 0
 1409 378.666992188 1432 474 1432 586 c 1
 1432 586 l 1
774.000976562 -363.997070312 m 1
 774.000976562 -285.997070312 l 1
 826.000976562 52.0029296875 l 1
 930.000976562 52.0029296875 l 1
 982.000976562 -285.997070312 l 1
 982.000976562 -363.997070312 l 1
 774.000976562 -363.997070312 l 1
 774.000976562 -363.997070312 l 1
EndSplineSet
EndChar

StartChar: uni092E
Encoding: 2350 2350 85
Width: 2308
GlyphClass: 2
Flags: W
LayerCount: 2
Fore
SplineSet
140 1014 m 1
 140 1170 l 1
 1154 1170 l 2
 1190 1170 1220.66699219 1182.66699219 1246 1208 c 0
 1271.33300781 1233.33300781 1284 1264 1284 1300 c 0
 1284 1330.66699219 1275 1361.66699219 1257 1393 c 0
 1239 1424.33300781 1213.33300781 1454 1180 1482 c 1
 1284 1586 l 1
 1333.33300781 1544.66699219 1371.66601562 1499 1398.99902344 1449 c 0
 1426.33203125 1399 1439.99902344 1349.33300781 1439.99902344 1300 c 0
 1439.99902344 1221.33300781 1411.99902344 1154 1355.99902344 1098 c 0
 1299.99902344 1042 1232.66601562 1014 1153.99902344 1014 c 2
 1049.99902344 1014 l 1
 1167.33203125 971.333007812 1261.66503906 901.333007812 1332.99804688 804 c 0
 1404.33105469 706.666992188 1439.99804688 599.333984375 1439.99804688 482.000976562 c 1
 1481.33105469 383.333984375 1535.99804688 304.333984375 1603.99804688 245.000976562 c 0
 1671.99804688 185.66796875 1741.99804688 156.000976562 1813.99804688 156.000976562 c 0
 1913.99804688 156.000976562 1999.66503906 198.000976562 2070.99804688 282.000976562 c 0
 2142.33105469 366.000976562 2177.99804688 467.333984375 2177.99804688 586.000976562 c 0
 2177.99804688 704.66796875 2142.33105469 805.66796875 2070.99804688 889.000976562 c 0
 1999.66503906 972.333984375 1913.99804688 1014.00097656 1813.99804688 1014.00097656 c 1
 1827.99804688 1170.00097656 l 1
 1974.66503906 1170.00097656 2099.99804688 1113.00097656 2203.99804688 999.000976562 c 0
 2307.99804688 885.000976562 2359.99804688 747.333984375 2359.99804688 586.000976562 c 0
 2359.99804688 424.66796875 2306.66503906 286.66796875 2199.99804688 172.000976562 c 0
 2093.33105469 57.333984375 1964.6640625 0.0009765625 1813.99707031 0.0009765625 c 0
 1724.6640625 0.0009765625 1642.6640625 22.0009765625 1567.99707031 66.0009765625 c 0
 1493.33007812 110.000976562 1436.66308594 169.333984375 1397.99609375 244.000976562 c 1
 1376.66308594 172.000976562 1338.66308594 113.333984375 1283.99609375 68.0009765625 c 0
 1229.32910156 22.66796875 1168.66210938 0.0009765625 1101.99511719 0.0009765625 c 0
 1032.66210938 0.0009765625 969.329101562 20.333984375 911.99609375 61.0009765625 c 0
 854.663085938 101.66796875 813.99609375 155.334960938 789.99609375 222.001953125 c 1
 765.99609375 155.334960938 725.329101562 101.66796875 667.99609375 61.0009765625 c 0
 610.663085938 20.333984375 547.330078125 0.0009765625 477.997070312 0.0009765625 c 0
 384.6640625 0.0009765625 304.997070312 31.66796875 238.997070312 95.0009765625 c 0
 172.997070312 158.333984375 139.997070312 235.333984375 139.997070312 326.000976562 c 0
 139.997070312 408.66796875 165.330078125 479.000976562 215.997070312 537.000976562 c 0
 266.6640625 595.000976562 327.997070312 624.000976562 399.997070312 624.000976562 c 0
 457.330078125 624.000976562 506.330078125 601.000976562 546.997070312 555.000976562 c 0
 587.6640625 509.000976562 607.997070312 454.000976562 607.997070312 390.000976562 c 1
 477.997070312 390.000976562 l 1
 477.997070312 411.333984375 470.330078125 429.666992188 454.997070312 445 c 0
 439.6640625 460.333007812 421.331054688 468 399.998046875 468 c 0
 378.665039062 468 360.33203125 455.333007812 344.999023438 430 c 0
 329.666015625 404.666992188 321.999023438 374 321.999023438 338 c 0
 321.999023438 295.333007812 337.33203125 258.666015625 367.999023438 227.999023438 c 0
 398.666015625 197.33203125 435.333007812 181.999023438 478 181.999023438 c 0
 542 181.999023438 597 209.999023438 643 265.999023438 c 0
 689 321.999023438 712 389.33203125 712 467.999023438 c 1
 868 467.999023438 l 1
 868 389.33203125 891 321.999023438 937 265.999023438 c 0
 983 209.999023438 1038 181.999023438 1102 181.999023438 c 0
 1156.66699219 181.999023438 1200.66699219 207.999023438 1234 259.999023438 c 0
 1267.33300781 311.999023438 1284 381.33203125 1284 467.999023438 c 0
 1284 618.666015625 1210.33300781 747.333007812 1063 854 c 0
 915.666992188 960.666992188 738 1014 530 1014 c 2
 140 1014 l 1
 140 1014 l 1
EndSplineSet
EndChar

StartChar: uni092F
Encoding: 2351 2351 86
Width: 2972
GlyphClass: 2
Flags: W
LayerCount: 2
Fore
SplineSet
388 598 m 1
 388 483.333007812 423.666992188 385.333007812 495 304 c 0
 566.333007812 222.666992188 652 182 752 182 c 0
 852 182 937.666992188 222.666992188 1009 304 c 0
 1080.33300781 385.333007812 1116 483.333007812 1116 598 c 0
 1116 712.666992188 1080.33300781 810.666992188 1009 892 c 0
 937.666992188 973.333007812 852 1014 752 1014 c 0
 652 1014 566.333007812 973.333007812 495 892 c 0
 423.666992188 810.666992188 388 712.666992188 388 598 c 1
 388 598 l 1
1922 598 m 1
 1922 712.666992188 1894.00292969 810.666015625 1838.00292969 891.999023438 c 0
 1782.00292969 973.33203125 1714.66992188 1013.99902344 1636.00292969 1013.99902344 c 2
 1492.00292969 1013.99902344 l 1
 1492.00292969 1169.99902344 l 1
 1766.00292969 1169.99902344 l 2
 1802.00292969 1169.99902344 1832.66992188 1182.66601562 1858.00292969 1207.99902344 c 0
 1883.3359375 1233.33203125 1896.00292969 1263.99902344 1896.00292969 1299.99902344 c 0
 1896.00292969 1330.66601562 1887.00292969 1361.66601562 1869.00292969 1392.99902344 c 0
 1851.00292969 1424.33203125 1825.3359375 1453.99902344 1792.00292969 1481.99902344 c 1
 1896.00292969 1585.99902344 l 1
 1945.3359375 1544.66601562 1983.66894531 1498.99902344 2011.00195312 1448.99902344 c 0
 2038.33496094 1398.99902344 2052.00195312 1349.33203125 2052.00195312 1299.99902344 c 0
 2052.00195312 1235.99902344 2037.66894531 1179.66601562 2009.00195312 1130.99902344 c 0
 1980.33496094 1082.33203125 1942.66796875 1051.99902344 1896.00097656 1039.99902344 c 1
 1961.33398438 994.666015625 2012.33398438 932.999023438 2049.00097656 854.999023438 c 0
 2085.66796875 776.999023438 2104.00097656 691.33203125 2104.00097656 597.999023438 c 0
 2104.00097656 583.33203125 2103.33398438 567.33203125 2102.00097656 549.999023438 c 0
 2100.66796875 532.666015625 2098.66796875 514.666015625 2096.00097656 495.999023438 c 1
 2137.33398438 393.33203125 2193.00097656 310.999023438 2263.00097656 248.999023438 c 0
 2333.00097656 186.999023438 2404.66796875 155.999023438 2478.00097656 155.999023438 c 0
 2578.00097656 155.999023438 2663.66796875 197.999023438 2735.00097656 281.999023438 c 0
 2806.33398438 365.999023438 2842.00097656 467.33203125 2842.00097656 585.999023438 c 0
 2842.00097656 704.666015625 2806.33398438 805.666015625 2735.00097656 888.999023438 c 0
 2663.66796875 972.33203125 2578.00097656 1013.99902344 2478.00097656 1013.99902344 c 1
 2490.00097656 1169.99902344 l 1
 2638.00097656 1169.99902344 2764.00097656 1112.99902344 2868.00097656 998.999023438 c 0
 2972.00097656 884.999023438 3024.00097656 747.33203125 3024.00097656 585.999023438 c 0
 3024.00097656 424.666015625 2970.66796875 286.666015625 2864.00097656 171.999023438 c 0
 2757.33398438 57.33203125 2628.66699219 -0.0009765625 2478 -0.0009765625 c 0
 2387.33300781 -0.0009765625 2302.66601562 26.666015625 2223.99902344 79.9990234375 c 0
 2145.33203125 133.33203125 2084.66503906 205.33203125 2041.99804688 295.999023438 c 1
 1999.33105469 205.33203125 1941.33105469 133.33203125 1867.99804688 79.9990234375 c 0
 1794.66503906 26.666015625 1717.33203125 -0.0009765625 1635.99902344 -0.0009765625 c 0
 1538.66601562 -0.0009765625 1449.99902344 23.666015625 1369.99902344 70.9990234375 c 0
 1289.99902344 118.33203125 1231.33203125 181.33203125 1193.99902344 259.999023438 c 1
 1147.33203125 179.999023438 1084.66503906 116.666015625 1005.99804688 69.9990234375 c 0
 927.331054688 23.33203125 842.6640625 -0.0009765625 751.997070312 -0.0009765625 c 0
 601.330078125 -0.0009765625 472.663085938 58.33203125 365.99609375 174.999023438 c 0
 259.329101562 291.666015625 205.99609375 432.666015625 205.99609375 597.999023438 c 0
 205.99609375 763.33203125 259.329101562 904.33203125 365.99609375 1020.99902344 c 0
 472.663085938 1137.66601562 601.330078125 1195.99902344 751.997070312 1195.99902344 c 0
 902.6640625 1195.99902344 1031.33105469 1137.66601562 1137.99804688 1020.99902344 c 0
 1244.66503906 904.33203125 1297.99804688 763.33203125 1297.99804688 597.999023438 c 0
 1297.99804688 591.33203125 1296.33105469 574.33203125 1292.99804688 546.999023438 c 0
 1289.66503906 519.666015625 1286.66503906 493.333007812 1283.99804688 468 c 1
 1314.66503906 382.666992188 1362.33203125 313.666992188 1426.99902344 261 c 0
 1491.66601562 208.333007812 1561.33300781 182 1636 182 c 0
 1714.66699219 182 1782 222.666992188 1838 304 c 0
 1894 385.333007812 1922 483.333007812 1922 598 c 1
 1922 598 l 1
EndSplineSet
EndChar

StartChar: uni0930
Encoding: 2352 2352 87
Width: 1290
GlyphClass: 2
Flags: W
LayerCount: 2
Fore
SplineSet
228 598 m 1
 228 483.333007812 266 385.333007812 342 304 c 0
 418 222.666992188 510 182 618 182 c 0
 726 182 818 222.666992188 894 304 c 0
 970 385.333007812 1008 483.333007812 1008 598 c 0
 1008 712.666992188 970 810.666992188 894 892 c 0
 818 973.333007812 726 1014 618 1014 c 0
 510 1014 418 973.333007812 342 892 c 0
 266 810.666992188 228 712.666992188 228 598 c 1
 228 598 l 1
240 1014 m 1
 46 1014 l 1
 46 1170 l 1
 982 1170 l 2
 1018 1170 1048.66699219 1182.66699219 1074 1208 c 0
 1099.33300781 1233.33300781 1112 1264 1112 1300 c 0
 1112 1333.33300781 1104 1366 1088 1398 c 0
 1072 1430 1049.33300781 1458 1020 1482 c 1
 1112 1586 l 1
 1160 1558 1198 1518.33300781 1226 1467 c 0
 1254 1415.66699219 1268 1360 1268 1300 c 0
 1268 1221.33300781 1241.33300781 1154 1188 1098 c 0
 1134.66699219 1042 1070 1014 994 1014 c 1
 1056.66699219 962 1105 899.666992188 1139 827 c 0
 1173 754.333007812 1190 678 1190 598 c 0
 1190 432.666992188 1134 291.666992188 1022 175 c 0
 910 58.3330078125 775.333007812 0 618 0 c 0
 460.666992188 -0 326 58.3330078125 214 175 c 0
 102 291.666992188 46 432.666992188 46 598 c 0
 46 678 63 754.333007812 97 827 c 0
 131 899.666992188 178.666992188 962 240 1014 c 1
 240 1014 l 1
EndSplineSet
EndChar

StartChar: uni0931
Encoding: 2353 2353 88
Width: 1490
GlyphClass: 2
Flags: W
LayerCount: 2
Fore
SplineSet
264 910 m 1
 264 880.666992188 271.666992188 856 287 836 c 0
 302.333007812 816 320.666015625 806 341.999023438 806 c 0
 363.33203125 806 381.665039062 816 396.998046875 836 c 0
 412.331054688 856 419.998046875 880.666992188 419.998046875 910 c 0
 419.998046875 939.333007812 412.331054688 964 396.998046875 984 c 0
 381.665039062 1004 363.33203125 1014 341.999023438 1014 c 0
 320.666015625 1014 302.333007812 1004 287 984 c 0
 271.666992188 964 264 939.333007812 264 910 c 1
 264 910 l 1
966 910 m 1
 966 880.666992188 973.666992188 856.000976562 989 836.000976562 c 0
 1004.33300781 816.000976562 1022.66601562 806.000976562 1043.99902344 806.000976562 c 0
 1065.33203125 806.000976562 1083.66503906 813.66796875 1098.99804688 829.000976562 c 0
 1114.33105469 844.333984375 1121.99804688 862.666992188 1121.99804688 884 c 0
 1121.99804688 920 1114.33105469 950.666992188 1098.99804688 976 c 0
 1083.66503906 1001.33300781 1065.33203125 1014 1043.99902344 1014 c 0
 1022.66601562 1014 1004.33300781 1004 989 984 c 0
 973.666992188 964 966 939.333007812 966 910 c 1
 966 910 l 1
42 586.000976562 m 1
 42 770.000976562 70.3310546875 917.66796875 126.998046875 1029.00097656 c 0
 183.665039062 1140.33398438 259.33203125 1196.00097656 353.999023438 1196.00097656 c 0
 425.999023438 1196.00097656 487.33203125 1168.00097656 537.999023438 1112.00097656 c 0
 588.666015625 1056.00097656 613.999023438 988.66796875 613.999023438 910.000976562 c 0
 613.999023438 876.66796875 608.666015625 844.334960938 597.999023438 813.001953125 c 0
 587.33203125 781.668945312 571.999023438 753.3359375 551.999023438 728.002929688 c 1
 843.999023438 728.002929688 l 1
 823.999023438 753.3359375 808.999023438 781.668945312 798.999023438 813.001953125 c 0
 788.999023438 844.334960938 783.999023438 876.66796875 783.999023438 910.000976562 c 0
 783.999023438 988.66796875 809.33203125 1056.00097656 859.999023438 1112.00097656 c 0
 910.666015625 1168.00097656 971.999023438 1196.00097656 1043.99902344 1196.00097656 c 0
 1138.66601562 1196.00097656 1214.33300781 1140.33398438 1271 1029.00097656 c 0
 1327.66699219 917.66796875 1356 770.000976562 1356 586.000976562 c 0
 1356 424.66796875 1318 286.66796875 1242 172.000976562 c 0
 1166 57.333984375 1074 0.0009765625 966 0.0009765625 c 0
 902 0.0009765625 845 14.333984375 795 43.0009765625 c 0
 745 71.66796875 710.666992188 109.334960938 692 156.001953125 c 1
 673.333007812 109.334960938 641.333007812 71.66796875 596 43.0009765625 c 0
 550.666992188 14.333984375 500.666992188 0.0009765625 446 0.0009765625 c 0
 334 0.0009765625 238.666992188 57.333984375 160 172.000976562 c 0
 81.3330078125 286.66796875 42 424.66796875 42 586.000976562 c 1
 42 586.000976562 l 1
341.998046875 624.000976562 m 1
 331.331054688 624.000976562 317.330078125 626.333984375 299.997070312 631.000976562 c 0
 282.6640625 635.66796875 261.997070312 642.000976562 237.997070312 650.000976562 c 1
 231.997070312 586.000976562 l 1
 231.997070312 474.000976562 252.997070312 378.66796875 294.997070312 300.000976562 c 0
 336.997070312 221.333984375 387.330078125 182.000976562 445.997070312 182.000976562 c 0
 496.6640625 182.000976562 539.6640625 205.000976562 574.997070312 251.000976562 c 0
 610.330078125 297.000976562 627.997070312 352.000976562 627.997070312 416.000976562 c 1
 783.997070312 416.000976562 l 1
 783.997070312 352.000976562 801.6640625 297.000976562 836.997070312 251.000976562 c 0
 872.330078125 205.000976562 915.330078125 182.000976562 965.997070312 182.000976562 c 0
 1024.6640625 182.000976562 1074.99707031 222.000976562 1116.99707031 302.000976562 c 0
 1158.99707031 382.000976562 1179.99707031 478.000976562 1179.99707031 590.000976562 c 1
 1173.99707031 650.000976562 l 1
 1160.6640625 642.000976562 1143.33105469 635.66796875 1121.99804688 631.000976562 c 0
 1100.66503906 626.333984375 1076.66503906 624.000976562 1049.99804688 624.000976562 c 1
 1049.99804688 560.000976562 l 1
 341.998046875 560.000976562 l 1
 341.998046875 624.000976562 l 1
 341.998046875 624.000976562 l 1
EndSplineSet
EndChar

StartChar: uni0932
Encoding: 2354 2354 89
Width: 1526
GlyphClass: 2
Flags: W
LayerCount: 2
Fore
SplineSet
564 936 m 1
 564 906.666992188 574 882 594 862 c 0
 614 842 638.666992188 832 668 832 c 0
 697.333007812 832 722 842 742 862 c 0
 762 882 772 906.666992188 772 936 c 0
 772 965.333007812 762 990 742 1010 c 0
 722 1030 697.333007812 1040 668 1040 c 0
 638.666992188 1040 614 1030 594 1010 c 0
 574 990 564 965.333007812 564 936 c 1
 564 936 l 1
890 182 m 1
 1043.33300781 182 1166.00097656 227.001953125 1258.00097656 317.001953125 c 0
 1350.00097656 407.001953125 1396.00097656 526.668945312 1396.00097656 676.001953125 c 0
 1396.00097656 750.668945312 1372.33398438 820.668945312 1325.00097656 886.001953125 c 0
 1277.66796875 951.334960938 1214.66796875 1002.66796875 1136.00097656 1040.00097656 c 1
 1240.00097656 1196.00097656 l 1
 1342.66796875 1148.00097656 1424.66796875 1077.00097656 1486.00097656 983.000976562 c 0
 1547.33398438 889.000976562 1578.00097656 786.66796875 1578.00097656 676.000976562 c 0
 1578.00097656 472.000976562 1515.33398438 308.333984375 1390.00097656 185.000976562 c 0
 1264.66796875 61.66796875 1098.00097656 0.0009765625 890.000976562 0.0009765625 c 0
 680.66796875 0.0009765625 513.334960938 61.66796875 388.001953125 185.000976562 c 0
 262.668945312 308.333984375 200.001953125 472.000976562 200.001953125 676.000976562 c 0
 200.001953125 820.000976562 245.668945312 942.66796875 337.001953125 1044.00097656 c 0
 428.334960938 1145.33398438 538.66796875 1196.00097656 668.000976562 1196.00097656 c 0
 746.66796875 1196.00097656 814.000976562 1170.66796875 870.000976562 1120.00097656 c 0
 926.000976562 1069.33398438 954.000976562 1008.00097656 954.000976562 936.000976562 c 0
 954.000976562 861.333984375 926.000976562 797.333984375 870.000976562 744.000976562 c 0
 814.000976562 690.66796875 746.66796875 664.000976562 668.000976562 664.000976562 c 0
 605.333984375 664.000976562 550.666992188 680.000976562 504 712.000976562 c 0
 457.333007812 744.000976562 430 784.000976562 422 832.000976562 c 1
 408.666992188 816.000976562 398.666992188 794.66796875 392 768.000976562 c 0
 385.333007812 741.333984375 382 710.666992188 382 676 c 0
 382 526.666992188 428.333007812 407 521 317 c 0
 613.666992188 227 736.666992188 182 890 182 c 1
 890 182 l 1
EndSplineSet
EndChar

StartChar: uni0933
Encoding: 2355 2355 90
Width: 1224
GlyphClass: 2
Flags: W
LayerCount: 2
Fore
SplineSet
418 936 m 1
 418 906.666992188 428 882 448 862 c 0
 468 842 492.666992188 832 522 832 c 0
 551.333007812 832 576 842 596 862 c 0
 616 882 626 906.666992188 626 936 c 0
 626 965.333007812 616 990 596 1010 c 0
 576 1030 551.333007812 1040 522 1040 c 0
 492.666992188 1040 468 1030 448 1010 c 0
 428 990 418 965.333007812 418 936 c 1
 418 936 l 1
678 260 m 1
 678 230.666992188 688 206 708 186 c 0
 728 166 752.666992188 156 782 156 c 0
 811.333007812 156 836 166 856 186 c 0
 876 206 886 230.666992188 886 260 c 0
 886 289.333007812 876 314 856 334 c 0
 836 354 811.333007812 364 782 364 c 0
 752.666992188 364 728 354 708 334 c 0
 688 314 678 289.333007812 678 260 c 1
 678 260 l 1
782 520 m 1
 879.333007812 537.333007812 960.000976562 569.330078125 1024.00097656 615.997070312 c 0
 1088.00097656 662.6640625 1120.00097656 713.331054688 1120.00097656 767.998046875 c 0
 1120.00097656 835.998046875 1099.66796875 893.998046875 1059.00097656 941.998046875 c 0
 1018.33398438 989.998046875 969.333984375 1013.99804688 912.000976562 1013.99804688 c 1
 912.000976562 1169.99804688 l 1
 1146.00097656 1169.99804688 l 2
 1182.00097656 1169.99804688 1212.66796875 1182.66503906 1238.00097656 1207.99804688 c 0
 1263.33398438 1233.33105469 1276.00097656 1263.99804688 1276.00097656 1299.99804688 c 0
 1276.00097656 1330.66503906 1267.00097656 1361.66503906 1249.00097656 1392.99804688 c 0
 1231.00097656 1424.33105469 1205.33398438 1453.99804688 1172.00097656 1481.99804688 c 1
 1276.00097656 1585.99804688 l 1
 1325.33398438 1544.66503906 1363.66699219 1498.99804688 1391 1448.99804688 c 0
 1418.33300781 1398.99804688 1432 1349.33105469 1432 1299.99804688 c 0
 1432 1225.33105469 1408.33300781 1160.6640625 1361 1105.99707031 c 0
 1313.66699219 1051.33007812 1255.33398438 1020.66308594 1186.00097656 1013.99609375 c 1
 1215.33398438 984.663085938 1237.66699219 947.663085938 1253 902.99609375 c 0
 1268.33300781 858.329101562 1276 808.662109375 1276 753.995117188 c 0
 1276 691.328125 1247.33300781 630.328125 1190 570.995117188 c 0
 1132.66699219 511.662109375 1057.33398438 464.662109375 964.000976562 429.995117188 c 1
 989.333984375 408.662109375 1008.66699219 383.329101562 1022 353.99609375 c 0
 1035.33300781 324.663085938 1042 293.330078125 1042 259.997070312 c 0
 1042 187.997070312 1016.66699219 126.6640625 966 75.9970703125 c 0
 915.333007812 25.330078125 854 -0.0029296875 782 -0.0029296875 c 0
 710 -0.0029296875 648.666992188 25.330078125 598 75.9970703125 c 0
 547.333007812 126.6640625 522 187.997070312 522 259.997070312 c 0
 522 275.997070312 524.333007812 293.6640625 529 312.997070312 c 0
 533.666992188 332.330078125 540 353.997070312 548 377.997070312 c 1
 430.666992188 388.6640625 332 437.331054688 252 523.998046875 c 0
 172 610.665039062 132 713.33203125 132 831.999023438 c 0
 132 931.999023438 170 1017.66601562 246 1088.99902344 c 0
 322 1160.33203125 414 1195.99902344 522 1195.99902344 c 0
 594 1195.99902344 655.333007812 1170.66601562 706 1119.99902344 c 0
 756.666992188 1069.33203125 782 1007.99902344 782 935.999023438 c 0
 782 863.999023438 756.666992188 802.666015625 706 751.999023438 c 0
 655.333007812 701.33203125 594 675.999023438 522 675.999023438 c 0
 467.333007812 675.999023438 418 700.666015625 374 749.999023438 c 0
 330 799.33203125 301.333007812 861.33203125 288 935.999023438 c 1
 262 831.999023438 l 1
 262 726.666015625 314.666992188 642.333007812 420 579 c 0
 525.333007812 515.666992188 646 496 782 520 c 1
 782 520 l 1
EndSplineSet
EndChar

StartChar: uni0935
Encoding: 2357 2357 91
Width: 1444
GlyphClass: 2
Flags: W
LayerCount: 2
Fore
SplineSet
140 1014 m 1
 139.997070312 1170 l 1
 1153.99707031 1170 l 2
 1189.99707031 1170 1220.6640625 1182.66699219 1245.99707031 1208 c 0
 1271.33007812 1233.33300781 1283.99707031 1264 1283.99707031 1300 c 0
 1283.99707031 1330.66699219 1274.99707031 1361.66699219 1256.99707031 1393 c 0
 1238.99707031 1424.33300781 1213.33007812 1454 1179.99707031 1482 c 1
 1283.99707031 1586 l 1
 1333.33007812 1544.66699219 1371.66308594 1499 1398.99609375 1449 c 0
 1426.32910156 1399 1439.99609375 1349.33300781 1439.99609375 1300 c 0
 1439.99609375 1221.33300781 1411.99609375 1154 1355.99609375 1098 c 0
 1299.99609375 1042 1232.66308594 1014 1153.99609375 1014 c 2
 1049.99609375 1014 l 1
 1167.32910156 971.333007812 1261.66210938 901.333007812 1332.99511719 804 c 0
 1404.328125 706.666992188 1439.99511719 599.333984375 1439.99511719 482.000976562 c 0
 1439.99511719 336.66796875 1409.328125 220.000976562 1347.99511719 132.000976562 c 0
 1286.66210938 44.0009765625 1204.66210938 0.0009765625 1101.99511719 0.0009765625 c 0
 1032.66210938 0.0009765625 969.329101562 20.333984375 911.99609375 61.0009765625 c 0
 854.663085938 101.66796875 813.99609375 155.334960938 789.99609375 222.001953125 c 1
 765.99609375 155.334960938 725.329101562 101.66796875 667.99609375 61.0009765625 c 0
 610.663085938 20.333984375 547.330078125 0.0009765625 477.997070312 0.0009765625 c 0
 384.6640625 0.0009765625 304.997070312 31.66796875 238.997070312 95.0009765625 c 0
 172.997070312 158.333984375 139.997070312 235.333984375 139.997070312 326.000976562 c 0
 139.997070312 408.66796875 165.330078125 479.000976562 215.997070312 537.000976562 c 0
 266.6640625 595.000976562 327.997070312 624.000976562 399.997070312 624.000976562 c 0
 457.330078125 624.000976562 506.330078125 601.000976562 546.997070312 555.000976562 c 0
 587.6640625 509.000976562 607.997070312 454.000976562 607.997070312 390.000976562 c 1
 477.997070312 390.000976562 l 1
 477.997070312 411.333984375 470.330078125 429.666992188 454.997070312 445 c 0
 439.6640625 460.333007812 421.331054688 468 399.998046875 468 c 0
 378.665039062 468 360.33203125 455.333007812 344.999023438 430 c 0
 329.666015625 404.666992188 321.999023438 374 321.999023438 338 c 0
 321.999023438 295.333007812 337.33203125 258.666015625 367.999023438 227.999023438 c 0
 398.666015625 197.33203125 435.333007812 181.999023438 478 181.999023438 c 0
 542 181.999023438 597 209.999023438 643 265.999023438 c 0
 689 321.999023438 712 389.33203125 712 467.999023438 c 1
 868 467.999023438 l 1
 868 389.33203125 891 321.999023438 937 265.999023438 c 0
 983 209.999023438 1038 181.999023438 1102 181.999023438 c 0
 1156.66699219 181.999023438 1200.66699219 207.999023438 1234 259.999023438 c 0
 1267.33300781 311.999023438 1284 381.33203125 1284 467.999023438 c 0
 1284 618.666015625 1210.33300781 747.333007812 1063 854 c 0
 915.666992188 960.666992188 738 1014 530 1014 c 2
 140 1014 l 1
 140 1014 l 1
EndSplineSet
EndChar

